<svg xmlns="http://www.w3.org/2000/svg" xmlns:xlink="http://www.w3.org/1999/xlink" width="600" height="400" viewBox="0 0 2400 1600">
<defs>
  <clipPath id="clip690">
    <rect x="0" y="0" width="2400" height="1600"></rect>
  </clipPath>
</defs>
<path clip-path="url(#clip690)" d="M0 1600 L2400 1600 L2400 0 L0 0  Z" fill="#ffffff" fill-rule="evenodd" fill-opacity="1"></path>
<defs>
  <clipPath id="clip691">
    <rect x="480" y="0" width="1681" height="1600"></rect>
  </clipPath>
</defs>
<path clip-path="url(#clip690)" d="M175.445 1423.18 L2352.76 1423.18 L2352.76 123.472 L175.445 123.472  Z" fill="#ffffff" fill-rule="evenodd" fill-opacity="1"></path>
<defs>
  <clipPath id="clip692">
    <rect x="175" y="123" width="2178" height="1301"></rect>
  </clipPath>
</defs>
<polyline clip-path="url(#clip692)" style="stroke:#000000; stroke-linecap:round; stroke-linejoin:round; stroke-width:2; stroke-opacity:0.1; fill:none" points="237.067,1423.18 237.067,123.472 "></polyline>
<polyline clip-path="url(#clip692)" style="stroke:#000000; stroke-linecap:round; stroke-linejoin:round; stroke-width:2; stroke-opacity:0.1; fill:none" points="750.584,1423.18 750.584,123.472 "></polyline>
<polyline clip-path="url(#clip692)" style="stroke:#000000; stroke-linecap:round; stroke-linejoin:round; stroke-width:2; stroke-opacity:0.1; fill:none" points="1264.1,1423.18 1264.1,123.472 "></polyline>
<polyline clip-path="url(#clip692)" style="stroke:#000000; stroke-linecap:round; stroke-linejoin:round; stroke-width:2; stroke-opacity:0.1; fill:none" points="1777.62,1423.18 1777.62,123.472 "></polyline>
<polyline clip-path="url(#clip692)" style="stroke:#000000; stroke-linecap:round; stroke-linejoin:round; stroke-width:2; stroke-opacity:0.1; fill:none" points="2291.13,1423.18 2291.13,123.472 "></polyline>
<polyline clip-path="url(#clip690)" style="stroke:#000000; stroke-linecap:round; stroke-linejoin:round; stroke-width:4; stroke-opacity:1; fill:none" points="175.445,1423.18 2352.76,1423.18 "></polyline>
<polyline clip-path="url(#clip690)" style="stroke:#000000; stroke-linecap:round; stroke-linejoin:round; stroke-width:4; stroke-opacity:1; fill:none" points="237.067,1423.18 237.067,1404.28 "></polyline>
<polyline clip-path="url(#clip690)" style="stroke:#000000; stroke-linecap:round; stroke-linejoin:round; stroke-width:4; stroke-opacity:1; fill:none" points="750.584,1423.18 750.584,1404.28 "></polyline>
<polyline clip-path="url(#clip690)" style="stroke:#000000; stroke-linecap:round; stroke-linejoin:round; stroke-width:4; stroke-opacity:1; fill:none" points="1264.1,1423.18 1264.1,1404.28 "></polyline>
<polyline clip-path="url(#clip690)" style="stroke:#000000; stroke-linecap:round; stroke-linejoin:round; stroke-width:4; stroke-opacity:1; fill:none" points="1777.62,1423.18 1777.62,1404.28 "></polyline>
<polyline clip-path="url(#clip690)" style="stroke:#000000; stroke-linecap:round; stroke-linejoin:round; stroke-width:4; stroke-opacity:1; fill:none" points="2291.13,1423.18 2291.13,1404.28 "></polyline>
<path clip-path="url(#clip690)" d="M199.371 1454.1 Q195.76 1454.1 193.931 1457.66 Q192.125 1461.2 192.125 1468.33 Q192.125 1475.44 193.931 1479.01 Q195.76 1482.55 199.371 1482.55 Q203.005 1482.55 204.81 1479.01 Q206.639 1475.44 206.639 1468.33 Q206.639 1461.2 204.81 1457.66 Q203.005 1454.1 199.371 1454.1 M199.371 1450.39 Q205.181 1450.39 208.236 1455 Q211.315 1459.58 211.315 1468.33 Q211.315 1477.06 208.236 1481.67 Q205.181 1486.25 199.371 1486.25 Q193.56 1486.25 190.482 1481.67 Q187.426 1477.06 187.426 1468.33 Q187.426 1459.58 190.482 1455 Q193.56 1450.39 199.371 1450.39 Z" fill="#000000" fill-rule="nonzero" fill-opacity="1"></path><path clip-path="url(#clip690)" d="M219.533 1479.7 L224.417 1479.7 L224.417 1485.58 L219.533 1485.58 L219.533 1479.7 Z" fill="#000000" fill-rule="nonzero" fill-opacity="1"></path><path clip-path="url(#clip690)" d="M244.602 1454.1 Q240.991 1454.1 239.162 1457.66 Q237.357 1461.2 237.357 1468.33 Q237.357 1475.44 239.162 1479.01 Q240.991 1482.55 244.602 1482.55 Q248.236 1482.55 250.042 1479.01 Q251.87 1475.44 251.87 1468.33 Q251.87 1461.2 250.042 1457.66 Q248.236 1454.1 244.602 1454.1 M244.602 1450.39 Q250.412 1450.39 253.468 1455 Q256.546 1459.58 256.546 1468.33 Q256.546 1477.06 253.468 1481.67 Q250.412 1486.25 244.602 1486.25 Q238.792 1486.25 235.713 1481.67 Q232.658 1477.06 232.658 1468.33 Q232.658 1459.58 235.713 1455 Q238.792 1450.39 244.602 1450.39 Z" fill="#000000" fill-rule="nonzero" fill-opacity="1"></path><path clip-path="url(#clip690)" d="M274.764 1454.1 Q271.153 1454.1 269.324 1457.66 Q267.518 1461.2 267.518 1468.33 Q267.518 1475.44 269.324 1479.01 Q271.153 1482.55 274.764 1482.55 Q278.398 1482.55 280.204 1479.01 Q282.032 1475.44 282.032 1468.33 Q282.032 1461.2 280.204 1457.66 Q278.398 1454.1 274.764 1454.1 M274.764 1450.39 Q280.574 1450.39 283.629 1455 Q286.708 1459.58 286.708 1468.33 Q286.708 1477.06 283.629 1481.67 Q280.574 1486.25 274.764 1486.25 Q268.954 1486.25 265.875 1481.67 Q262.819 1477.06 262.819 1468.33 Q262.819 1459.58 265.875 1455 Q268.954 1450.39 274.764 1450.39 Z" fill="#000000" fill-rule="nonzero" fill-opacity="1"></path><path clip-path="url(#clip690)" d="M713.385 1454.1 Q709.774 1454.1 707.945 1457.66 Q706.14 1461.2 706.14 1468.33 Q706.14 1475.44 707.945 1479.01 Q709.774 1482.55 713.385 1482.55 Q717.019 1482.55 718.825 1479.01 Q720.653 1475.44 720.653 1468.33 Q720.653 1461.2 718.825 1457.66 Q717.019 1454.1 713.385 1454.1 M713.385 1450.39 Q719.195 1450.39 722.251 1455 Q725.329 1459.58 725.329 1468.33 Q725.329 1477.06 722.251 1481.67 Q719.195 1486.25 713.385 1486.25 Q707.575 1486.25 704.496 1481.67 Q701.441 1477.06 701.441 1468.33 Q701.441 1459.58 704.496 1455 Q707.575 1450.39 713.385 1450.39 Z" fill="#000000" fill-rule="nonzero" fill-opacity="1"></path><path clip-path="url(#clip690)" d="M733.547 1479.7 L738.431 1479.7 L738.431 1485.58 L733.547 1485.58 L733.547 1479.7 Z" fill="#000000" fill-rule="nonzero" fill-opacity="1"></path><path clip-path="url(#clip690)" d="M752.644 1481.64 L768.963 1481.64 L768.963 1485.58 L747.019 1485.58 L747.019 1481.64 Q749.681 1478.89 754.264 1474.26 Q758.871 1469.61 760.051 1468.27 Q762.297 1465.74 763.176 1464.01 Q764.079 1462.25 764.079 1460.56 Q764.079 1457.8 762.135 1456.07 Q760.213 1454.33 757.112 1454.33 Q754.913 1454.33 752.459 1455.09 Q750.028 1455.86 747.251 1457.41 L747.251 1452.69 Q750.075 1451.55 752.528 1450.97 Q754.982 1450.39 757.019 1450.39 Q762.389 1450.39 765.584 1453.08 Q768.778 1455.77 768.778 1460.26 Q768.778 1462.39 767.968 1464.31 Q767.181 1466.2 765.075 1468.8 Q764.496 1469.47 761.394 1472.69 Q758.292 1475.88 752.644 1481.64 Z" fill="#000000" fill-rule="nonzero" fill-opacity="1"></path><path clip-path="url(#clip690)" d="M778.824 1451.02 L797.181 1451.02 L797.181 1454.96 L783.107 1454.96 L783.107 1463.43 Q784.125 1463.08 785.144 1462.92 Q786.162 1462.73 787.181 1462.73 Q792.968 1462.73 796.348 1465.9 Q799.727 1469.08 799.727 1474.49 Q799.727 1480.07 796.255 1483.17 Q792.783 1486.25 786.463 1486.25 Q784.287 1486.25 782.019 1485.88 Q779.774 1485.51 777.366 1484.77 L777.366 1480.07 Q779.449 1481.2 781.672 1481.76 Q783.894 1482.32 786.371 1482.32 Q790.375 1482.32 792.713 1480.21 Q795.051 1478.1 795.051 1474.49 Q795.051 1470.88 792.713 1468.77 Q790.375 1466.67 786.371 1466.67 Q784.496 1466.67 782.621 1467.08 Q780.769 1467.5 778.824 1468.38 L778.824 1451.02 Z" fill="#000000" fill-rule="nonzero" fill-opacity="1"></path><path clip-path="url(#clip690)" d="M1226.4 1454.1 Q1222.79 1454.1 1220.96 1457.66 Q1219.16 1461.2 1219.16 1468.33 Q1219.16 1475.44 1220.96 1479.01 Q1222.79 1482.55 1226.4 1482.55 Q1230.04 1482.55 1231.84 1479.01 Q1233.67 1475.44 1233.67 1468.33 Q1233.67 1461.2 1231.84 1457.66 Q1230.04 1454.1 1226.4 1454.1 M1226.4 1450.39 Q1232.21 1450.39 1235.27 1455 Q1238.35 1459.58 1238.35 1468.33 Q1238.35 1477.06 1235.27 1481.67 Q1232.21 1486.25 1226.4 1486.25 Q1220.59 1486.25 1217.52 1481.67 Q1214.46 1477.06 1214.46 1468.33 Q1214.46 1459.58 1217.52 1455 Q1220.59 1450.39 1226.4 1450.39 Z" fill="#000000" fill-rule="nonzero" fill-opacity="1"></path><path clip-path="url(#clip690)" d="M1246.57 1479.7 L1251.45 1479.7 L1251.45 1485.58 L1246.57 1485.58 L1246.57 1479.7 Z" fill="#000000" fill-rule="nonzero" fill-opacity="1"></path><path clip-path="url(#clip690)" d="M1261.68 1451.02 L1280.04 1451.02 L1280.04 1454.96 L1265.96 1454.96 L1265.96 1463.43 Q1266.98 1463.08 1268 1462.92 Q1269.02 1462.73 1270.04 1462.73 Q1275.83 1462.73 1279.2 1465.9 Q1282.58 1469.08 1282.58 1474.49 Q1282.58 1480.07 1279.11 1483.17 Q1275.64 1486.25 1269.32 1486.25 Q1267.14 1486.25 1264.88 1485.88 Q1262.63 1485.51 1260.22 1484.77 L1260.22 1480.07 Q1262.31 1481.2 1264.53 1481.76 Q1266.75 1482.32 1269.23 1482.32 Q1273.23 1482.32 1275.57 1480.21 Q1277.91 1478.1 1277.91 1474.49 Q1277.91 1470.88 1275.57 1468.77 Q1273.23 1466.67 1269.23 1466.67 Q1267.35 1466.67 1265.48 1467.08 Q1263.63 1467.5 1261.68 1468.38 L1261.68 1451.02 Z" fill="#000000" fill-rule="nonzero" fill-opacity="1"></path><path clip-path="url(#clip690)" d="M1301.8 1454.1 Q1298.19 1454.1 1296.36 1457.66 Q1294.55 1461.2 1294.55 1468.33 Q1294.55 1475.44 1296.36 1479.01 Q1298.19 1482.55 1301.8 1482.55 Q1305.43 1482.55 1307.24 1479.01 Q1309.07 1475.44 1309.07 1468.33 Q1309.07 1461.2 1307.24 1457.66 Q1305.43 1454.1 1301.8 1454.1 M1301.8 1450.39 Q1307.61 1450.39 1310.66 1455 Q1313.74 1459.58 1313.74 1468.33 Q1313.74 1477.06 1310.66 1481.67 Q1307.61 1486.25 1301.8 1486.25 Q1295.99 1486.25 1292.91 1481.67 Q1289.85 1477.06 1289.85 1468.33 Q1289.85 1459.58 1292.91 1455 Q1295.99 1450.39 1301.8 1450.39 Z" fill="#000000" fill-rule="nonzero" fill-opacity="1"></path><path clip-path="url(#clip690)" d="M1740.42 1454.1 Q1736.81 1454.1 1734.98 1457.66 Q1733.17 1461.2 1733.17 1468.33 Q1733.17 1475.44 1734.98 1479.01 Q1736.81 1482.55 1740.42 1482.55 Q1744.05 1482.55 1745.86 1479.01 Q1747.69 1475.44 1747.69 1468.33 Q1747.69 1461.2 1745.86 1457.66 Q1744.05 1454.1 1740.42 1454.1 M1740.42 1450.39 Q1746.23 1450.39 1749.28 1455 Q1752.36 1459.58 1752.36 1468.33 Q1752.36 1477.06 1749.28 1481.67 Q1746.23 1486.25 1740.42 1486.25 Q1734.61 1486.25 1731.53 1481.67 Q1728.47 1477.06 1728.47 1468.33 Q1728.47 1459.58 1731.53 1455 Q1734.61 1450.39 1740.42 1450.39 Z" fill="#000000" fill-rule="nonzero" fill-opacity="1"></path><path clip-path="url(#clip690)" d="M1760.58 1479.7 L1765.46 1479.7 L1765.46 1485.58 L1760.58 1485.58 L1760.58 1479.7 Z" fill="#000000" fill-rule="nonzero" fill-opacity="1"></path><path clip-path="url(#clip690)" d="M1774.47 1451.02 L1796.69 1451.02 L1796.69 1453.01 L1784.14 1485.58 L1779.26 1485.58 L1791.07 1454.96 L1774.47 1454.96 L1774.47 1451.02 Z" fill="#000000" fill-rule="nonzero" fill-opacity="1"></path><path clip-path="url(#clip690)" d="M1805.86 1451.02 L1824.21 1451.02 L1824.21 1454.96 L1810.14 1454.96 L1810.14 1463.43 Q1811.16 1463.08 1812.18 1462.92 Q1813.2 1462.73 1814.21 1462.73 Q1820 1462.73 1823.38 1465.9 Q1826.76 1469.08 1826.76 1474.49 Q1826.76 1480.07 1823.29 1483.17 Q1819.82 1486.25 1813.5 1486.25 Q1811.32 1486.25 1809.05 1485.88 Q1806.81 1485.51 1804.4 1484.77 L1804.4 1480.07 Q1806.48 1481.2 1808.71 1481.76 Q1810.93 1482.32 1813.4 1482.32 Q1817.41 1482.32 1819.75 1480.21 Q1822.08 1478.1 1822.08 1474.49 Q1822.08 1470.88 1819.75 1468.77 Q1817.41 1466.67 1813.4 1466.67 Q1811.53 1466.67 1809.65 1467.08 Q1807.8 1467.5 1805.86 1468.38 L1805.86 1451.02 Z" fill="#000000" fill-rule="nonzero" fill-opacity="1"></path><path clip-path="url(#clip690)" d="M2243.21 1481.64 L2250.84 1481.64 L2250.84 1455.28 L2242.53 1456.95 L2242.53 1452.69 L2250.8 1451.02 L2255.47 1451.02 L2255.47 1481.64 L2263.11 1481.64 L2263.11 1485.58 L2243.21 1485.58 L2243.21 1481.64 Z" fill="#000000" fill-rule="nonzero" fill-opacity="1"></path><path clip-path="url(#clip690)" d="M2272.56 1479.7 L2277.44 1479.7 L2277.44 1485.58 L2272.56 1485.58 L2272.56 1479.7 Z" fill="#000000" fill-rule="nonzero" fill-opacity="1"></path><path clip-path="url(#clip690)" d="M2297.63 1454.1 Q2294.02 1454.1 2292.19 1457.66 Q2290.38 1461.2 2290.38 1468.33 Q2290.38 1475.44 2292.19 1479.01 Q2294.02 1482.55 2297.63 1482.55 Q2301.26 1482.55 2303.07 1479.01 Q2304.9 1475.44 2304.9 1468.33 Q2304.9 1461.2 2303.07 1457.66 Q2301.26 1454.1 2297.63 1454.1 M2297.63 1450.39 Q2303.44 1450.39 2306.49 1455 Q2309.57 1459.58 2309.57 1468.33 Q2309.57 1477.06 2306.49 1481.67 Q2303.44 1486.25 2297.63 1486.25 Q2291.82 1486.25 2288.74 1481.67 Q2285.68 1477.06 2285.68 1468.33 Q2285.68 1459.58 2288.74 1455 Q2291.82 1450.39 2297.63 1450.39 Z" fill="#000000" fill-rule="nonzero" fill-opacity="1"></path><path clip-path="url(#clip690)" d="M2327.79 1454.1 Q2324.18 1454.1 2322.35 1457.66 Q2320.54 1461.2 2320.54 1468.33 Q2320.54 1475.44 2322.35 1479.01 Q2324.18 1482.55 2327.79 1482.55 Q2331.42 1482.55 2333.23 1479.01 Q2335.06 1475.44 2335.06 1468.33 Q2335.06 1461.2 2333.23 1457.66 Q2331.42 1454.1 2327.79 1454.1 M2327.79 1450.39 Q2333.6 1450.39 2336.65 1455 Q2339.73 1459.58 2339.73 1468.33 Q2339.73 1477.06 2336.65 1481.67 Q2333.6 1486.25 2327.79 1486.25 Q2321.98 1486.25 2318.9 1481.67 Q2315.84 1477.06 2315.84 1468.33 Q2315.84 1459.58 2318.9 1455 Q2321.98 1450.39 2327.79 1450.39 Z" fill="#000000" fill-rule="nonzero" fill-opacity="1"></path><path clip-path="url(#clip690)" d="M1188.78 1537.87 Q1187.79 1537.3 1186.61 1537.04 Q1185.47 1536.76 1184.07 1536.76 Q1179.1 1536.76 1176.43 1540 Q1173.79 1543.22 1173.79 1549.27 L1173.79 1568.04 L1167.9 1568.04 L1167.9 1532.4 L1173.79 1532.4 L1173.79 1537.93 Q1175.63 1534.69 1178.59 1533.13 Q1181.55 1531.54 1185.79 1531.54 Q1186.39 1531.54 1187.12 1531.63 Q1187.86 1531.7 1188.75 1531.85 L1188.78 1537.87 Z" fill="#000000" fill-rule="nonzero" fill-opacity="1"></path><path clip-path="url(#clip690)" d="M1211.12 1550.12 Q1204.02 1550.12 1201.29 1551.75 Q1198.55 1553.37 1198.55 1557.29 Q1198.55 1560.4 1200.59 1562.25 Q1202.66 1564.07 1206.19 1564.07 Q1211.06 1564.07 1213.99 1560.63 Q1216.95 1557.16 1216.95 1551.43 L1216.95 1550.12 L1211.12 1550.12 M1222.8 1547.71 L1222.8 1568.04 L1216.95 1568.04 L1216.95 1562.63 Q1214.94 1565.88 1211.95 1567.44 Q1208.96 1568.97 1204.63 1568.97 Q1199.15 1568.97 1195.91 1565.91 Q1192.69 1562.82 1192.69 1557.67 Q1192.69 1551.65 1196.7 1548.6 Q1200.75 1545.54 1208.73 1545.54 L1216.95 1545.54 L1216.95 1544.97 Q1216.95 1540.93 1214.27 1538.73 Q1211.63 1536.5 1206.83 1536.5 Q1203.77 1536.5 1200.87 1537.23 Q1197.98 1537.97 1195.3 1539.43 L1195.3 1534.02 Q1198.52 1532.78 1201.54 1532.17 Q1204.57 1531.54 1207.43 1531.54 Q1215.16 1531.54 1218.98 1535.55 Q1222.8 1539.56 1222.8 1547.71 Z" fill="#000000" fill-rule="nonzero" fill-opacity="1"></path><path clip-path="url(#clip690)" d="M1258.32 1537.81 L1258.32 1518.52 L1264.18 1518.52 L1264.18 1568.04 L1258.32 1568.04 L1258.32 1562.7 Q1256.48 1565.88 1253.64 1567.44 Q1250.84 1568.97 1246.9 1568.97 Q1240.44 1568.97 1236.36 1563.81 Q1232.32 1558.65 1232.32 1550.25 Q1232.32 1541.85 1236.36 1536.69 Q1240.44 1531.54 1246.9 1531.54 Q1250.84 1531.54 1253.64 1533.1 Q1256.48 1534.62 1258.32 1537.81 M1238.37 1550.25 Q1238.37 1556.71 1241.01 1560.4 Q1243.68 1564.07 1248.33 1564.07 Q1252.98 1564.07 1255.65 1560.4 Q1258.32 1556.71 1258.32 1550.25 Q1258.32 1543.79 1255.65 1540.13 Q1252.98 1536.44 1248.33 1536.44 Q1243.68 1536.44 1241.01 1540.13 Q1238.37 1543.79 1238.37 1550.25 Z" fill="#000000" fill-rule="nonzero" fill-opacity="1"></path><path clip-path="url(#clip690)" d="M1276.24 1532.4 L1282.1 1532.4 L1282.1 1568.04 L1276.24 1568.04 L1276.24 1532.4 M1276.24 1518.52 L1282.1 1518.52 L1282.1 1525.93 L1276.24 1525.93 L1276.24 1518.52 Z" fill="#000000" fill-rule="nonzero" fill-opacity="1"></path><path clip-path="url(#clip690)" d="M1293.75 1553.98 L1293.75 1532.4 L1299.61 1532.4 L1299.61 1553.75 Q1299.61 1558.81 1301.58 1561.36 Q1303.55 1563.87 1307.5 1563.87 Q1312.24 1563.87 1314.98 1560.85 Q1317.75 1557.83 1317.75 1552.61 L1317.75 1532.4 L1323.6 1532.4 L1323.6 1568.04 L1317.75 1568.04 L1317.75 1562.57 Q1315.62 1565.82 1312.78 1567.41 Q1309.98 1568.97 1306.26 1568.97 Q1300.11 1568.97 1296.93 1565.15 Q1293.75 1561.33 1293.75 1553.98 M1308.49 1531.54 L1308.49 1531.54 Z" fill="#000000" fill-rule="nonzero" fill-opacity="1"></path><path clip-path="url(#clip690)" d="M1358.39 1533.45 L1358.39 1538.98 Q1355.91 1537.71 1353.24 1537.07 Q1350.56 1536.44 1347.7 1536.44 Q1343.34 1536.44 1341.14 1537.77 Q1338.98 1539.11 1338.98 1541.79 Q1338.98 1543.82 1340.54 1545 Q1342.1 1546.15 1346.81 1547.2 L1348.81 1547.64 Q1355.05 1548.98 1357.66 1551.43 Q1360.3 1553.85 1360.3 1558.21 Q1360.3 1563.17 1356.36 1566.07 Q1352.44 1568.97 1345.57 1568.97 Q1342.7 1568.97 1339.58 1568.39 Q1336.49 1567.85 1333.06 1566.74 L1333.06 1560.69 Q1336.3 1562.38 1339.45 1563.24 Q1342.61 1564.07 1345.69 1564.07 Q1349.83 1564.07 1352.06 1562.66 Q1354.29 1561.23 1354.29 1558.65 Q1354.29 1556.27 1352.66 1554.99 Q1351.07 1553.72 1345.63 1552.54 L1343.59 1552.07 Q1338.15 1550.92 1335.73 1548.56 Q1333.31 1546.18 1333.31 1542.04 Q1333.31 1537.01 1336.88 1534.27 Q1340.44 1531.54 1347 1531.54 Q1350.24 1531.54 1353.11 1532.01 Q1355.97 1532.49 1358.39 1533.45 Z" fill="#000000" fill-rule="nonzero" fill-opacity="1"></path><polyline clip-path="url(#clip692)" style="stroke:#000000; stroke-linecap:round; stroke-linejoin:round; stroke-width:2; stroke-opacity:0.1; fill:none" points="175.445,1386.4 2352.76,1386.4 "></polyline>
<polyline clip-path="url(#clip692)" style="stroke:#000000; stroke-linecap:round; stroke-linejoin:round; stroke-width:2; stroke-opacity:0.1; fill:none" points="175.445,1093.68 2352.76,1093.68 "></polyline>
<polyline clip-path="url(#clip692)" style="stroke:#000000; stroke-linecap:round; stroke-linejoin:round; stroke-width:2; stroke-opacity:0.1; fill:none" points="175.445,800.957 2352.76,800.957 "></polyline>
<polyline clip-path="url(#clip692)" style="stroke:#000000; stroke-linecap:round; stroke-linejoin:round; stroke-width:2; stroke-opacity:0.1; fill:none" points="175.445,508.238 2352.76,508.238 "></polyline>
<polyline clip-path="url(#clip692)" style="stroke:#000000; stroke-linecap:round; stroke-linejoin:round; stroke-width:2; stroke-opacity:0.1; fill:none" points="175.445,215.519 2352.76,215.519 "></polyline>
<polyline clip-path="url(#clip690)" style="stroke:#000000; stroke-linecap:round; stroke-linejoin:round; stroke-width:4; stroke-opacity:1; fill:none" points="175.445,1423.18 175.445,123.472 "></polyline>
<polyline clip-path="url(#clip690)" style="stroke:#000000; stroke-linecap:round; stroke-linejoin:round; stroke-width:4; stroke-opacity:1; fill:none" points="175.445,1386.4 194.343,1386.4 "></polyline>
<polyline clip-path="url(#clip690)" style="stroke:#000000; stroke-linecap:round; stroke-linejoin:round; stroke-width:4; stroke-opacity:1; fill:none" points="175.445,1093.68 194.343,1093.68 "></polyline>
<polyline clip-path="url(#clip690)" style="stroke:#000000; stroke-linecap:round; stroke-linejoin:round; stroke-width:4; stroke-opacity:1; fill:none" points="175.445,800.957 194.343,800.957 "></polyline>
<polyline clip-path="url(#clip690)" style="stroke:#000000; stroke-linecap:round; stroke-linejoin:round; stroke-width:4; stroke-opacity:1; fill:none" points="175.445,508.238 194.343,508.238 "></polyline>
<polyline clip-path="url(#clip690)" style="stroke:#000000; stroke-linecap:round; stroke-linejoin:round; stroke-width:4; stroke-opacity:1; fill:none" points="175.445,215.519 194.343,215.519 "></polyline>
<path clip-path="url(#clip690)" d="M127.501 1372.19 Q123.89 1372.19 122.061 1375.76 Q120.255 1379.3 120.255 1386.43 Q120.255 1393.54 122.061 1397.1 Q123.89 1400.64 127.501 1400.64 Q131.135 1400.64 132.941 1397.1 Q134.769 1393.54 134.769 1386.43 Q134.769 1379.3 132.941 1375.76 Q131.135 1372.19 127.501 1372.19 M127.501 1368.49 Q133.311 1368.49 136.367 1373.1 Q139.445 1377.68 139.445 1386.43 Q139.445 1395.16 136.367 1399.76 Q133.311 1404.35 127.501 1404.35 Q121.691 1404.35 118.612 1399.76 Q115.556 1395.16 115.556 1386.43 Q115.556 1377.68 118.612 1373.1 Q121.691 1368.49 127.501 1368.49 Z" fill="#000000" fill-rule="nonzero" fill-opacity="1"></path><path clip-path="url(#clip690)" d="M119.538 1107.02 L127.177 1107.02 L127.177 1080.66 L118.867 1082.32 L118.867 1078.06 L127.13 1076.4 L131.806 1076.4 L131.806 1107.02 L139.445 1107.02 L139.445 1110.96 L119.538 1110.96 L119.538 1107.02 Z" fill="#000000" fill-rule="nonzero" fill-opacity="1"></path><path clip-path="url(#clip690)" d="M123.126 814.302 L139.445 814.302 L139.445 818.237 L117.501 818.237 L117.501 814.302 Q120.163 811.547 124.746 806.918 Q129.353 802.265 130.533 800.923 Q132.779 798.399 133.658 796.663 Q134.561 794.904 134.561 793.214 Q134.561 790.46 132.617 788.724 Q130.695 786.987 127.593 786.987 Q125.394 786.987 122.941 787.751 Q120.51 788.515 117.732 790.066 L117.732 785.344 Q120.556 784.21 123.01 783.631 Q125.464 783.052 127.501 783.052 Q132.871 783.052 136.066 785.737 Q139.26 788.423 139.26 792.913 Q139.26 795.043 138.45 796.964 Q137.663 798.862 135.556 801.455 Q134.978 802.126 131.876 805.344 Q128.774 808.538 123.126 814.302 Z" fill="#000000" fill-rule="nonzero" fill-opacity="1"></path><path clip-path="url(#clip690)" d="M132.316 506.884 Q135.672 507.601 137.547 509.87 Q139.445 512.138 139.445 515.472 Q139.445 520.588 135.927 523.388 Q132.408 526.189 125.927 526.189 Q123.751 526.189 121.436 525.75 Q119.144 525.333 116.691 524.476 L116.691 519.963 Q118.635 521.097 120.95 521.675 Q123.265 522.254 125.788 522.254 Q130.186 522.254 132.478 520.518 Q134.792 518.782 134.792 515.472 Q134.792 512.416 132.64 510.703 Q130.51 508.967 126.691 508.967 L122.663 508.967 L122.663 505.125 L126.876 505.125 Q130.325 505.125 132.154 503.759 Q133.982 502.37 133.982 499.777 Q133.982 497.115 132.084 495.703 Q130.209 494.268 126.691 494.268 Q124.769 494.268 122.57 494.685 Q120.371 495.102 117.732 495.981 L117.732 491.815 Q120.394 491.074 122.709 490.703 Q125.047 490.333 127.107 490.333 Q132.431 490.333 135.533 492.764 Q138.635 495.171 138.635 499.291 Q138.635 502.162 136.992 504.152 Q135.348 506.12 132.316 506.884 Z" fill="#000000" fill-rule="nonzero" fill-opacity="1"></path><path clip-path="url(#clip690)" d="M129.862 202.313 L118.056 220.762 L129.862 220.762 L129.862 202.313 M128.635 198.239 L134.515 198.239 L134.515 220.762 L139.445 220.762 L139.445 224.651 L134.515 224.651 L134.515 232.799 L129.862 232.799 L129.862 224.651 L114.26 224.651 L114.26 220.137 L128.635 198.239 Z" fill="#000000" fill-rule="nonzero" fill-opacity="1"></path><path clip-path="url(#clip690)" d="M35.1993 826.48 Q31.2526 824.283 29.3747 821.228 Q27.4968 818.172 27.4968 814.035 Q27.4968 808.465 31.4117 805.441 Q35.2948 802.417 42.4881 802.417 L64.0042 802.417 L64.0042 808.306 L42.679 808.306 Q37.5546 808.306 35.072 810.12 Q32.5894 811.934 32.5894 815.658 Q32.5894 820.209 35.6131 822.851 Q38.6368 825.493 43.8567 825.493 L64.0042 825.493 L64.0042 831.381 L42.679 831.381 Q37.5228 831.381 35.072 833.195 Q32.5894 835.01 32.5894 838.797 Q32.5894 843.285 35.6449 845.927 Q38.6686 848.569 43.8567 848.569 L64.0042 848.569 L64.0042 854.457 L28.3562 854.457 L28.3562 848.569 L33.8944 848.569 Q30.616 846.563 29.0564 843.763 Q27.4968 840.962 27.4968 837.11 Q27.4968 833.227 29.4702 830.522 Q31.4436 827.785 35.1993 826.48 Z" fill="#000000" fill-rule="nonzero" fill-opacity="1"></path><path clip-path="url(#clip690)" d="M46.0847 774.535 Q46.0847 781.633 47.7079 784.37 Q49.3312 787.108 53.2461 787.108 Q56.3653 787.108 58.2114 785.071 Q60.0256 783.002 60.0256 779.469 Q60.0256 774.599 56.5881 771.671 Q53.1188 768.711 47.3897 768.711 L46.0847 768.711 L46.0847 774.535 M43.6657 762.854 L64.0042 762.854 L64.0042 768.711 L58.5933 768.711 Q61.8398 770.716 63.3994 773.708 Q64.9272 776.7 64.9272 781.028 Q64.9272 786.503 61.8716 789.75 Q58.7843 792.964 53.6281 792.964 Q47.6125 792.964 44.5569 788.954 Q41.5014 784.912 41.5014 776.923 L41.5014 768.711 L40.9285 768.711 Q36.8862 768.711 34.6901 771.384 Q32.4621 774.026 32.4621 778.832 Q32.4621 781.888 33.1941 784.784 Q33.9262 787.681 35.3903 790.354 L29.9795 790.354 Q28.7381 787.14 28.1334 784.116 Q27.4968 781.092 27.4968 778.228 Q27.4968 770.493 31.5072 766.674 Q35.5176 762.854 43.6657 762.854 Z" fill="#000000" fill-rule="nonzero" fill-opacity="1"></path><path clip-path="url(#clip690)" d="M29.4065 728.066 L34.9447 728.066 Q33.6716 730.548 33.035 733.222 Q32.3984 735.896 32.3984 738.76 Q32.3984 743.121 33.7352 745.317 Q35.072 747.481 37.7456 747.481 Q39.7826 747.481 40.9603 745.922 Q42.1061 744.362 43.1565 739.651 L43.6021 737.646 Q44.9389 731.408 47.3897 728.798 Q49.8086 726.156 54.1691 726.156 Q59.1344 726.156 62.0308 730.103 Q64.9272 734.018 64.9272 740.893 Q64.9272 743.757 64.3543 746.876 Q63.8132 749.964 62.6992 753.401 L56.6518 753.401 Q58.3387 750.155 59.198 747.004 Q60.0256 743.853 60.0256 740.765 Q60.0256 736.628 58.6251 734.4 Q57.1929 732.172 54.6147 732.172 Q52.2276 732.172 50.9545 733.795 Q49.6813 735.386 48.5037 740.829 L48.0262 742.866 Q46.8804 748.309 44.5251 750.728 Q42.138 753.147 38.0002 753.147 Q32.9713 753.147 30.2341 749.582 Q27.4968 746.017 27.4968 739.46 Q27.4968 736.214 27.9743 733.349 Q28.4517 730.485 29.4065 728.066 Z" fill="#000000" fill-rule="nonzero" fill-opacity="1"></path><path clip-path="url(#clip690)" d="M29.4065 694.105 L34.9447 694.105 Q33.6716 696.587 33.035 699.261 Q32.3984 701.935 32.3984 704.799 Q32.3984 709.16 33.7352 711.356 Q35.072 713.52 37.7456 713.52 Q39.7826 713.52 40.9603 711.961 Q42.1061 710.401 43.1565 705.69 L43.6021 703.685 Q44.9389 697.447 47.3897 694.837 Q49.8086 692.195 54.1691 692.195 Q59.1344 692.195 62.0308 696.142 Q64.9272 700.057 64.9272 706.932 Q64.9272 709.796 64.3543 712.915 Q63.8132 716.003 62.6992 719.44 L56.6518 719.44 Q58.3387 716.194 59.198 713.043 Q60.0256 709.892 60.0256 706.804 Q60.0256 702.667 58.6251 700.439 Q57.1929 698.211 54.6147 698.211 Q52.2276 698.211 50.9545 699.834 Q49.6813 701.425 48.5037 706.868 L48.0262 708.905 Q46.8804 714.348 44.5251 716.767 Q42.138 719.186 38.0002 719.186 Q32.9713 719.186 30.2341 715.621 Q27.4968 712.056 27.4968 705.499 Q27.4968 702.253 27.9743 699.388 Q28.4517 696.524 29.4065 694.105 Z" fill="#000000" fill-rule="nonzero" fill-opacity="1"></path><path clip-path="url(#clip690)" d="M700.944 12.096 L713.137 12.096 L728.571 53.2532 L744.086 12.096 L756.279 12.096 L756.279 72.576 L748.299 72.576 L748.299 19.4686 L732.703 60.9499 L724.48 60.9499 L708.884 19.4686 L708.884 72.576 L700.944 72.576 L700.944 12.096 Z" fill="#000000" fill-rule="nonzero" fill-opacity="1"></path><path clip-path="url(#clip690)" d="M792.818 49.7694 Q783.785 49.7694 780.301 51.8354 Q776.817 53.9013 776.817 58.8839 Q776.817 62.8538 779.41 65.2034 Q782.043 67.5124 786.539 67.5124 Q792.737 67.5124 796.464 63.1374 Q800.232 58.7219 800.232 51.4303 L800.232 49.7694 L792.818 49.7694 M807.685 46.6907 L807.685 72.576 L800.232 72.576 L800.232 65.6895 Q797.679 69.8214 793.872 71.8063 Q790.064 73.7508 784.555 73.7508 Q777.587 73.7508 773.455 69.8619 Q769.364 65.9325 769.364 59.3701 Q769.364 51.7138 774.468 47.825 Q779.612 43.9361 789.78 43.9361 L800.232 43.9361 L800.232 43.2069 Q800.232 38.0623 796.829 35.2672 Q793.467 32.4315 787.35 32.4315 Q783.461 32.4315 779.774 33.3632 Q776.088 34.295 772.685 36.1584 L772.685 29.2718 Q776.777 27.692 780.625 26.9223 Q784.473 26.1121 788.119 26.1121 Q797.963 26.1121 802.824 31.2163 Q807.685 36.3204 807.685 46.6907 Z" fill="#000000" fill-rule="nonzero" fill-opacity="1"></path><path clip-path="url(#clip690)" d="M851.962 28.5427 L851.962 35.5912 Q848.802 33.9709 845.399 33.1607 Q841.996 32.3505 838.351 32.3505 Q832.801 32.3505 830.006 34.0519 Q827.251 35.7533 827.251 39.156 Q827.251 41.7486 829.236 43.2475 Q831.221 44.7058 837.216 46.0426 L839.768 46.6097 Q847.708 48.3111 851.03 51.4303 Q854.392 54.509 854.392 60.0587 Q854.392 66.3781 849.369 70.0644 Q844.386 73.7508 835.636 73.7508 Q831.991 73.7508 828.021 73.0216 Q824.091 72.3329 819.716 70.9151 L819.716 63.2184 Q823.848 65.3654 827.859 66.4591 Q831.869 67.5124 835.798 67.5124 Q841.065 67.5124 843.9 65.73 Q846.736 63.9071 846.736 60.6258 Q846.736 57.5877 844.67 55.9673 Q842.644 54.3469 835.717 52.8481 L833.125 52.2405 Q826.198 50.7821 823.119 47.7845 Q820.04 44.7463 820.04 39.4801 Q820.04 33.0797 824.577 29.5959 Q829.114 26.1121 837.459 26.1121 Q841.591 26.1121 845.237 26.7198 Q848.883 27.3274 851.962 28.5427 Z" fill="#000000" fill-rule="nonzero" fill-opacity="1"></path><path clip-path="url(#clip690)" d="M895.185 28.5427 L895.185 35.5912 Q892.025 33.9709 888.622 33.1607 Q885.219 32.3505 881.574 32.3505 Q876.024 32.3505 873.229 34.0519 Q870.474 35.7533 870.474 39.156 Q870.474 41.7486 872.459 43.2475 Q874.444 44.7058 880.439 46.0426 L882.991 46.6097 Q890.931 48.3111 894.253 51.4303 Q897.615 54.509 897.615 60.0587 Q897.615 66.3781 892.592 70.0644 Q887.61 73.7508 878.86 73.7508 Q875.214 73.7508 871.244 73.0216 Q867.314 72.3329 862.94 70.9151 L862.94 63.2184 Q867.071 65.3654 871.082 66.4591 Q875.092 67.5124 879.022 67.5124 Q884.288 67.5124 887.123 65.73 Q889.959 63.9071 889.959 60.6258 Q889.959 57.5877 887.893 55.9673 Q885.868 54.3469 878.941 52.8481 L876.348 52.2405 Q869.421 50.7821 866.342 47.7845 Q863.264 44.7463 863.264 39.4801 Q863.264 33.0797 867.801 29.5959 Q872.338 26.1121 880.682 26.1121 Q884.814 26.1121 888.46 26.7198 Q892.106 27.3274 895.185 28.5427 Z" fill="#000000" fill-rule="nonzero" fill-opacity="1"></path><path clip-path="url(#clip690)" d="M931.521 27.2059 L938.975 27.2059 L948.292 62.6108 L957.569 27.2059 L966.359 27.2059 L975.676 62.6108 L984.953 27.2059 L992.406 27.2059 L980.537 72.576 L971.747 72.576 L961.984 35.3887 L952.181 72.576 L943.39 72.576 L931.521 27.2059 Z" fill="#000000" fill-rule="nonzero" fill-opacity="1"></path><path clip-path="url(#clip690)" d="M1003.71 27.2059 L1011.16 27.2059 L1011.16 72.576 L1003.71 72.576 L1003.71 27.2059 M1003.71 9.54393 L1011.16 9.54393 L1011.16 18.9825 L1003.71 18.9825 L1003.71 9.54393 Z" fill="#000000" fill-rule="nonzero" fill-opacity="1"></path><path clip-path="url(#clip690)" d="M1034.13 14.324 L1034.13 27.2059 L1049.48 27.2059 L1049.48 32.9987 L1034.13 32.9987 L1034.13 57.6282 Q1034.13 63.1779 1035.63 64.7578 Q1037.17 66.3376 1041.83 66.3376 L1049.48 66.3376 L1049.48 72.576 L1041.83 72.576 Q1033.2 72.576 1029.92 69.3758 Q1026.64 66.1351 1026.64 57.6282 L1026.64 32.9987 L1021.17 32.9987 L1021.17 27.2059 L1026.64 27.2059 L1026.64 14.324 L1034.13 14.324 Z" fill="#000000" fill-rule="nonzero" fill-opacity="1"></path><path clip-path="url(#clip690)" d="M1097 45.1919 L1097 72.576 L1089.55 72.576 L1089.55 45.4349 Q1089.55 38.994 1087.04 35.7938 Q1084.52 32.5936 1079.5 32.5936 Q1073.47 32.5936 1069.98 36.4419 Q1066.5 40.2903 1066.5 46.9338 L1066.5 72.576 L1059 72.576 L1059 9.54393 L1066.5 9.54393 L1066.5 34.2544 Q1069.17 30.163 1072.78 28.1376 Q1076.42 26.1121 1081.16 26.1121 Q1088.98 26.1121 1092.99 30.9732 Q1097 35.7938 1097 45.1919 Z" fill="#000000" fill-rule="nonzero" fill-opacity="1"></path><path clip-path="url(#clip690)" d="M1164.53 34.1734 Q1163.27 33.4443 1161.77 33.1202 Q1160.32 32.7556 1158.53 32.7556 Q1152.21 32.7556 1148.81 36.8875 Q1145.45 40.9789 1145.45 48.6757 L1145.45 72.576 L1137.96 72.576 L1137.96 27.2059 L1145.45 27.2059 L1145.45 34.2544 Q1147.8 30.1225 1151.57 28.1376 Q1155.33 26.1121 1160.72 26.1121 Q1161.49 26.1121 1162.42 26.2337 Q1163.35 26.3147 1164.49 26.5172 L1164.53 34.1734 Z" fill="#000000" fill-rule="nonzero" fill-opacity="1"></path><path clip-path="url(#clip690)" d="M1209.33 48.0275 L1209.33 51.6733 L1175.06 51.6733 Q1175.55 59.3701 1179.68 63.421 Q1183.85 67.4314 1191.27 67.4314 Q1195.56 67.4314 1199.57 66.3781 Q1203.62 65.3249 1207.59 63.2184 L1207.59 70.267 Q1203.58 71.9684 1199.37 72.8596 Q1195.15 73.7508 1190.82 73.7508 Q1179.96 73.7508 1173.6 67.4314 Q1167.28 61.1119 1167.28 50.3365 Q1167.28 39.1965 1173.28 32.6746 Q1179.32 26.1121 1189.52 26.1121 Q1198.68 26.1121 1203.99 32.0264 Q1209.33 37.9003 1209.33 48.0275 M1201.88 45.84 Q1201.8 39.7232 1198.44 36.0774 Q1195.11 32.4315 1189.6 32.4315 Q1183.37 32.4315 1179.6 35.9558 Q1175.87 39.4801 1175.3 45.8805 L1201.88 45.84 Z" fill="#000000" fill-rule="nonzero" fill-opacity="1"></path><path clip-path="url(#clip690)" d="M1250.49 28.5427 L1250.49 35.5912 Q1247.33 33.9709 1243.93 33.1607 Q1240.52 32.3505 1236.88 32.3505 Q1231.33 32.3505 1228.53 34.0519 Q1225.78 35.7533 1225.78 39.156 Q1225.78 41.7486 1227.76 43.2475 Q1229.75 44.7058 1235.74 46.0426 L1238.3 46.6097 Q1246.24 48.3111 1249.56 51.4303 Q1252.92 54.509 1252.92 60.0587 Q1252.92 66.3781 1247.9 70.0644 Q1242.91 73.7508 1234.16 73.7508 Q1230.52 73.7508 1226.55 73.0216 Q1222.62 72.3329 1218.24 70.9151 L1218.24 63.2184 Q1222.38 65.3654 1226.39 66.4591 Q1230.4 67.5124 1234.33 67.5124 Q1239.59 67.5124 1242.43 65.73 Q1245.26 63.9071 1245.26 60.6258 Q1245.26 57.5877 1243.2 55.9673 Q1241.17 54.3469 1234.25 52.8481 L1231.65 52.2405 Q1224.73 50.7821 1221.65 47.7845 Q1218.57 44.7463 1218.57 39.4801 Q1218.57 33.0797 1223.11 29.5959 Q1227.64 26.1121 1235.99 26.1121 Q1240.12 26.1121 1243.77 26.7198 Q1247.41 27.3274 1250.49 28.5427 Z" fill="#000000" fill-rule="nonzero" fill-opacity="1"></path><path clip-path="url(#clip690)" d="M1272 65.7705 L1272 89.8329 L1264.51 89.8329 L1264.51 27.2059 L1272 27.2059 L1272 34.0924 Q1274.35 30.0415 1277.91 28.0971 Q1281.52 26.1121 1286.5 26.1121 Q1294.77 26.1121 1299.91 32.6746 Q1305.1 39.2371 1305.1 49.9314 Q1305.1 60.6258 1299.91 67.1883 Q1294.77 73.7508 1286.5 73.7508 Q1281.52 73.7508 1277.91 71.8063 Q1274.35 69.8214 1272 65.7705 M1297.36 49.9314 Q1297.36 41.7081 1293.96 37.0496 Q1290.59 32.3505 1284.68 32.3505 Q1278.76 32.3505 1275.36 37.0496 Q1272 41.7081 1272 49.9314 Q1272 58.1548 1275.36 62.8538 Q1278.76 67.5124 1284.68 67.5124 Q1290.59 67.5124 1293.96 62.8538 Q1297.36 58.1548 1297.36 49.9314 Z" fill="#000000" fill-rule="nonzero" fill-opacity="1"></path><path clip-path="url(#clip690)" d="M1356.26 48.0275 L1356.26 51.6733 L1321.99 51.6733 Q1322.47 59.3701 1326.61 63.421 Q1330.78 67.4314 1338.19 67.4314 Q1342.49 67.4314 1346.5 66.3781 Q1350.55 65.3249 1354.52 63.2184 L1354.52 70.267 Q1350.51 71.9684 1346.29 72.8596 Q1342.08 73.7508 1337.75 73.7508 Q1326.89 73.7508 1320.53 67.4314 Q1314.21 61.1119 1314.21 50.3365 Q1314.21 39.1965 1320.21 32.6746 Q1326.24 26.1121 1336.45 26.1121 Q1345.6 26.1121 1350.91 32.0264 Q1356.26 37.9003 1356.26 48.0275 M1348.8 45.84 Q1348.72 39.7232 1345.36 36.0774 Q1342.04 32.4315 1336.53 32.4315 Q1330.29 32.4315 1326.52 35.9558 Q1322.8 39.4801 1322.23 45.8805 L1348.8 45.84 Z" fill="#000000" fill-rule="nonzero" fill-opacity="1"></path><path clip-path="url(#clip690)" d="M1401.14 28.9478 L1401.14 35.9153 Q1397.98 34.1734 1394.78 33.3227 Q1391.62 32.4315 1388.38 32.4315 Q1381.13 32.4315 1377.12 37.0496 Q1373.11 41.6271 1373.11 49.9314 Q1373.11 58.2358 1377.12 62.8538 Q1381.13 67.4314 1388.38 67.4314 Q1391.62 67.4314 1394.78 66.5807 Q1397.98 65.6895 1401.14 63.9476 L1401.14 70.8341 Q1398.02 72.2924 1394.66 73.0216 Q1391.34 73.7508 1387.57 73.7508 Q1377.32 73.7508 1371.29 67.3098 Q1365.25 60.8689 1365.25 49.9314 Q1365.25 38.832 1371.33 32.472 Q1377.44 26.1121 1388.06 26.1121 Q1391.5 26.1121 1394.78 26.8413 Q1398.06 27.5299 1401.14 28.9478 Z" fill="#000000" fill-rule="nonzero" fill-opacity="1"></path><path clip-path="url(#clip690)" d="M1421.48 14.324 L1421.48 27.2059 L1436.83 27.2059 L1436.83 32.9987 L1421.48 32.9987 L1421.48 57.6282 Q1421.48 63.1779 1422.98 64.7578 Q1424.52 66.3376 1429.17 66.3376 L1436.83 66.3376 L1436.83 72.576 L1429.17 72.576 Q1420.55 72.576 1417.27 69.3758 Q1413.98 66.1351 1413.98 57.6282 L1413.98 32.9987 L1408.52 32.9987 L1408.52 27.2059 L1413.98 27.2059 L1413.98 14.324 L1421.48 14.324 Z" fill="#000000" fill-rule="nonzero" fill-opacity="1"></path><path clip-path="url(#clip690)" d="M1480.38 14.324 L1480.38 27.2059 L1495.73 27.2059 L1495.73 32.9987 L1480.38 32.9987 L1480.38 57.6282 Q1480.38 63.1779 1481.88 64.7578 Q1483.42 66.3376 1488.08 66.3376 L1495.73 66.3376 L1495.73 72.576 L1488.08 72.576 Q1479.45 72.576 1476.17 69.3758 Q1472.88 66.1351 1472.88 57.6282 L1472.88 32.9987 L1467.42 32.9987 L1467.42 27.2059 L1472.88 27.2059 L1472.88 14.324 L1480.38 14.324 Z" fill="#000000" fill-rule="nonzero" fill-opacity="1"></path><path clip-path="url(#clip690)" d="M1523.12 32.4315 Q1517.12 32.4315 1513.64 37.1306 Q1510.15 41.7891 1510.15 49.9314 Q1510.15 58.0738 1513.6 62.7728 Q1517.08 67.4314 1523.12 67.4314 Q1529.07 67.4314 1532.55 62.7323 Q1536.04 58.0333 1536.04 49.9314 Q1536.04 41.8701 1532.55 37.1711 Q1529.07 32.4315 1523.12 32.4315 M1523.12 26.1121 Q1532.84 26.1121 1538.39 32.4315 Q1543.94 38.7509 1543.94 49.9314 Q1543.94 61.0714 1538.39 67.4314 Q1532.84 73.7508 1523.12 73.7508 Q1513.35 73.7508 1507.8 67.4314 Q1502.29 61.0714 1502.29 49.9314 Q1502.29 38.7509 1507.8 32.4315 Q1513.35 26.1121 1523.12 26.1121 Z" fill="#000000" fill-rule="nonzero" fill-opacity="1"></path><path clip-path="url(#clip690)" d="M1608.95 34.1734 Q1607.7 33.4443 1606.2 33.1202 Q1604.74 32.7556 1602.96 32.7556 Q1596.64 32.7556 1593.24 36.8875 Q1589.87 40.9789 1589.87 48.6757 L1589.87 72.576 L1582.38 72.576 L1582.38 27.2059 L1589.87 27.2059 L1589.87 34.2544 Q1592.22 30.1225 1595.99 28.1376 Q1599.76 26.1121 1605.15 26.1121 Q1605.92 26.1121 1606.85 26.2337 Q1607.78 26.3147 1608.91 26.5172 L1608.95 34.1734 Z" fill="#000000" fill-rule="nonzero" fill-opacity="1"></path><path clip-path="url(#clip690)" d="M1637.39 49.7694 Q1628.36 49.7694 1624.87 51.8354 Q1621.39 53.9013 1621.39 58.8839 Q1621.39 62.8538 1623.98 65.2034 Q1626.62 67.5124 1631.11 67.5124 Q1637.31 67.5124 1641.04 63.1374 Q1644.8 58.7219 1644.8 51.4303 L1644.8 49.7694 L1637.39 49.7694 M1652.26 46.6907 L1652.26 72.576 L1644.8 72.576 L1644.8 65.6895 Q1642.25 69.8214 1638.44 71.8063 Q1634.64 73.7508 1629.13 73.7508 Q1622.16 73.7508 1618.03 69.8619 Q1613.94 65.9325 1613.94 59.3701 Q1613.94 51.7138 1619.04 47.825 Q1624.19 43.9361 1634.35 43.9361 L1644.8 43.9361 L1644.8 43.2069 Q1644.8 38.0623 1641.4 35.2672 Q1638.04 32.4315 1631.92 32.4315 Q1628.03 32.4315 1624.35 33.3632 Q1620.66 34.295 1617.26 36.1584 L1617.26 29.2718 Q1621.35 27.692 1625.2 26.9223 Q1629.05 26.1121 1632.69 26.1121 Q1642.54 26.1121 1647.4 31.2163 Q1652.26 36.3204 1652.26 46.6907 Z" fill="#000000" fill-rule="nonzero" fill-opacity="1"></path><path clip-path="url(#clip690)" d="M1697.47 34.0924 L1697.47 9.54393 L1704.92 9.54393 L1704.92 72.576 L1697.47 72.576 L1697.47 65.7705 Q1695.12 69.8214 1691.51 71.8063 Q1687.95 73.7508 1682.92 73.7508 Q1674.7 73.7508 1669.52 67.1883 Q1664.37 60.6258 1664.37 49.9314 Q1664.37 39.2371 1669.52 32.6746 Q1674.7 26.1121 1682.92 26.1121 Q1687.95 26.1121 1691.51 28.0971 Q1695.12 30.0415 1697.47 34.0924 M1672.07 49.9314 Q1672.07 58.1548 1675.43 62.8538 Q1678.83 67.5124 1684.75 67.5124 Q1690.66 67.5124 1694.06 62.8538 Q1697.47 58.1548 1697.47 49.9314 Q1697.47 41.7081 1694.06 37.0496 Q1690.66 32.3505 1684.75 32.3505 Q1678.83 32.3505 1675.43 37.0496 Q1672.07 41.7081 1672.07 49.9314 Z" fill="#000000" fill-rule="nonzero" fill-opacity="1"></path><path clip-path="url(#clip690)" d="M1720.27 27.2059 L1727.73 27.2059 L1727.73 72.576 L1720.27 72.576 L1720.27 27.2059 M1720.27 9.54393 L1727.73 9.54393 L1727.73 18.9825 L1720.27 18.9825 L1720.27 9.54393 Z" fill="#000000" fill-rule="nonzero" fill-opacity="1"></path><path clip-path="url(#clip690)" d="M1742.55 54.671 L1742.55 27.2059 L1750.01 27.2059 L1750.01 54.3874 Q1750.01 60.8284 1752.52 64.0691 Q1755.03 67.2693 1760.05 67.2693 Q1766.09 67.2693 1769.57 63.421 Q1773.1 59.5726 1773.1 52.9291 L1773.1 27.2059 L1780.55 27.2059 L1780.55 72.576 L1773.1 72.576 L1773.1 65.6084 Q1770.38 69.7404 1766.78 71.7658 Q1763.21 73.7508 1758.47 73.7508 Q1750.65 73.7508 1746.6 68.8897 Q1742.55 64.0286 1742.55 54.671 M1761.31 26.1121 L1761.31 26.1121 Z" fill="#000000" fill-rule="nonzero" fill-opacity="1"></path><path clip-path="url(#clip690)" d="M1824.83 28.5427 L1824.83 35.5912 Q1821.67 33.9709 1818.26 33.1607 Q1814.86 32.3505 1811.22 32.3505 Q1805.67 32.3505 1802.87 34.0519 Q1800.12 35.7533 1800.12 39.156 Q1800.12 41.7486 1802.1 43.2475 Q1804.09 44.7058 1810.08 46.0426 L1812.63 46.6097 Q1820.57 48.3111 1823.9 51.4303 Q1827.26 54.509 1827.26 60.0587 Q1827.26 66.3781 1822.23 70.0644 Q1817.25 73.7508 1808.5 73.7508 Q1804.86 73.7508 1800.89 73.0216 Q1796.96 72.3329 1792.58 70.9151 L1792.58 63.2184 Q1796.71 65.3654 1800.72 66.4591 Q1804.73 67.5124 1808.66 67.5124 Q1813.93 67.5124 1816.77 65.73 Q1819.6 63.9071 1819.6 60.6258 Q1819.6 57.5877 1817.54 55.9673 Q1815.51 54.3469 1808.58 52.8481 L1805.99 52.2405 Q1799.06 50.7821 1795.98 47.7845 Q1792.91 44.7463 1792.91 39.4801 Q1792.91 33.0797 1797.44 29.5959 Q1801.98 26.1121 1810.32 26.1121 Q1814.46 26.1121 1818.1 26.7198 Q1821.75 27.3274 1824.83 28.5427 Z" fill="#000000" fill-rule="nonzero" fill-opacity="1"></path><circle clip-path="url(#clip692)" cx="237.067" cy="1386.4" r="14.4" fill="#0000ff" fill-rule="evenodd" fill-opacity="1" stroke="#000000" stroke-opacity="1" stroke-width="3.2"></circle>
<circle clip-path="url(#clip692)" cx="307.897" cy="1386.35" r="14.4" fill="#0000ff" fill-rule="evenodd" fill-opacity="1" stroke="#000000" stroke-opacity="1" stroke-width="3.2"></circle>
<circle clip-path="url(#clip692)" cx="378.727" cy="1385.99" r="14.4" fill="#0000ff" fill-rule="evenodd" fill-opacity="1" stroke="#000000" stroke-opacity="1" stroke-width="3.2"></circle>
<circle clip-path="url(#clip692)" cx="449.557" cy="1385.04" r="14.4" fill="#0000ff" fill-rule="evenodd" fill-opacity="1" stroke="#000000" stroke-opacity="1" stroke-width="3.2"></circle>
<circle clip-path="url(#clip692)" cx="520.387" cy="1383.18" r="14.4" fill="#0000ff" fill-rule="evenodd" fill-opacity="1" stroke="#000000" stroke-opacity="1" stroke-width="3.2"></circle>
<circle clip-path="url(#clip692)" cx="591.217" cy="1380.11" r="14.4" fill="#0000ff" fill-rule="evenodd" fill-opacity="1" stroke="#000000" stroke-opacity="1" stroke-width="3.2"></circle>
<circle clip-path="url(#clip692)" cx="662.047" cy="1375.54" r="14.4" fill="#0000ff" fill-rule="evenodd" fill-opacity="1" stroke="#000000" stroke-opacity="1" stroke-width="3.2"></circle>
<circle clip-path="url(#clip692)" cx="732.876" cy="1369.15" r="14.4" fill="#0000ff" fill-rule="evenodd" fill-opacity="1" stroke="#000000" stroke-opacity="1" stroke-width="3.2"></circle>
<circle clip-path="url(#clip692)" cx="803.706" cy="1360.66" r="14.4" fill="#0000ff" fill-rule="evenodd" fill-opacity="1" stroke="#000000" stroke-opacity="1" stroke-width="3.2"></circle>
<circle clip-path="url(#clip692)" cx="874.536" cy="1349.75" r="14.4" fill="#0000ff" fill-rule="evenodd" fill-opacity="1" stroke="#000000" stroke-opacity="1" stroke-width="3.2"></circle>
<circle clip-path="url(#clip692)" cx="945.366" cy="1336.12" r="14.4" fill="#0000ff" fill-rule="evenodd" fill-opacity="1" stroke="#000000" stroke-opacity="1" stroke-width="3.2"></circle>
<circle clip-path="url(#clip692)" cx="1016.2" cy="1319.48" r="14.4" fill="#0000ff" fill-rule="evenodd" fill-opacity="1" stroke="#000000" stroke-opacity="1" stroke-width="3.2"></circle>
<circle clip-path="url(#clip692)" cx="1087.03" cy="1299.52" r="14.4" fill="#0000ff" fill-rule="evenodd" fill-opacity="1" stroke="#000000" stroke-opacity="1" stroke-width="3.2"></circle>
<circle clip-path="url(#clip692)" cx="1157.86" cy="1275.94" r="14.4" fill="#0000ff" fill-rule="evenodd" fill-opacity="1" stroke="#000000" stroke-opacity="1" stroke-width="3.2"></circle>
<circle clip-path="url(#clip692)" cx="1228.69" cy="1248.44" r="14.4" fill="#0000ff" fill-rule="evenodd" fill-opacity="1" stroke="#000000" stroke-opacity="1" stroke-width="3.2"></circle>
<circle clip-path="url(#clip692)" cx="1299.52" cy="1216.72" r="14.4" fill="#0000ff" fill-rule="evenodd" fill-opacity="1" stroke="#000000" stroke-opacity="1" stroke-width="3.2"></circle>
<circle clip-path="url(#clip692)" cx="1370.35" cy="1180.47" r="14.4" fill="#0000ff" fill-rule="evenodd" fill-opacity="1" stroke="#000000" stroke-opacity="1" stroke-width="3.2"></circle>
<circle clip-path="url(#clip692)" cx="1441.18" cy="1139.4" r="14.4" fill="#0000ff" fill-rule="evenodd" fill-opacity="1" stroke="#000000" stroke-opacity="1" stroke-width="3.2"></circle>
<circle clip-path="url(#clip692)" cx="1512.01" cy="1093.2" r="14.4" fill="#0000ff" fill-rule="evenodd" fill-opacity="1" stroke="#000000" stroke-opacity="1" stroke-width="3.2"></circle>
<circle clip-path="url(#clip692)" cx="1582.84" cy="1041.56" r="14.4" fill="#0000ff" fill-rule="evenodd" fill-opacity="1" stroke="#000000" stroke-opacity="1" stroke-width="3.2"></circle>
<circle clip-path="url(#clip692)" cx="1653.66" cy="984.201" r="14.4" fill="#0000ff" fill-rule="evenodd" fill-opacity="1" stroke="#000000" stroke-opacity="1" stroke-width="3.2"></circle>
<circle clip-path="url(#clip692)" cx="1724.49" cy="920.806" r="14.4" fill="#0000ff" fill-rule="evenodd" fill-opacity="1" stroke="#000000" stroke-opacity="1" stroke-width="3.2"></circle>
<circle clip-path="url(#clip692)" cx="1795.32" cy="851.075" r="14.4" fill="#0000ff" fill-rule="evenodd" fill-opacity="1" stroke="#000000" stroke-opacity="1" stroke-width="3.2"></circle>
<circle clip-path="url(#clip692)" cx="1866.15" cy="774.709" r="14.4" fill="#0000ff" fill-rule="evenodd" fill-opacity="1" stroke="#000000" stroke-opacity="1" stroke-width="3.2"></circle>
<circle clip-path="url(#clip692)" cx="1936.98" cy="691.404" r="14.4" fill="#0000ff" fill-rule="evenodd" fill-opacity="1" stroke="#000000" stroke-opacity="1" stroke-width="3.2"></circle>
<circle clip-path="url(#clip692)" cx="2007.81" cy="600.86" r="14.4" fill="#0000ff" fill-rule="evenodd" fill-opacity="1" stroke="#000000" stroke-opacity="1" stroke-width="3.2"></circle>
<circle clip-path="url(#clip692)" cx="2078.64" cy="502.775" r="14.4" fill="#0000ff" fill-rule="evenodd" fill-opacity="1" stroke="#000000" stroke-opacity="1" stroke-width="3.2"></circle>
<circle clip-path="url(#clip692)" cx="2149.47" cy="396.847" r="14.4" fill="#ff0000" fill-rule="evenodd" fill-opacity="1" stroke="#000000" stroke-opacity="1" stroke-width="3.2"></circle>
<circle clip-path="url(#clip692)" cx="2220.3" cy="282.775" r="14.4" fill="#ff0000" fill-rule="evenodd" fill-opacity="1" stroke="#000000" stroke-opacity="1" stroke-width="3.2"></circle>
<circle clip-path="url(#clip692)" cx="2291.13" cy="160.256" r="14.4" fill="#ff0000" fill-rule="evenodd" fill-opacity="1" stroke="#000000" stroke-opacity="1" stroke-width="3.2"></circle>
<polyline clip-path="url(#clip692)" style="stroke:#0000ff; stroke-linecap:round; stroke-linejoin:round; stroke-width:4; stroke-opacity:1; fill:none" points="237.067,1386.4 307.897,1383.89 378.727,1380.9 449.557,1377.35 520.387,1373.12 591.217,1368.08 662.047,1362.09 732.876,1354.96 803.706,1346.47 874.536,1336.36 945.366,1324.33 1016.2,1310.01 1087.03,1292.99 1157.86,1272.76 1228.69,1248.76 1299.52,1220.38 1370.35,1186.94 1441.18,1147.76 1512.01,1102.22 1582.84,1049.81 1653.66,990.259 1724.49,923.576 1795.32,850.068 1866.15,770.304 1936.98,685.022 2007.81,595.026 2078.64,501.096 "></polyline>
<polyline clip-path="url(#clip692)" style="stroke:#ff0000; stroke-linecap:round; stroke-linejoin:round; stroke-width:4; stroke-opacity:1; fill:none" points="2149.47,403.938 2220.3,304.157 2291.13,202.253 "></polyline>
<path clip-path="url(#clip690)" d="M248.022 425.996 L1100.36 425.996 L1100.36 166.796 L248.022 166.796  Z" fill="#ffffff" fill-rule="evenodd" fill-opacity="1"></path>
<polyline clip-path="url(#clip690)" style="stroke:#000000; stroke-linecap:round; stroke-linejoin:round; stroke-width:4; stroke-opacity:1; fill:none" points="248.022,425.996 1100.36,425.996 1100.36,166.796 248.022,166.796 248.022,425.996 "></polyline>
<circle clip-path="url(#clip690)" cx="344.792" cy="218.636" r="20.48" fill="#0000ff" fill-rule="evenodd" fill-opacity="1" stroke="#000000" stroke-opacity="1" stroke-width="4.55111"></circle>
<path clip-path="url(#clip690)" d="M467.116 230.985 L467.116 221.703 L459.478 221.703 L459.478 217.86 L471.746 217.86 L471.746 232.698 Q469.038 234.619 465.774 235.615 Q462.51 236.587 458.806 236.587 Q450.704 236.587 446.121 231.865 Q441.561 227.119 441.561 218.67 Q441.561 210.198 446.121 205.476 Q450.704 200.731 458.806 200.731 Q462.186 200.731 465.218 201.564 Q468.274 202.397 470.843 204.018 L470.843 208.995 Q468.251 206.796 465.334 205.684 Q462.417 204.573 459.2 204.573 Q452.857 204.573 449.663 208.115 Q446.491 211.657 446.491 218.67 Q446.491 225.661 449.663 229.203 Q452.857 232.744 459.2 232.744 Q461.677 232.744 463.621 232.328 Q465.565 231.888 467.116 230.985 Z" fill="#000000" fill-rule="nonzero" fill-opacity="1"></path><path clip-path="url(#clip690)" d="M495.125 213.971 Q494.408 213.555 493.551 213.37 Q492.718 213.161 491.7 213.161 Q488.088 213.161 486.144 215.522 Q484.223 217.86 484.223 222.258 L484.223 235.916 L479.94 235.916 L479.94 209.99 L484.223 209.99 L484.223 214.018 Q485.565 211.657 487.718 210.522 Q489.871 209.365 492.95 209.365 Q493.389 209.365 493.922 209.434 Q494.454 209.481 495.102 209.596 L495.125 213.971 Z" fill="#000000" fill-rule="nonzero" fill-opacity="1"></path><path clip-path="url(#clip690)" d="M508.598 212.976 Q505.172 212.976 503.181 215.661 Q501.19 218.323 501.19 222.976 Q501.19 227.629 503.158 230.314 Q505.149 232.976 508.598 232.976 Q512 232.976 513.991 230.291 Q515.982 227.606 515.982 222.976 Q515.982 218.37 513.991 215.684 Q512 212.976 508.598 212.976 M508.598 209.365 Q514.153 209.365 517.324 212.976 Q520.496 216.587 520.496 222.976 Q520.496 229.342 517.324 232.976 Q514.153 236.587 508.598 236.587 Q503.019 236.587 499.848 232.976 Q496.7 229.342 496.7 222.976 Q496.7 216.587 499.848 212.976 Q503.019 209.365 508.598 209.365 Z" fill="#000000" fill-rule="nonzero" fill-opacity="1"></path><path clip-path="url(#clip690)" d="M527.116 225.684 L527.116 209.99 L531.375 209.99 L531.375 225.522 Q531.375 229.203 532.81 231.055 Q534.246 232.883 537.116 232.883 Q540.565 232.883 542.556 230.684 Q544.57 228.485 544.57 224.689 L544.57 209.99 L548.829 209.99 L548.829 235.916 L544.57 235.916 L544.57 231.934 Q543.019 234.295 540.959 235.453 Q538.922 236.587 536.213 236.587 Q531.746 236.587 529.431 233.809 Q527.116 231.031 527.116 225.684 M537.834 209.365 L537.834 209.365 Z" fill="#000000" fill-rule="nonzero" fill-opacity="1"></path><path clip-path="url(#clip690)" d="M579.153 220.268 L579.153 235.916 L574.894 235.916 L574.894 220.407 Q574.894 216.726 573.458 214.897 Q572.023 213.069 569.153 213.069 Q565.704 213.069 563.713 215.268 Q561.722 217.467 561.722 221.263 L561.722 235.916 L557.44 235.916 L557.44 209.99 L561.722 209.99 L561.722 214.018 Q563.25 211.68 565.31 210.522 Q567.394 209.365 570.102 209.365 Q574.57 209.365 576.861 212.143 Q579.153 214.897 579.153 220.268 Z" fill="#000000" fill-rule="nonzero" fill-opacity="1"></path><path clip-path="url(#clip690)" d="M604.708 213.925 L604.708 199.897 L608.967 199.897 L608.967 235.916 L604.708 235.916 L604.708 232.027 Q603.366 234.342 601.305 235.476 Q599.268 236.587 596.398 236.587 Q591.699 236.587 588.736 232.837 Q585.796 229.087 585.796 222.976 Q585.796 216.865 588.736 213.115 Q591.699 209.365 596.398 209.365 Q599.268 209.365 601.305 210.499 Q603.366 211.61 604.708 213.925 M590.194 222.976 Q590.194 227.675 592.116 230.36 Q594.06 233.022 597.44 233.022 Q600.819 233.022 602.764 230.36 Q604.708 227.675 604.708 222.976 Q604.708 218.277 602.764 215.615 Q600.819 212.93 597.44 212.93 Q594.06 212.93 592.116 215.615 Q590.194 218.277 590.194 222.976 Z" fill="#000000" fill-rule="nonzero" fill-opacity="1"></path><path clip-path="url(#clip690)" d="M637.023 202.629 L637.023 209.99 L645.796 209.99 L645.796 213.3 L637.023 213.3 L637.023 227.374 Q637.023 230.545 637.879 231.448 Q638.759 232.351 641.421 232.351 L645.796 232.351 L645.796 235.916 L641.421 235.916 Q636.49 235.916 634.615 234.087 Q632.74 232.235 632.74 227.374 L632.74 213.3 L629.616 213.3 L629.616 209.99 L632.74 209.99 L632.74 202.629 L637.023 202.629 Z" fill="#000000" fill-rule="nonzero" fill-opacity="1"></path><path clip-path="url(#clip690)" d="M666.421 213.971 Q665.703 213.555 664.847 213.37 Q664.013 213.161 662.995 213.161 Q659.384 213.161 657.439 215.522 Q655.518 217.86 655.518 222.258 L655.518 235.916 L651.236 235.916 L651.236 209.99 L655.518 209.99 L655.518 214.018 Q656.861 211.657 659.013 210.522 Q661.166 209.365 664.245 209.365 Q664.685 209.365 665.217 209.434 Q665.75 209.481 666.398 209.596 L666.421 213.971 Z" fill="#000000" fill-rule="nonzero" fill-opacity="1"></path><path clip-path="url(#clip690)" d="M670.449 225.684 L670.449 209.99 L674.708 209.99 L674.708 225.522 Q674.708 229.203 676.143 231.055 Q677.578 232.883 680.449 232.883 Q683.898 232.883 685.888 230.684 Q687.902 228.485 687.902 224.689 L687.902 209.99 L692.161 209.99 L692.161 235.916 L687.902 235.916 L687.902 231.934 Q686.351 234.295 684.291 235.453 Q682.254 236.587 679.546 236.587 Q675.078 236.587 672.763 233.809 Q670.449 231.031 670.449 225.684 M681.166 209.365 L681.166 209.365 Z" fill="#000000" fill-rule="nonzero" fill-opacity="1"></path><path clip-path="url(#clip690)" d="M705.148 202.629 L705.148 209.99 L713.921 209.99 L713.921 213.3 L705.148 213.3 L705.148 227.374 Q705.148 230.545 706.004 231.448 Q706.884 232.351 709.546 232.351 L713.921 232.351 L713.921 235.916 L709.546 235.916 Q704.615 235.916 702.74 234.087 Q700.865 232.235 700.865 227.374 L700.865 213.3 L697.74 213.3 L697.74 209.99 L700.865 209.99 L700.865 202.629 L705.148 202.629 Z" fill="#000000" fill-rule="nonzero" fill-opacity="1"></path><path clip-path="url(#clip690)" d="M741.073 220.268 L741.073 235.916 L736.814 235.916 L736.814 220.407 Q736.814 216.726 735.379 214.897 Q733.944 213.069 731.073 213.069 Q727.624 213.069 725.634 215.268 Q723.643 217.467 723.643 221.263 L723.643 235.916 L719.36 235.916 L719.36 199.897 L723.643 199.897 L723.643 214.018 Q725.171 211.68 727.231 210.522 Q729.314 209.365 732.022 209.365 Q736.49 209.365 738.782 212.143 Q741.073 214.897 741.073 220.268 Z" fill="#000000" fill-rule="nonzero" fill-opacity="1"></path><path clip-path="url(#clip690)" d="M781.698 213.925 L781.698 199.897 L785.957 199.897 L785.957 235.916 L781.698 235.916 L781.698 232.027 Q780.355 234.342 778.295 235.476 Q776.258 236.587 773.388 236.587 Q768.689 236.587 765.726 232.837 Q762.786 229.087 762.786 222.976 Q762.786 216.865 765.726 213.115 Q768.689 209.365 773.388 209.365 Q776.258 209.365 778.295 210.499 Q780.355 211.61 781.698 213.925 M767.184 222.976 Q767.184 227.675 769.106 230.36 Q771.05 233.022 774.43 233.022 Q777.809 233.022 779.754 230.36 Q781.698 227.675 781.698 222.976 Q781.698 218.277 779.754 215.615 Q777.809 212.93 774.43 212.93 Q771.05 212.93 769.106 215.615 Q767.184 218.277 767.184 222.976 Z" fill="#000000" fill-rule="nonzero" fill-opacity="1"></path><path clip-path="url(#clip690)" d="M806.513 222.883 Q801.351 222.883 799.36 224.064 Q797.369 225.244 797.369 228.092 Q797.369 230.36 798.851 231.703 Q800.355 233.022 802.925 233.022 Q806.466 233.022 808.596 230.522 Q810.749 227.999 810.749 223.832 L810.749 222.883 L806.513 222.883 M815.008 221.124 L815.008 235.916 L810.749 235.916 L810.749 231.981 Q809.29 234.342 807.115 235.476 Q804.939 236.587 801.791 236.587 Q797.809 236.587 795.448 234.365 Q793.11 232.119 793.11 228.369 Q793.11 223.994 796.027 221.772 Q798.966 219.55 804.777 219.55 L810.749 219.55 L810.749 219.133 Q810.749 216.194 808.804 214.596 Q806.883 212.976 803.388 212.976 Q801.166 212.976 799.059 213.508 Q796.953 214.041 795.008 215.106 L795.008 211.17 Q797.346 210.268 799.545 209.828 Q801.744 209.365 803.828 209.365 Q809.453 209.365 812.23 212.282 Q815.008 215.198 815.008 221.124 Z" fill="#000000" fill-rule="nonzero" fill-opacity="1"></path><path clip-path="url(#clip690)" d="M827.994 202.629 L827.994 209.99 L836.767 209.99 L836.767 213.3 L827.994 213.3 L827.994 227.374 Q827.994 230.545 828.851 231.448 Q829.73 232.351 832.392 232.351 L836.767 232.351 L836.767 235.916 L832.392 235.916 Q827.462 235.916 825.587 234.087 Q823.712 232.235 823.712 227.374 L823.712 213.3 L820.587 213.3 L820.587 209.99 L823.712 209.99 L823.712 202.629 L827.994 202.629 Z" fill="#000000" fill-rule="nonzero" fill-opacity="1"></path><path clip-path="url(#clip690)" d="M854.151 222.883 Q848.989 222.883 846.999 224.064 Q845.008 225.244 845.008 228.092 Q845.008 230.36 846.489 231.703 Q847.994 233.022 850.563 233.022 Q854.105 233.022 856.235 230.522 Q858.387 227.999 858.387 223.832 L858.387 222.883 L854.151 222.883 M862.647 221.124 L862.647 235.916 L858.387 235.916 L858.387 231.981 Q856.929 234.342 854.753 235.476 Q852.577 236.587 849.429 236.587 Q845.448 236.587 843.087 234.365 Q840.749 232.119 840.749 228.369 Q840.749 223.994 843.665 221.772 Q846.605 219.55 852.415 219.55 L858.387 219.55 L858.387 219.133 Q858.387 216.194 856.443 214.596 Q854.522 212.976 851.026 212.976 Q848.804 212.976 846.698 213.508 Q844.591 214.041 842.647 215.106 L842.647 211.17 Q844.985 210.268 847.184 209.828 Q849.383 209.365 851.466 209.365 Q857.091 209.365 859.869 212.282 Q862.647 215.198 862.647 221.124 Z" fill="#000000" fill-rule="nonzero" fill-opacity="1"></path><circle clip-path="url(#clip690)" cx="344.792" cy="270.476" r="20.48" fill="#ff0000" fill-rule="evenodd" fill-opacity="1" stroke="#000000" stroke-opacity="1" stroke-width="4.55111"></circle>
<path clip-path="url(#clip690)" d="M467.116 282.825 L467.116 273.543 L459.478 273.543 L459.478 269.7 L471.746 269.7 L471.746 284.538 Q469.038 286.459 465.774 287.455 Q462.51 288.427 458.806 288.427 Q450.704 288.427 446.121 283.705 Q441.561 278.959 441.561 270.51 Q441.561 262.038 446.121 257.316 Q450.704 252.571 458.806 252.571 Q462.186 252.571 465.218 253.404 Q468.274 254.237 470.843 255.858 L470.843 260.835 Q468.251 258.636 465.334 257.524 Q462.417 256.413 459.2 256.413 Q452.857 256.413 449.663 259.955 Q446.491 263.497 446.491 270.51 Q446.491 277.501 449.663 281.043 Q452.857 284.584 459.2 284.584 Q461.677 284.584 463.621 284.168 Q465.565 283.728 467.116 282.825 Z" fill="#000000" fill-rule="nonzero" fill-opacity="1"></path><path clip-path="url(#clip690)" d="M495.125 265.811 Q494.408 265.395 493.551 265.21 Q492.718 265.001 491.7 265.001 Q488.088 265.001 486.144 267.362 Q484.223 269.7 484.223 274.098 L484.223 287.756 L479.94 287.756 L479.94 261.83 L484.223 261.83 L484.223 265.858 Q485.565 263.497 487.718 262.362 Q489.871 261.205 492.95 261.205 Q493.389 261.205 493.922 261.274 Q494.454 261.321 495.102 261.436 L495.125 265.811 Z" fill="#000000" fill-rule="nonzero" fill-opacity="1"></path><path clip-path="url(#clip690)" d="M508.598 264.816 Q505.172 264.816 503.181 267.501 Q501.19 270.163 501.19 274.816 Q501.19 279.469 503.158 282.154 Q505.149 284.816 508.598 284.816 Q512 284.816 513.991 282.131 Q515.982 279.446 515.982 274.816 Q515.982 270.21 513.991 267.524 Q512 264.816 508.598 264.816 M508.598 261.205 Q514.153 261.205 517.324 264.816 Q520.496 268.427 520.496 274.816 Q520.496 281.182 517.324 284.816 Q514.153 288.427 508.598 288.427 Q503.019 288.427 499.848 284.816 Q496.7 281.182 496.7 274.816 Q496.7 268.427 499.848 264.816 Q503.019 261.205 508.598 261.205 Z" fill="#000000" fill-rule="nonzero" fill-opacity="1"></path><path clip-path="url(#clip690)" d="M527.116 277.524 L527.116 261.83 L531.375 261.83 L531.375 277.362 Q531.375 281.043 532.81 282.895 Q534.246 284.723 537.116 284.723 Q540.565 284.723 542.556 282.524 Q544.57 280.325 544.57 276.529 L544.57 261.83 L548.829 261.83 L548.829 287.756 L544.57 287.756 L544.57 283.774 Q543.019 286.135 540.959 287.293 Q538.922 288.427 536.213 288.427 Q531.746 288.427 529.431 285.649 Q527.116 282.871 527.116 277.524 M537.834 261.205 L537.834 261.205 Z" fill="#000000" fill-rule="nonzero" fill-opacity="1"></path><path clip-path="url(#clip690)" d="M579.153 272.108 L579.153 287.756 L574.894 287.756 L574.894 272.247 Q574.894 268.566 573.458 266.737 Q572.023 264.909 569.153 264.909 Q565.704 264.909 563.713 267.108 Q561.722 269.307 561.722 273.103 L561.722 287.756 L557.44 287.756 L557.44 261.83 L561.722 261.83 L561.722 265.858 Q563.25 263.52 565.31 262.362 Q567.394 261.205 570.102 261.205 Q574.57 261.205 576.861 263.983 Q579.153 266.737 579.153 272.108 Z" fill="#000000" fill-rule="nonzero" fill-opacity="1"></path><path clip-path="url(#clip690)" d="M604.708 265.765 L604.708 251.737 L608.967 251.737 L608.967 287.756 L604.708 287.756 L604.708 283.867 Q603.366 286.182 601.305 287.316 Q599.268 288.427 596.398 288.427 Q591.699 288.427 588.736 284.677 Q585.796 280.927 585.796 274.816 Q585.796 268.705 588.736 264.955 Q591.699 261.205 596.398 261.205 Q599.268 261.205 601.305 262.339 Q603.366 263.45 604.708 265.765 M590.194 274.816 Q590.194 279.515 592.116 282.2 Q594.06 284.862 597.44 284.862 Q600.819 284.862 602.764 282.2 Q604.708 279.515 604.708 274.816 Q604.708 270.117 602.764 267.455 Q600.819 264.77 597.44 264.77 Q594.06 264.77 592.116 267.455 Q590.194 270.117 590.194 274.816 Z" fill="#000000" fill-rule="nonzero" fill-opacity="1"></path><path clip-path="url(#clip690)" d="M637.023 254.469 L637.023 261.83 L645.796 261.83 L645.796 265.14 L637.023 265.14 L637.023 279.214 Q637.023 282.385 637.879 283.288 Q638.759 284.191 641.421 284.191 L645.796 284.191 L645.796 287.756 L641.421 287.756 Q636.49 287.756 634.615 285.927 Q632.74 284.075 632.74 279.214 L632.74 265.14 L629.616 265.14 L629.616 261.83 L632.74 261.83 L632.74 254.469 L637.023 254.469 Z" fill="#000000" fill-rule="nonzero" fill-opacity="1"></path><path clip-path="url(#clip690)" d="M666.421 265.811 Q665.703 265.395 664.847 265.21 Q664.013 265.001 662.995 265.001 Q659.384 265.001 657.439 267.362 Q655.518 269.7 655.518 274.098 L655.518 287.756 L651.236 287.756 L651.236 261.83 L655.518 261.83 L655.518 265.858 Q656.861 263.497 659.013 262.362 Q661.166 261.205 664.245 261.205 Q664.685 261.205 665.217 261.274 Q665.75 261.321 666.398 261.436 L666.421 265.811 Z" fill="#000000" fill-rule="nonzero" fill-opacity="1"></path><path clip-path="url(#clip690)" d="M670.449 277.524 L670.449 261.83 L674.708 261.83 L674.708 277.362 Q674.708 281.043 676.143 282.895 Q677.578 284.723 680.449 284.723 Q683.898 284.723 685.888 282.524 Q687.902 280.325 687.902 276.529 L687.902 261.83 L692.161 261.83 L692.161 287.756 L687.902 287.756 L687.902 283.774 Q686.351 286.135 684.291 287.293 Q682.254 288.427 679.546 288.427 Q675.078 288.427 672.763 285.649 Q670.449 282.871 670.449 277.524 M681.166 261.205 L681.166 261.205 Z" fill="#000000" fill-rule="nonzero" fill-opacity="1"></path><path clip-path="url(#clip690)" d="M705.148 254.469 L705.148 261.83 L713.921 261.83 L713.921 265.14 L705.148 265.14 L705.148 279.214 Q705.148 282.385 706.004 283.288 Q706.884 284.191 709.546 284.191 L713.921 284.191 L713.921 287.756 L709.546 287.756 Q704.615 287.756 702.74 285.927 Q700.865 284.075 700.865 279.214 L700.865 265.14 L697.74 265.14 L697.74 261.83 L700.865 261.83 L700.865 254.469 L705.148 254.469 Z" fill="#000000" fill-rule="nonzero" fill-opacity="1"></path><path clip-path="url(#clip690)" d="M741.073 272.108 L741.073 287.756 L736.814 287.756 L736.814 272.247 Q736.814 268.566 735.379 266.737 Q733.944 264.909 731.073 264.909 Q727.624 264.909 725.634 267.108 Q723.643 269.307 723.643 273.103 L723.643 287.756 L719.36 287.756 L719.36 251.737 L723.643 251.737 L723.643 265.858 Q725.171 263.52 727.231 262.362 Q729.314 261.205 732.022 261.205 Q736.49 261.205 738.782 263.983 Q741.073 266.737 741.073 272.108 Z" fill="#000000" fill-rule="nonzero" fill-opacity="1"></path><path clip-path="url(#clip690)" d="M781.698 265.765 L781.698 251.737 L785.957 251.737 L785.957 287.756 L781.698 287.756 L781.698 283.867 Q780.355 286.182 778.295 287.316 Q776.258 288.427 773.388 288.427 Q768.689 288.427 765.726 284.677 Q762.786 280.927 762.786 274.816 Q762.786 268.705 765.726 264.955 Q768.689 261.205 773.388 261.205 Q776.258 261.205 778.295 262.339 Q780.355 263.45 781.698 265.765 M767.184 274.816 Q767.184 279.515 769.106 282.2 Q771.05 284.862 774.43 284.862 Q777.809 284.862 779.754 282.2 Q781.698 279.515 781.698 274.816 Q781.698 270.117 779.754 267.455 Q777.809 264.77 774.43 264.77 Q771.05 264.77 769.106 267.455 Q767.184 270.117 767.184 274.816 Z" fill="#000000" fill-rule="nonzero" fill-opacity="1"></path><path clip-path="url(#clip690)" d="M806.513 274.723 Q801.351 274.723 799.36 275.904 Q797.369 277.084 797.369 279.932 Q797.369 282.2 798.851 283.543 Q800.355 284.862 802.925 284.862 Q806.466 284.862 808.596 282.362 Q810.749 279.839 810.749 275.672 L810.749 274.723 L806.513 274.723 M815.008 272.964 L815.008 287.756 L810.749 287.756 L810.749 283.821 Q809.29 286.182 807.115 287.316 Q804.939 288.427 801.791 288.427 Q797.809 288.427 795.448 286.205 Q793.11 283.959 793.11 280.209 Q793.11 275.834 796.027 273.612 Q798.966 271.39 804.777 271.39 L810.749 271.39 L810.749 270.973 Q810.749 268.034 808.804 266.436 Q806.883 264.816 803.388 264.816 Q801.166 264.816 799.059 265.348 Q796.953 265.881 795.008 266.946 L795.008 263.01 Q797.346 262.108 799.545 261.668 Q801.744 261.205 803.828 261.205 Q809.453 261.205 812.23 264.122 Q815.008 267.038 815.008 272.964 Z" fill="#000000" fill-rule="nonzero" fill-opacity="1"></path><path clip-path="url(#clip690)" d="M827.994 254.469 L827.994 261.83 L836.767 261.83 L836.767 265.14 L827.994 265.14 L827.994 279.214 Q827.994 282.385 828.851 283.288 Q829.73 284.191 832.392 284.191 L836.767 284.191 L836.767 287.756 L832.392 287.756 Q827.462 287.756 825.587 285.927 Q823.712 284.075 823.712 279.214 L823.712 265.14 L820.587 265.14 L820.587 261.83 L823.712 261.83 L823.712 254.469 L827.994 254.469 Z" fill="#000000" fill-rule="nonzero" fill-opacity="1"></path><path clip-path="url(#clip690)" d="M854.151 274.723 Q848.989 274.723 846.999 275.904 Q845.008 277.084 845.008 279.932 Q845.008 282.2 846.489 283.543 Q847.994 284.862 850.563 284.862 Q854.105 284.862 856.235 282.362 Q858.387 279.839 858.387 275.672 L858.387 274.723 L854.151 274.723 M862.647 272.964 L862.647 287.756 L858.387 287.756 L858.387 283.821 Q856.929 286.182 854.753 287.316 Q852.577 288.427 849.429 288.427 Q845.448 288.427 843.087 286.205 Q840.749 283.959 840.749 280.209 Q840.749 275.834 843.665 273.612 Q846.605 271.39 852.415 271.39 L858.387 271.39 L858.387 270.973 Q858.387 268.034 856.443 266.436 Q854.522 264.816 851.026 264.816 Q848.804 264.816 846.698 265.348 Q844.591 265.881 842.647 266.946 L842.647 263.01 Q844.985 262.108 847.184 261.668 Q849.383 261.205 851.466 261.205 Q857.091 261.205 859.869 264.122 Q862.647 267.038 862.647 272.964 Z" fill="#000000" fill-rule="nonzero" fill-opacity="1"></path><polyline clip-path="url(#clip690)" style="stroke:#0000ff; stroke-linecap:round; stroke-linejoin:round; stroke-width:4; stroke-opacity:1; fill:none" points="272.215,322.316 417.369,322.316 "></polyline>
<path clip-path="url(#clip690)" d="M441.561 305.036 L447.857 305.036 L463.181 333.948 L463.181 305.036 L467.718 305.036 L467.718 339.596 L461.422 339.596 L446.098 310.684 L446.098 339.596 L441.561 339.596 L441.561 305.036 Z" fill="#000000" fill-rule="nonzero" fill-opacity="1"></path><path clip-path="url(#clip690)" d="M477.024 305.036 L483.32 305.036 L498.644 333.948 L498.644 305.036 L503.181 305.036 L503.181 339.596 L496.885 339.596 L481.561 310.684 L481.561 339.596 L477.024 339.596 L477.024 305.036 Z" fill="#000000" fill-rule="nonzero" fill-opacity="1"></path><path clip-path="url(#clip690)" d="M526.514 308.207 Q521.422 308.207 518.412 312.003 Q515.426 315.8 515.426 322.35 Q515.426 328.878 518.412 332.674 Q521.422 336.471 526.514 336.471 Q531.607 336.471 534.57 332.674 Q537.556 328.878 537.556 322.35 Q537.556 315.8 534.57 312.003 Q531.607 308.207 526.514 308.207 M526.514 304.411 Q533.783 304.411 538.135 309.295 Q542.486 314.156 542.486 322.35 Q542.486 330.522 538.135 335.406 Q533.783 340.267 526.514 340.267 Q519.223 340.267 514.848 335.406 Q510.496 330.545 510.496 322.35 Q510.496 314.156 514.848 309.295 Q519.223 304.411 526.514 304.411 Z" fill="#000000" fill-rule="nonzero" fill-opacity="1"></path><path clip-path="url(#clip690)" d="M554.477 308.878 L554.477 335.753 L560.125 335.753 Q567.278 335.753 570.588 332.512 Q573.921 329.272 573.921 322.281 Q573.921 315.337 570.588 312.119 Q567.278 308.878 560.125 308.878 L554.477 308.878 M549.801 305.036 L559.408 305.036 Q569.454 305.036 574.153 309.226 Q578.852 313.392 578.852 322.281 Q578.852 331.216 574.13 335.406 Q569.407 339.596 559.408 339.596 L549.801 339.596 L549.801 305.036 Z" fill="#000000" fill-rule="nonzero" fill-opacity="1"></path><path clip-path="url(#clip690)" d="M586.306 305.036 L608.157 305.036 L608.157 308.971 L590.981 308.971 L590.981 319.202 L607.44 319.202 L607.44 323.137 L590.981 323.137 L590.981 335.661 L608.574 335.661 L608.574 339.596 L586.306 339.596 L586.306 305.036 Z" fill="#000000" fill-rule="nonzero" fill-opacity="1"></path><path clip-path="url(#clip690)" d="M626.537 305.036 L655.773 305.036 L655.773 308.971 L643.504 308.971 L643.504 339.596 L638.805 339.596 L638.805 308.971 L626.537 308.971 L626.537 305.036 Z" fill="#000000" fill-rule="nonzero" fill-opacity="1"></path><path clip-path="url(#clip690)" d="M668.157 317.651 Q667.439 317.235 666.583 317.05 Q665.75 316.841 664.731 316.841 Q661.12 316.841 659.176 319.202 Q657.254 321.54 657.254 325.938 L657.254 339.596 L652.972 339.596 L652.972 313.67 L657.254 313.67 L657.254 317.698 Q658.597 315.337 660.75 314.202 Q662.902 313.045 665.981 313.045 Q666.421 313.045 666.953 313.114 Q667.486 313.161 668.134 313.276 L668.157 317.651 Z" fill="#000000" fill-rule="nonzero" fill-opacity="1"></path><path clip-path="url(#clip690)" d="M684.407 326.563 Q679.245 326.563 677.254 327.744 Q675.263 328.924 675.263 331.772 Q675.263 334.04 676.745 335.383 Q678.25 336.702 680.819 336.702 Q684.361 336.702 686.49 334.202 Q688.643 331.679 688.643 327.512 L688.643 326.563 L684.407 326.563 M692.902 324.804 L692.902 339.596 L688.643 339.596 L688.643 335.661 Q687.185 338.022 685.009 339.156 Q682.833 340.267 679.685 340.267 Q675.703 340.267 673.342 338.045 Q671.004 335.799 671.004 332.049 Q671.004 327.674 673.921 325.452 Q676.861 323.23 682.671 323.23 L688.643 323.23 L688.643 322.813 Q688.643 319.874 686.699 318.276 Q684.777 316.656 681.282 316.656 Q679.06 316.656 676.953 317.188 Q674.847 317.721 672.902 318.786 L672.902 314.85 Q675.24 313.948 677.439 313.508 Q679.638 313.045 681.722 313.045 Q687.347 313.045 690.124 315.962 Q692.902 318.878 692.902 324.804 Z" fill="#000000" fill-rule="nonzero" fill-opacity="1"></path><path clip-path="url(#clip690)" d="M701.675 313.67 L705.935 313.67 L705.935 339.596 L701.675 339.596 L701.675 313.67 M701.675 303.577 L705.935 303.577 L705.935 308.971 L701.675 308.971 L701.675 303.577 Z" fill="#000000" fill-rule="nonzero" fill-opacity="1"></path><path clip-path="url(#clip690)" d="M736.397 323.948 L736.397 339.596 L732.138 339.596 L732.138 324.087 Q732.138 320.406 730.703 318.577 Q729.268 316.749 726.397 316.749 Q722.948 316.749 720.958 318.948 Q718.967 321.147 718.967 324.943 L718.967 339.596 L714.684 339.596 L714.684 313.67 L718.967 313.67 L718.967 317.698 Q720.495 315.36 722.555 314.202 Q724.638 313.045 727.346 313.045 Q731.814 313.045 734.106 315.823 Q736.397 318.577 736.397 323.948 Z" fill="#000000" fill-rule="nonzero" fill-opacity="1"></path><path clip-path="url(#clip690)" d="M744.893 313.67 L749.152 313.67 L749.152 339.596 L744.893 339.596 L744.893 313.67 M744.893 303.577 L749.152 303.577 L749.152 308.971 L744.893 308.971 L744.893 303.577 Z" fill="#000000" fill-rule="nonzero" fill-opacity="1"></path><path clip-path="url(#clip690)" d="M779.615 323.948 L779.615 339.596 L775.355 339.596 L775.355 324.087 Q775.355 320.406 773.92 318.577 Q772.485 316.749 769.615 316.749 Q766.166 316.749 764.175 318.948 Q762.184 321.147 762.184 324.943 L762.184 339.596 L757.902 339.596 L757.902 313.67 L762.184 313.67 L762.184 317.698 Q763.712 315.36 765.772 314.202 Q767.856 313.045 770.564 313.045 Q775.031 313.045 777.323 315.823 Q779.615 318.577 779.615 323.948 Z" fill="#000000" fill-rule="nonzero" fill-opacity="1"></path><path clip-path="url(#clip690)" d="M805.17 326.332 Q805.17 321.702 803.249 319.156 Q801.351 316.61 797.902 316.61 Q794.476 316.61 792.554 319.156 Q790.656 321.702 790.656 326.332 Q790.656 330.938 792.554 333.485 Q794.476 336.031 797.902 336.031 Q801.351 336.031 803.249 333.485 Q805.17 330.938 805.17 326.332 M809.429 336.378 Q809.429 342.998 806.49 346.216 Q803.55 349.457 797.485 349.457 Q795.24 349.457 793.249 349.11 Q791.258 348.785 789.383 348.091 L789.383 343.948 Q791.258 344.966 793.087 345.452 Q794.916 345.938 796.814 345.938 Q801.003 345.938 803.087 343.739 Q805.17 341.563 805.17 337.142 L805.17 335.036 Q803.851 337.327 801.791 338.461 Q799.73 339.596 796.86 339.596 Q792.091 339.596 789.175 335.961 Q786.258 332.327 786.258 326.332 Q786.258 320.313 789.175 316.679 Q792.091 313.045 796.86 313.045 Q799.73 313.045 801.791 314.179 Q803.851 315.313 805.17 317.605 L805.17 313.67 L809.429 313.67 L809.429 336.378 Z" fill="#000000" fill-rule="nonzero" fill-opacity="1"></path><path clip-path="url(#clip690)" d="M837.392 335.707 L837.392 349.457 L833.11 349.457 L833.11 313.67 L837.392 313.67 L837.392 317.605 Q838.735 315.29 840.772 314.179 Q842.832 313.045 845.679 313.045 Q850.401 313.045 853.341 316.795 Q856.304 320.545 856.304 326.656 Q856.304 332.767 853.341 336.517 Q850.401 340.267 845.679 340.267 Q842.832 340.267 840.772 339.156 Q838.735 338.022 837.392 335.707 M851.883 326.656 Q851.883 321.957 849.938 319.295 Q848.017 316.61 844.638 316.61 Q841.258 316.61 839.313 319.295 Q837.392 321.957 837.392 326.656 Q837.392 331.355 839.313 334.04 Q841.258 336.702 844.638 336.702 Q848.017 336.702 849.938 334.04 Q851.883 331.355 851.883 326.656 Z" fill="#000000" fill-rule="nonzero" fill-opacity="1"></path><path clip-path="url(#clip690)" d="M878.387 317.651 Q877.67 317.235 876.813 317.05 Q875.98 316.841 874.961 316.841 Q871.35 316.841 869.406 319.202 Q867.485 321.54 867.485 325.938 L867.485 339.596 L863.202 339.596 L863.202 313.67 L867.485 313.67 L867.485 317.698 Q868.827 315.337 870.98 314.202 Q873.133 313.045 876.211 313.045 Q876.651 313.045 877.184 313.114 Q877.716 313.161 878.364 313.276 L878.387 317.651 Z" fill="#000000" fill-rule="nonzero" fill-opacity="1"></path><path clip-path="url(#clip690)" d="M903.989 325.568 L903.989 327.651 L884.406 327.651 Q884.684 332.049 887.045 334.364 Q889.429 336.656 893.665 336.656 Q896.119 336.656 898.41 336.054 Q900.725 335.452 902.994 334.249 L902.994 338.276 Q900.702 339.248 898.295 339.758 Q895.887 340.267 893.41 340.267 Q887.207 340.267 883.572 336.656 Q879.961 333.045 879.961 326.887 Q879.961 320.522 883.387 316.795 Q886.836 313.045 892.67 313.045 Q897.901 313.045 900.933 316.425 Q903.989 319.781 903.989 325.568 M899.73 324.318 Q899.684 320.823 897.762 318.739 Q895.864 316.656 892.716 316.656 Q889.151 316.656 886.998 318.67 Q884.869 320.684 884.545 324.341 L899.73 324.318 Z" fill="#000000" fill-rule="nonzero" fill-opacity="1"></path><path clip-path="url(#clip690)" d="M928.04 317.605 L928.04 303.577 L932.299 303.577 L932.299 339.596 L928.04 339.596 L928.04 335.707 Q926.697 338.022 924.637 339.156 Q922.6 340.267 919.73 340.267 Q915.031 340.267 912.068 336.517 Q909.128 332.767 909.128 326.656 Q909.128 320.545 912.068 316.795 Q915.031 313.045 919.73 313.045 Q922.6 313.045 924.637 314.179 Q926.697 315.29 928.04 317.605 M913.526 326.656 Q913.526 331.355 915.447 334.04 Q917.392 336.702 920.771 336.702 Q924.151 336.702 926.095 334.04 Q928.04 331.355 928.04 326.656 Q928.04 321.957 926.095 319.295 Q924.151 316.61 920.771 316.61 Q917.392 316.61 915.447 319.295 Q913.526 321.957 913.526 326.656 Z" fill="#000000" fill-rule="nonzero" fill-opacity="1"></path><path clip-path="url(#clip690)" d="M941.072 313.67 L945.331 313.67 L945.331 339.596 L941.072 339.596 L941.072 313.67 M941.072 303.577 L945.331 303.577 L945.331 308.971 L941.072 308.971 L941.072 303.577 Z" fill="#000000" fill-rule="nonzero" fill-opacity="1"></path><path clip-path="url(#clip690)" d="M972.901 314.665 L972.901 318.647 Q971.095 317.651 969.266 317.165 Q967.461 316.656 965.609 316.656 Q961.466 316.656 959.174 319.295 Q956.882 321.911 956.882 326.656 Q956.882 331.401 959.174 334.04 Q961.466 336.656 965.609 336.656 Q967.461 336.656 969.266 336.17 Q971.095 335.661 972.901 334.665 L972.901 338.6 Q971.118 339.434 969.197 339.85 Q967.299 340.267 965.146 340.267 Q959.29 340.267 955.841 336.586 Q952.392 332.906 952.392 326.656 Q952.392 320.313 955.864 316.679 Q959.359 313.045 965.424 313.045 Q967.391 313.045 969.266 313.462 Q971.141 313.855 972.901 314.665 Z" fill="#000000" fill-rule="nonzero" fill-opacity="1"></path><path clip-path="url(#clip690)" d="M984.521 306.309 L984.521 313.67 L993.294 313.67 L993.294 316.98 L984.521 316.98 L984.521 331.054 Q984.521 334.225 985.377 335.128 Q986.257 336.031 988.919 336.031 L993.294 336.031 L993.294 339.596 L988.919 339.596 Q983.989 339.596 982.114 337.767 Q980.239 335.915 980.239 331.054 L980.239 316.98 L977.114 316.98 L977.114 313.67 L980.239 313.67 L980.239 306.309 L984.521 306.309 Z" fill="#000000" fill-rule="nonzero" fill-opacity="1"></path><path clip-path="url(#clip690)" d="M998.896 313.67 L1003.16 313.67 L1003.16 339.596 L998.896 339.596 L998.896 313.67 M998.896 303.577 L1003.16 303.577 L1003.16 308.971 L998.896 308.971 L998.896 303.577 Z" fill="#000000" fill-rule="nonzero" fill-opacity="1"></path><path clip-path="url(#clip690)" d="M1022.11 316.656 Q1018.69 316.656 1016.7 319.341 Q1014.71 322.003 1014.71 326.656 Q1014.71 331.309 1016.67 333.994 Q1018.66 336.656 1022.11 336.656 Q1025.52 336.656 1027.51 333.971 Q1029.5 331.286 1029.5 326.656 Q1029.5 322.05 1027.51 319.364 Q1025.52 316.656 1022.11 316.656 M1022.11 313.045 Q1027.67 313.045 1030.84 316.656 Q1034.01 320.267 1034.01 326.656 Q1034.01 333.022 1030.84 336.656 Q1027.67 340.267 1022.11 340.267 Q1016.53 340.267 1013.36 336.656 Q1010.22 333.022 1010.22 326.656 Q1010.22 320.267 1013.36 316.656 Q1016.53 313.045 1022.11 313.045 Z" fill="#000000" fill-rule="nonzero" fill-opacity="1"></path><path clip-path="url(#clip690)" d="M1062.62 323.948 L1062.62 339.596 L1058.36 339.596 L1058.36 324.087 Q1058.36 320.406 1056.93 318.577 Q1055.49 316.749 1052.62 316.749 Q1049.17 316.749 1047.18 318.948 Q1045.19 321.147 1045.19 324.943 L1045.19 339.596 L1040.91 339.596 L1040.91 313.67 L1045.19 313.67 L1045.19 317.698 Q1046.72 315.36 1048.78 314.202 Q1050.86 313.045 1053.57 313.045 Q1058.04 313.045 1060.33 315.823 Q1062.62 318.577 1062.62 323.948 Z" fill="#000000" fill-rule="nonzero" fill-opacity="1"></path><polyline clip-path="url(#clip690)" style="stroke:#ff0000; stroke-linecap:round; stroke-linejoin:round; stroke-width:4; stroke-opacity:1; fill:none" points="272.215,374.156 417.369,374.156 "></polyline>
<path clip-path="url(#clip690)" d="M441.561 356.876 L447.857 356.876 L463.181 385.788 L463.181 356.876 L467.718 356.876 L467.718 391.436 L461.422 391.436 L446.098 362.524 L446.098 391.436 L441.561 391.436 L441.561 356.876 Z" fill="#000000" fill-rule="nonzero" fill-opacity="1"></path><path clip-path="url(#clip690)" d="M477.024 356.876 L483.32 356.876 L498.644 385.788 L498.644 356.876 L503.181 356.876 L503.181 391.436 L496.885 391.436 L481.561 362.524 L481.561 391.436 L477.024 391.436 L477.024 356.876 Z" fill="#000000" fill-rule="nonzero" fill-opacity="1"></path><path clip-path="url(#clip690)" d="M526.514 360.047 Q521.422 360.047 518.412 363.843 Q515.426 367.64 515.426 374.19 Q515.426 380.718 518.412 384.514 Q521.422 388.311 526.514 388.311 Q531.607 388.311 534.57 384.514 Q537.556 380.718 537.556 374.19 Q537.556 367.64 534.57 363.843 Q531.607 360.047 526.514 360.047 M526.514 356.251 Q533.783 356.251 538.135 361.135 Q542.486 365.996 542.486 374.19 Q542.486 382.362 538.135 387.246 Q533.783 392.107 526.514 392.107 Q519.223 392.107 514.848 387.246 Q510.496 382.385 510.496 374.19 Q510.496 365.996 514.848 361.135 Q519.223 356.251 526.514 356.251 Z" fill="#000000" fill-rule="nonzero" fill-opacity="1"></path><path clip-path="url(#clip690)" d="M554.477 360.718 L554.477 387.593 L560.125 387.593 Q567.278 387.593 570.588 384.352 Q573.921 381.112 573.921 374.121 Q573.921 367.177 570.588 363.959 Q567.278 360.718 560.125 360.718 L554.477 360.718 M549.801 356.876 L559.408 356.876 Q569.454 356.876 574.153 361.066 Q578.852 365.232 578.852 374.121 Q578.852 383.056 574.13 387.246 Q569.407 391.436 559.408 391.436 L549.801 391.436 L549.801 356.876 Z" fill="#000000" fill-rule="nonzero" fill-opacity="1"></path><path clip-path="url(#clip690)" d="M586.306 356.876 L608.157 356.876 L608.157 360.811 L590.981 360.811 L590.981 371.042 L607.44 371.042 L607.44 374.977 L590.981 374.977 L590.981 387.501 L608.574 387.501 L608.574 391.436 L586.306 391.436 L586.306 356.876 Z" fill="#000000" fill-rule="nonzero" fill-opacity="1"></path><path clip-path="url(#clip690)" d="M631.328 356.876 L651.189 356.876 L651.189 360.811 L636.004 360.811 L636.004 370.996 L649.708 370.996 L649.708 374.931 L636.004 374.931 L636.004 391.436 L631.328 391.436 L631.328 356.876 Z" fill="#000000" fill-rule="nonzero" fill-opacity="1"></path><path clip-path="url(#clip690)" d="M666.768 368.496 Q663.342 368.496 661.351 371.181 Q659.361 373.843 659.361 378.496 Q659.361 383.149 661.328 385.834 Q663.319 388.496 666.768 388.496 Q670.171 388.496 672.162 385.811 Q674.152 383.126 674.152 378.496 Q674.152 373.89 672.162 371.204 Q670.171 368.496 666.768 368.496 M666.768 364.885 Q672.324 364.885 675.495 368.496 Q678.666 372.107 678.666 378.496 Q678.666 384.862 675.495 388.496 Q672.324 392.107 666.768 392.107 Q661.189 392.107 658.018 388.496 Q654.87 384.862 654.87 378.496 Q654.87 372.107 658.018 368.496 Q661.189 364.885 666.768 364.885 Z" fill="#000000" fill-rule="nonzero" fill-opacity="1"></path><path clip-path="url(#clip690)" d="M700.749 369.491 Q700.032 369.075 699.175 368.89 Q698.342 368.681 697.323 368.681 Q693.712 368.681 691.768 371.042 Q689.847 373.38 689.847 377.778 L689.847 391.436 L685.564 391.436 L685.564 365.51 L689.847 365.51 L689.847 369.538 Q691.189 367.177 693.342 366.042 Q695.495 364.885 698.573 364.885 Q699.013 364.885 699.546 364.954 Q700.078 365.001 700.726 365.116 L700.749 369.491 Z" fill="#000000" fill-rule="nonzero" fill-opacity="1"></path><path clip-path="url(#clip690)" d="M726.351 377.408 L726.351 379.491 L706.768 379.491 Q707.046 383.889 709.407 386.204 Q711.791 388.496 716.027 388.496 Q718.481 388.496 720.772 387.894 Q723.087 387.292 725.356 386.089 L725.356 390.116 Q723.064 391.088 720.657 391.598 Q718.249 392.107 715.772 392.107 Q709.569 392.107 705.935 388.496 Q702.323 384.885 702.323 378.727 Q702.323 372.362 705.749 368.635 Q709.198 364.885 715.032 364.885 Q720.263 364.885 723.296 368.265 Q726.351 371.621 726.351 377.408 M722.092 376.158 Q722.046 372.663 720.124 370.579 Q718.226 368.496 715.078 368.496 Q711.513 368.496 709.36 370.51 Q707.231 372.524 706.907 376.181 L722.092 376.158 Z" fill="#000000" fill-rule="nonzero" fill-opacity="1"></path><path clip-path="url(#clip690)" d="M751.999 366.505 L751.999 370.487 Q750.194 369.491 748.365 369.005 Q746.559 368.496 744.707 368.496 Q740.564 368.496 738.272 371.135 Q735.981 373.751 735.981 378.496 Q735.981 383.241 738.272 385.88 Q740.564 388.496 744.707 388.496 Q746.559 388.496 748.365 388.01 Q750.194 387.501 751.999 386.505 L751.999 390.44 Q750.217 391.274 748.295 391.69 Q746.397 392.107 744.245 392.107 Q738.388 392.107 734.939 388.426 Q731.49 384.746 731.49 378.496 Q731.49 372.153 734.962 368.519 Q738.458 364.885 744.522 364.885 Q746.49 364.885 748.365 365.302 Q750.24 365.695 751.999 366.505 Z" fill="#000000" fill-rule="nonzero" fill-opacity="1"></path><path clip-path="url(#clip690)" d="M771.189 378.403 Q766.027 378.403 764.036 379.584 Q762.045 380.764 762.045 383.612 Q762.045 385.88 763.527 387.223 Q765.031 388.542 767.601 388.542 Q771.143 388.542 773.272 386.042 Q775.425 383.519 775.425 379.352 L775.425 378.403 L771.189 378.403 M779.684 376.644 L779.684 391.436 L775.425 391.436 L775.425 387.501 Q773.967 389.862 771.791 390.996 Q769.615 392.107 766.467 392.107 Q762.485 392.107 760.124 389.885 Q757.786 387.639 757.786 383.889 Q757.786 379.514 760.703 377.292 Q763.643 375.07 769.453 375.07 L775.425 375.07 L775.425 374.653 Q775.425 371.714 773.48 370.116 Q771.559 368.496 768.064 368.496 Q765.842 368.496 763.735 369.028 Q761.629 369.561 759.684 370.626 L759.684 366.69 Q762.022 365.788 764.221 365.348 Q766.42 364.885 768.504 364.885 Q774.129 364.885 776.906 367.802 Q779.684 370.718 779.684 376.644 Z" fill="#000000" fill-rule="nonzero" fill-opacity="1"></path><path clip-path="url(#clip690)" d="M804.985 366.274 L804.985 370.302 Q803.179 369.376 801.235 368.913 Q799.291 368.45 797.207 368.45 Q794.036 368.45 792.439 369.422 Q790.865 370.394 790.865 372.339 Q790.865 373.82 791.999 374.677 Q793.133 375.51 796.559 376.274 L798.017 376.598 Q802.554 377.57 804.453 379.352 Q806.374 381.112 806.374 384.283 Q806.374 387.894 803.503 390.001 Q800.656 392.107 795.656 392.107 Q793.573 392.107 791.304 391.69 Q789.059 391.297 786.559 390.487 L786.559 386.089 Q788.92 387.315 791.212 387.94 Q793.504 388.542 795.749 388.542 Q798.758 388.542 800.378 387.524 Q801.999 386.482 801.999 384.607 Q801.999 382.871 800.818 381.945 Q799.661 381.019 795.703 380.163 L794.221 379.815 Q790.263 378.982 788.504 377.269 Q786.744 375.533 786.744 372.524 Q786.744 368.866 789.337 366.876 Q791.929 364.885 796.698 364.885 Q799.059 364.885 801.142 365.232 Q803.226 365.579 804.985 366.274 Z" fill="#000000" fill-rule="nonzero" fill-opacity="1"></path><path clip-path="url(#clip690)" d="M817.369 358.149 L817.369 365.51 L826.142 365.51 L826.142 368.82 L817.369 368.82 L817.369 382.894 Q817.369 386.065 818.226 386.968 Q819.105 387.871 821.767 387.871 L826.142 387.871 L826.142 391.436 L821.767 391.436 Q816.837 391.436 814.962 389.607 Q813.087 387.755 813.087 382.894 L813.087 368.82 L809.962 368.82 L809.962 365.51 L813.087 365.51 L813.087 358.149 L817.369 358.149 Z" fill="#000000" fill-rule="nonzero" fill-opacity="1"></path><path clip-path="url(#clip690)" d="M850.934 387.547 L850.934 401.297 L846.651 401.297 L846.651 365.51 L850.934 365.51 L850.934 369.445 Q852.276 367.13 854.313 366.019 Q856.374 364.885 859.221 364.885 Q863.943 364.885 866.883 368.635 Q869.846 372.385 869.846 378.496 Q869.846 384.607 866.883 388.357 Q863.943 392.107 859.221 392.107 Q856.374 392.107 854.313 390.996 Q852.276 389.862 850.934 387.547 M865.424 378.496 Q865.424 373.797 863.48 371.135 Q861.559 368.45 858.179 368.45 Q854.799 368.45 852.855 371.135 Q850.934 373.797 850.934 378.496 Q850.934 383.195 852.855 385.88 Q854.799 388.542 858.179 388.542 Q861.559 388.542 863.48 385.88 Q865.424 383.195 865.424 378.496 Z" fill="#000000" fill-rule="nonzero" fill-opacity="1"></path><path clip-path="url(#clip690)" d="M891.929 369.491 Q891.211 369.075 890.355 368.89 Q889.522 368.681 888.503 368.681 Q884.892 368.681 882.947 371.042 Q881.026 373.38 881.026 377.778 L881.026 391.436 L876.744 391.436 L876.744 365.51 L881.026 365.51 L881.026 369.538 Q882.369 367.177 884.522 366.042 Q886.674 364.885 889.753 364.885 Q890.193 364.885 890.725 364.954 Q891.258 365.001 891.906 365.116 L891.929 369.491 Z" fill="#000000" fill-rule="nonzero" fill-opacity="1"></path><path clip-path="url(#clip690)" d="M917.531 377.408 L917.531 379.491 L897.947 379.491 Q898.225 383.889 900.586 386.204 Q902.971 388.496 907.207 388.496 Q909.66 388.496 911.952 387.894 Q914.267 387.292 916.535 386.089 L916.535 390.116 Q914.244 391.088 911.836 391.598 Q909.429 392.107 906.952 392.107 Q900.748 392.107 897.114 388.496 Q893.503 384.885 893.503 378.727 Q893.503 372.362 896.929 368.635 Q900.378 364.885 906.211 364.885 Q911.443 364.885 914.475 368.265 Q917.531 371.621 917.531 377.408 M913.271 376.158 Q913.225 372.663 911.304 370.579 Q909.406 368.496 906.258 368.496 Q902.693 368.496 900.54 370.51 Q898.41 372.524 898.086 376.181 L913.271 376.158 Z" fill="#000000" fill-rule="nonzero" fill-opacity="1"></path><path clip-path="url(#clip690)" d="M941.581 369.445 L941.581 355.417 L945.841 355.417 L945.841 391.436 L941.581 391.436 L941.581 387.547 Q940.239 389.862 938.179 390.996 Q936.142 392.107 933.271 392.107 Q928.572 392.107 925.609 388.357 Q922.669 384.607 922.669 378.496 Q922.669 372.385 925.609 368.635 Q928.572 364.885 933.271 364.885 Q936.142 364.885 938.179 366.019 Q940.239 367.13 941.581 369.445 M927.068 378.496 Q927.068 383.195 928.989 385.88 Q930.933 388.542 934.313 388.542 Q937.693 388.542 939.637 385.88 Q941.581 383.195 941.581 378.496 Q941.581 373.797 939.637 371.135 Q937.693 368.45 934.313 368.45 Q930.933 368.45 928.989 371.135 Q927.068 373.797 927.068 378.496 Z" fill="#000000" fill-rule="nonzero" fill-opacity="1"></path><path clip-path="url(#clip690)" d="M954.614 365.51 L958.873 365.51 L958.873 391.436 L954.614 391.436 L954.614 365.51 M954.614 355.417 L958.873 355.417 L958.873 360.811 L954.614 360.811 L954.614 355.417 Z" fill="#000000" fill-rule="nonzero" fill-opacity="1"></path><path clip-path="url(#clip690)" d="M986.442 366.505 L986.442 370.487 Q984.637 369.491 982.808 369.005 Q981.003 368.496 979.151 368.496 Q975.007 368.496 972.716 371.135 Q970.424 373.751 970.424 378.496 Q970.424 383.241 972.716 385.88 Q975.007 388.496 979.151 388.496 Q981.003 388.496 982.808 388.01 Q984.637 387.501 986.442 386.505 L986.442 390.44 Q984.66 391.274 982.739 391.69 Q980.84 392.107 978.688 392.107 Q972.831 392.107 969.382 388.426 Q965.933 384.746 965.933 378.496 Q965.933 372.153 969.405 368.519 Q972.901 364.885 978.965 364.885 Q980.933 364.885 982.808 365.302 Q984.683 365.695 986.442 366.505 Z" fill="#000000" fill-rule="nonzero" fill-opacity="1"></path><path clip-path="url(#clip690)" d="M998.063 358.149 L998.063 365.51 L1006.84 365.51 L1006.84 368.82 L998.063 368.82 L998.063 382.894 Q998.063 386.065 998.919 386.968 Q999.799 387.871 1002.46 387.871 L1006.84 387.871 L1006.84 391.436 L1002.46 391.436 Q997.53 391.436 995.655 389.607 Q993.78 387.755 993.78 382.894 L993.78 368.82 L990.655 368.82 L990.655 365.51 L993.78 365.51 L993.78 358.149 L998.063 358.149 Z" fill="#000000" fill-rule="nonzero" fill-opacity="1"></path><path clip-path="url(#clip690)" d="M1012.44 365.51 L1016.7 365.51 L1016.7 391.436 L1012.44 391.436 L1012.44 365.51 M1012.44 355.417 L1016.7 355.417 L1016.7 360.811 L1012.44 360.811 L1012.44 355.417 Z" fill="#000000" fill-rule="nonzero" fill-opacity="1"></path><path clip-path="url(#clip690)" d="M1035.65 368.496 Q1032.23 368.496 1030.24 371.181 Q1028.25 373.843 1028.25 378.496 Q1028.25 383.149 1030.22 385.834 Q1032.21 388.496 1035.65 388.496 Q1039.06 388.496 1041.05 385.811 Q1043.04 383.126 1043.04 378.496 Q1043.04 373.89 1041.05 371.204 Q1039.06 368.496 1035.65 368.496 M1035.65 364.885 Q1041.21 364.885 1044.38 368.496 Q1047.55 372.107 1047.55 378.496 Q1047.55 384.862 1044.38 388.496 Q1041.21 392.107 1035.65 392.107 Q1030.08 392.107 1026.91 388.496 Q1023.76 384.862 1023.76 378.496 Q1023.76 372.107 1026.91 368.496 Q1030.08 364.885 1035.65 364.885 Z" fill="#000000" fill-rule="nonzero" fill-opacity="1"></path><path clip-path="url(#clip690)" d="M1076.16 375.788 L1076.16 391.436 L1071.9 391.436 L1071.9 375.927 Q1071.9 372.246 1070.47 370.417 Q1069.03 368.589 1066.16 368.589 Q1062.72 368.589 1060.72 370.788 Q1058.73 372.987 1058.73 376.783 L1058.73 391.436 L1054.45 391.436 L1054.45 365.51 L1058.73 365.51 L1058.73 369.538 Q1060.26 367.2 1062.32 366.042 Q1064.4 364.885 1067.11 364.885 Q1071.58 364.885 1073.87 367.663 Q1076.16 370.417 1076.16 375.788 Z" fill="#000000" fill-rule="nonzero" fill-opacity="1"></path></svg>