<svg xmlns="http://www.w3.org/2000/svg" xmlns:xlink="http://www.w3.org/1999/xlink" width="600" height="400" viewBox="0 0 2400 1600">
<defs>
  <clipPath id="clip070">
    <rect x="0" y="0" width="2400" height="1600"></rect>
  </clipPath>
</defs>
<path clip-path="url(#clip070)" d="M0 1600 L2400 1600 L2400 0 L0 0  Z" fill="#ffffff" fill-rule="evenodd" fill-opacity="1"></path>
<defs>
  <clipPath id="clip071">
    <rect x="480" y="0" width="1681" height="1600"></rect>
  </clipPath>
</defs>
<path clip-path="url(#clip070)" d="M175.445 1423.18 L2352.76 1423.18 L2352.76 123.472 L175.445 123.472  Z" fill="#ffffff" fill-rule="evenodd" fill-opacity="1"></path>
<defs>
  <clipPath id="clip072">
    <rect x="175" y="123" width="2178" height="1301"></rect>
  </clipPath>
</defs>
<polyline clip-path="url(#clip072)" style="stroke:#000000; stroke-linecap:round; stroke-linejoin:round; stroke-width:2; stroke-opacity:0.1; fill:none" points="237.067,1423.18 237.067,123.472 "></polyline>
<polyline clip-path="url(#clip072)" style="stroke:#000000; stroke-linecap:round; stroke-linejoin:round; stroke-width:2; stroke-opacity:0.1; fill:none" points="750.584,1423.18 750.584,123.472 "></polyline>
<polyline clip-path="url(#clip072)" style="stroke:#000000; stroke-linecap:round; stroke-linejoin:round; stroke-width:2; stroke-opacity:0.1; fill:none" points="1264.1,1423.18 1264.1,123.472 "></polyline>
<polyline clip-path="url(#clip072)" style="stroke:#000000; stroke-linecap:round; stroke-linejoin:round; stroke-width:2; stroke-opacity:0.1; fill:none" points="1777.62,1423.18 1777.62,123.472 "></polyline>
<polyline clip-path="url(#clip072)" style="stroke:#000000; stroke-linecap:round; stroke-linejoin:round; stroke-width:2; stroke-opacity:0.1; fill:none" points="2291.13,1423.18 2291.13,123.472 "></polyline>
<polyline clip-path="url(#clip070)" style="stroke:#000000; stroke-linecap:round; stroke-linejoin:round; stroke-width:4; stroke-opacity:1; fill:none" points="175.445,1423.18 2352.76,1423.18 "></polyline>
<polyline clip-path="url(#clip070)" style="stroke:#000000; stroke-linecap:round; stroke-linejoin:round; stroke-width:4; stroke-opacity:1; fill:none" points="237.067,1423.18 237.067,1404.28 "></polyline>
<polyline clip-path="url(#clip070)" style="stroke:#000000; stroke-linecap:round; stroke-linejoin:round; stroke-width:4; stroke-opacity:1; fill:none" points="750.584,1423.18 750.584,1404.28 "></polyline>
<polyline clip-path="url(#clip070)" style="stroke:#000000; stroke-linecap:round; stroke-linejoin:round; stroke-width:4; stroke-opacity:1; fill:none" points="1264.1,1423.18 1264.1,1404.28 "></polyline>
<polyline clip-path="url(#clip070)" style="stroke:#000000; stroke-linecap:round; stroke-linejoin:round; stroke-width:4; stroke-opacity:1; fill:none" points="1777.62,1423.18 1777.62,1404.28 "></polyline>
<polyline clip-path="url(#clip070)" style="stroke:#000000; stroke-linecap:round; stroke-linejoin:round; stroke-width:4; stroke-opacity:1; fill:none" points="2291.13,1423.18 2291.13,1404.28 "></polyline>
<path clip-path="url(#clip070)" d="M199.371 1454.1 Q195.76 1454.1 193.931 1457.66 Q192.125 1461.2 192.125 1468.33 Q192.125 1475.44 193.931 1479.01 Q195.76 1482.55 199.371 1482.55 Q203.005 1482.55 204.81 1479.01 Q206.639 1475.44 206.639 1468.33 Q206.639 1461.2 204.81 1457.66 Q203.005 1454.1 199.371 1454.1 M199.371 1450.39 Q205.181 1450.39 208.236 1455 Q211.315 1459.58 211.315 1468.33 Q211.315 1477.06 208.236 1481.67 Q205.181 1486.25 199.371 1486.25 Q193.56 1486.25 190.482 1481.67 Q187.426 1477.06 187.426 1468.33 Q187.426 1459.58 190.482 1455 Q193.56 1450.39 199.371 1450.39 Z" fill="#000000" fill-rule="nonzero" fill-opacity="1"></path><path clip-path="url(#clip070)" d="M219.533 1479.7 L224.417 1479.7 L224.417 1485.58 L219.533 1485.58 L219.533 1479.7 Z" fill="#000000" fill-rule="nonzero" fill-opacity="1"></path><path clip-path="url(#clip070)" d="M244.602 1454.1 Q240.991 1454.1 239.162 1457.66 Q237.357 1461.2 237.357 1468.33 Q237.357 1475.44 239.162 1479.01 Q240.991 1482.55 244.602 1482.55 Q248.236 1482.55 250.042 1479.01 Q251.87 1475.44 251.87 1468.33 Q251.87 1461.2 250.042 1457.66 Q248.236 1454.1 244.602 1454.1 M244.602 1450.39 Q250.412 1450.39 253.468 1455 Q256.546 1459.58 256.546 1468.33 Q256.546 1477.06 253.468 1481.67 Q250.412 1486.25 244.602 1486.25 Q238.792 1486.25 235.713 1481.67 Q232.658 1477.06 232.658 1468.33 Q232.658 1459.58 235.713 1455 Q238.792 1450.39 244.602 1450.39 Z" fill="#000000" fill-rule="nonzero" fill-opacity="1"></path><path clip-path="url(#clip070)" d="M274.764 1454.1 Q271.153 1454.1 269.324 1457.66 Q267.518 1461.2 267.518 1468.33 Q267.518 1475.44 269.324 1479.01 Q271.153 1482.55 274.764 1482.55 Q278.398 1482.55 280.204 1479.01 Q282.032 1475.44 282.032 1468.33 Q282.032 1461.2 280.204 1457.66 Q278.398 1454.1 274.764 1454.1 M274.764 1450.39 Q280.574 1450.39 283.629 1455 Q286.708 1459.58 286.708 1468.33 Q286.708 1477.06 283.629 1481.67 Q280.574 1486.25 274.764 1486.25 Q268.954 1486.25 265.875 1481.67 Q262.819 1477.06 262.819 1468.33 Q262.819 1459.58 265.875 1455 Q268.954 1450.39 274.764 1450.39 Z" fill="#000000" fill-rule="nonzero" fill-opacity="1"></path><path clip-path="url(#clip070)" d="M713.385 1454.1 Q709.774 1454.1 707.945 1457.66 Q706.14 1461.2 706.14 1468.33 Q706.14 1475.44 707.945 1479.01 Q709.774 1482.55 713.385 1482.55 Q717.019 1482.55 718.825 1479.01 Q720.653 1475.44 720.653 1468.33 Q720.653 1461.2 718.825 1457.66 Q717.019 1454.1 713.385 1454.1 M713.385 1450.39 Q719.195 1450.39 722.251 1455 Q725.329 1459.58 725.329 1468.33 Q725.329 1477.06 722.251 1481.67 Q719.195 1486.25 713.385 1486.25 Q707.575 1486.25 704.496 1481.67 Q701.441 1477.06 701.441 1468.33 Q701.441 1459.58 704.496 1455 Q707.575 1450.39 713.385 1450.39 Z" fill="#000000" fill-rule="nonzero" fill-opacity="1"></path><path clip-path="url(#clip070)" d="M733.547 1479.7 L738.431 1479.7 L738.431 1485.58 L733.547 1485.58 L733.547 1479.7 Z" fill="#000000" fill-rule="nonzero" fill-opacity="1"></path><path clip-path="url(#clip070)" d="M752.644 1481.64 L768.963 1481.64 L768.963 1485.58 L747.019 1485.58 L747.019 1481.64 Q749.681 1478.89 754.264 1474.26 Q758.871 1469.61 760.051 1468.27 Q762.297 1465.74 763.176 1464.01 Q764.079 1462.25 764.079 1460.56 Q764.079 1457.8 762.135 1456.07 Q760.213 1454.33 757.112 1454.33 Q754.913 1454.33 752.459 1455.09 Q750.028 1455.86 747.251 1457.41 L747.251 1452.69 Q750.075 1451.55 752.528 1450.97 Q754.982 1450.39 757.019 1450.39 Q762.389 1450.39 765.584 1453.08 Q768.778 1455.77 768.778 1460.26 Q768.778 1462.39 767.968 1464.31 Q767.181 1466.2 765.075 1468.8 Q764.496 1469.47 761.394 1472.69 Q758.292 1475.88 752.644 1481.64 Z" fill="#000000" fill-rule="nonzero" fill-opacity="1"></path><path clip-path="url(#clip070)" d="M778.824 1451.02 L797.181 1451.02 L797.181 1454.96 L783.107 1454.96 L783.107 1463.43 Q784.125 1463.08 785.144 1462.92 Q786.162 1462.73 787.181 1462.73 Q792.968 1462.73 796.348 1465.9 Q799.727 1469.08 799.727 1474.49 Q799.727 1480.07 796.255 1483.17 Q792.783 1486.25 786.463 1486.25 Q784.287 1486.25 782.019 1485.88 Q779.774 1485.51 777.366 1484.77 L777.366 1480.07 Q779.449 1481.2 781.672 1481.76 Q783.894 1482.32 786.371 1482.32 Q790.375 1482.32 792.713 1480.21 Q795.051 1478.1 795.051 1474.49 Q795.051 1470.88 792.713 1468.77 Q790.375 1466.67 786.371 1466.67 Q784.496 1466.67 782.621 1467.08 Q780.769 1467.5 778.824 1468.38 L778.824 1451.02 Z" fill="#000000" fill-rule="nonzero" fill-opacity="1"></path><path clip-path="url(#clip070)" d="M1226.4 1454.1 Q1222.79 1454.1 1220.96 1457.66 Q1219.16 1461.2 1219.16 1468.33 Q1219.16 1475.44 1220.96 1479.01 Q1222.79 1482.55 1226.4 1482.55 Q1230.04 1482.55 1231.84 1479.01 Q1233.67 1475.44 1233.67 1468.33 Q1233.67 1461.2 1231.84 1457.66 Q1230.04 1454.1 1226.4 1454.1 M1226.4 1450.39 Q1232.21 1450.39 1235.27 1455 Q1238.35 1459.58 1238.35 1468.33 Q1238.35 1477.06 1235.27 1481.67 Q1232.21 1486.25 1226.4 1486.25 Q1220.59 1486.25 1217.52 1481.67 Q1214.46 1477.06 1214.46 1468.33 Q1214.46 1459.58 1217.52 1455 Q1220.59 1450.39 1226.4 1450.39 Z" fill="#000000" fill-rule="nonzero" fill-opacity="1"></path><path clip-path="url(#clip070)" d="M1246.57 1479.7 L1251.45 1479.7 L1251.45 1485.58 L1246.57 1485.58 L1246.57 1479.7 Z" fill="#000000" fill-rule="nonzero" fill-opacity="1"></path><path clip-path="url(#clip070)" d="M1261.68 1451.02 L1280.04 1451.02 L1280.04 1454.96 L1265.96 1454.96 L1265.96 1463.43 Q1266.98 1463.08 1268 1462.92 Q1269.02 1462.73 1270.04 1462.73 Q1275.83 1462.73 1279.2 1465.9 Q1282.58 1469.08 1282.58 1474.49 Q1282.58 1480.07 1279.11 1483.17 Q1275.64 1486.25 1269.32 1486.25 Q1267.14 1486.25 1264.88 1485.88 Q1262.63 1485.51 1260.22 1484.77 L1260.22 1480.07 Q1262.31 1481.2 1264.53 1481.76 Q1266.75 1482.32 1269.23 1482.32 Q1273.23 1482.32 1275.57 1480.21 Q1277.91 1478.1 1277.91 1474.49 Q1277.91 1470.88 1275.57 1468.77 Q1273.23 1466.67 1269.23 1466.67 Q1267.35 1466.67 1265.48 1467.08 Q1263.63 1467.5 1261.68 1468.38 L1261.68 1451.02 Z" fill="#000000" fill-rule="nonzero" fill-opacity="1"></path><path clip-path="url(#clip070)" d="M1301.8 1454.1 Q1298.19 1454.1 1296.36 1457.66 Q1294.55 1461.2 1294.55 1468.33 Q1294.55 1475.44 1296.36 1479.01 Q1298.19 1482.55 1301.8 1482.55 Q1305.43 1482.55 1307.24 1479.01 Q1309.07 1475.44 1309.07 1468.33 Q1309.07 1461.2 1307.24 1457.66 Q1305.43 1454.1 1301.8 1454.1 M1301.8 1450.39 Q1307.61 1450.39 1310.66 1455 Q1313.74 1459.58 1313.74 1468.33 Q1313.74 1477.06 1310.66 1481.67 Q1307.61 1486.25 1301.8 1486.25 Q1295.99 1486.25 1292.91 1481.67 Q1289.85 1477.06 1289.85 1468.33 Q1289.85 1459.58 1292.91 1455 Q1295.99 1450.39 1301.8 1450.39 Z" fill="#000000" fill-rule="nonzero" fill-opacity="1"></path><path clip-path="url(#clip070)" d="M1740.42 1454.1 Q1736.81 1454.1 1734.98 1457.66 Q1733.17 1461.2 1733.17 1468.33 Q1733.17 1475.44 1734.98 1479.01 Q1736.81 1482.55 1740.42 1482.55 Q1744.05 1482.55 1745.86 1479.01 Q1747.69 1475.44 1747.69 1468.33 Q1747.69 1461.2 1745.86 1457.66 Q1744.05 1454.1 1740.42 1454.1 M1740.42 1450.39 Q1746.23 1450.39 1749.28 1455 Q1752.36 1459.58 1752.36 1468.33 Q1752.36 1477.06 1749.28 1481.67 Q1746.23 1486.25 1740.42 1486.25 Q1734.61 1486.25 1731.53 1481.67 Q1728.47 1477.06 1728.47 1468.33 Q1728.47 1459.58 1731.53 1455 Q1734.61 1450.39 1740.42 1450.39 Z" fill="#000000" fill-rule="nonzero" fill-opacity="1"></path><path clip-path="url(#clip070)" d="M1760.58 1479.7 L1765.46 1479.7 L1765.46 1485.58 L1760.58 1485.58 L1760.58 1479.7 Z" fill="#000000" fill-rule="nonzero" fill-opacity="1"></path><path clip-path="url(#clip070)" d="M1774.47 1451.02 L1796.69 1451.02 L1796.69 1453.01 L1784.14 1485.58 L1779.26 1485.58 L1791.07 1454.96 L1774.47 1454.96 L1774.47 1451.02 Z" fill="#000000" fill-rule="nonzero" fill-opacity="1"></path><path clip-path="url(#clip070)" d="M1805.86 1451.02 L1824.21 1451.02 L1824.21 1454.96 L1810.14 1454.96 L1810.14 1463.43 Q1811.16 1463.08 1812.18 1462.92 Q1813.2 1462.73 1814.21 1462.73 Q1820 1462.73 1823.38 1465.9 Q1826.76 1469.08 1826.76 1474.49 Q1826.76 1480.07 1823.29 1483.17 Q1819.82 1486.25 1813.5 1486.25 Q1811.32 1486.25 1809.05 1485.88 Q1806.81 1485.51 1804.4 1484.77 L1804.4 1480.07 Q1806.48 1481.2 1808.71 1481.76 Q1810.93 1482.32 1813.4 1482.32 Q1817.41 1482.32 1819.75 1480.21 Q1822.08 1478.1 1822.08 1474.49 Q1822.08 1470.88 1819.75 1468.77 Q1817.41 1466.67 1813.4 1466.67 Q1811.53 1466.67 1809.65 1467.08 Q1807.8 1467.5 1805.86 1468.38 L1805.86 1451.02 Z" fill="#000000" fill-rule="nonzero" fill-opacity="1"></path><path clip-path="url(#clip070)" d="M2243.21 1481.64 L2250.84 1481.64 L2250.84 1455.28 L2242.53 1456.95 L2242.53 1452.69 L2250.8 1451.02 L2255.47 1451.02 L2255.47 1481.64 L2263.11 1481.64 L2263.11 1485.58 L2243.21 1485.58 L2243.21 1481.64 Z" fill="#000000" fill-rule="nonzero" fill-opacity="1"></path><path clip-path="url(#clip070)" d="M2272.56 1479.7 L2277.44 1479.7 L2277.44 1485.58 L2272.56 1485.58 L2272.56 1479.7 Z" fill="#000000" fill-rule="nonzero" fill-opacity="1"></path><path clip-path="url(#clip070)" d="M2297.63 1454.1 Q2294.02 1454.1 2292.19 1457.66 Q2290.38 1461.2 2290.38 1468.33 Q2290.38 1475.44 2292.19 1479.01 Q2294.02 1482.55 2297.63 1482.55 Q2301.26 1482.55 2303.07 1479.01 Q2304.9 1475.44 2304.9 1468.33 Q2304.9 1461.2 2303.07 1457.66 Q2301.26 1454.1 2297.63 1454.1 M2297.63 1450.39 Q2303.44 1450.39 2306.49 1455 Q2309.57 1459.58 2309.57 1468.33 Q2309.57 1477.06 2306.49 1481.67 Q2303.44 1486.25 2297.63 1486.25 Q2291.82 1486.25 2288.74 1481.67 Q2285.68 1477.06 2285.68 1468.33 Q2285.68 1459.58 2288.74 1455 Q2291.82 1450.39 2297.63 1450.39 Z" fill="#000000" fill-rule="nonzero" fill-opacity="1"></path><path clip-path="url(#clip070)" d="M2327.79 1454.1 Q2324.18 1454.1 2322.35 1457.66 Q2320.54 1461.2 2320.54 1468.33 Q2320.54 1475.44 2322.35 1479.01 Q2324.18 1482.55 2327.79 1482.55 Q2331.42 1482.55 2333.23 1479.01 Q2335.06 1475.44 2335.06 1468.33 Q2335.06 1461.2 2333.23 1457.66 Q2331.42 1454.1 2327.79 1454.1 M2327.79 1450.39 Q2333.6 1450.39 2336.65 1455 Q2339.73 1459.58 2339.73 1468.33 Q2339.73 1477.06 2336.65 1481.67 Q2333.6 1486.25 2327.79 1486.25 Q2321.98 1486.25 2318.9 1481.67 Q2315.84 1477.06 2315.84 1468.33 Q2315.84 1459.58 2318.9 1455 Q2321.98 1450.39 2327.79 1450.39 Z" fill="#000000" fill-rule="nonzero" fill-opacity="1"></path><path clip-path="url(#clip070)" d="M1188.78 1537.87 Q1187.79 1537.3 1186.61 1537.04 Q1185.47 1536.76 1184.07 1536.76 Q1179.1 1536.76 1176.43 1540 Q1173.79 1543.22 1173.79 1549.27 L1173.79 1568.04 L1167.9 1568.04 L1167.9 1532.4 L1173.79 1532.4 L1173.79 1537.93 Q1175.63 1534.69 1178.59 1533.13 Q1181.55 1531.54 1185.79 1531.54 Q1186.39 1531.54 1187.12 1531.63 Q1187.86 1531.7 1188.75 1531.85 L1188.78 1537.87 Z" fill="#000000" fill-rule="nonzero" fill-opacity="1"></path><path clip-path="url(#clip070)" d="M1211.12 1550.12 Q1204.02 1550.12 1201.29 1551.75 Q1198.55 1553.37 1198.55 1557.29 Q1198.55 1560.4 1200.59 1562.25 Q1202.66 1564.07 1206.19 1564.07 Q1211.06 1564.07 1213.99 1560.63 Q1216.95 1557.16 1216.95 1551.43 L1216.95 1550.12 L1211.12 1550.12 M1222.8 1547.71 L1222.8 1568.04 L1216.95 1568.04 L1216.95 1562.63 Q1214.94 1565.88 1211.95 1567.44 Q1208.96 1568.97 1204.63 1568.97 Q1199.15 1568.97 1195.91 1565.91 Q1192.69 1562.82 1192.69 1557.67 Q1192.69 1551.65 1196.7 1548.6 Q1200.75 1545.54 1208.73 1545.54 L1216.95 1545.54 L1216.95 1544.97 Q1216.95 1540.93 1214.27 1538.73 Q1211.63 1536.5 1206.83 1536.5 Q1203.77 1536.5 1200.87 1537.23 Q1197.98 1537.97 1195.3 1539.43 L1195.3 1534.02 Q1198.52 1532.78 1201.54 1532.17 Q1204.57 1531.54 1207.43 1531.54 Q1215.16 1531.54 1218.98 1535.55 Q1222.8 1539.56 1222.8 1547.71 Z" fill="#000000" fill-rule="nonzero" fill-opacity="1"></path><path clip-path="url(#clip070)" d="M1258.32 1537.81 L1258.32 1518.52 L1264.18 1518.52 L1264.18 1568.04 L1258.32 1568.04 L1258.32 1562.7 Q1256.48 1565.88 1253.64 1567.44 Q1250.84 1568.97 1246.9 1568.97 Q1240.44 1568.97 1236.36 1563.81 Q1232.32 1558.65 1232.32 1550.25 Q1232.32 1541.85 1236.36 1536.69 Q1240.44 1531.54 1246.9 1531.54 Q1250.84 1531.54 1253.64 1533.1 Q1256.48 1534.62 1258.32 1537.81 M1238.37 1550.25 Q1238.37 1556.71 1241.01 1560.4 Q1243.68 1564.07 1248.33 1564.07 Q1252.98 1564.07 1255.65 1560.4 Q1258.32 1556.71 1258.32 1550.25 Q1258.32 1543.79 1255.65 1540.13 Q1252.98 1536.44 1248.33 1536.44 Q1243.68 1536.44 1241.01 1540.13 Q1238.37 1543.79 1238.37 1550.25 Z" fill="#000000" fill-rule="nonzero" fill-opacity="1"></path><path clip-path="url(#clip070)" d="M1276.24 1532.4 L1282.1 1532.4 L1282.1 1568.04 L1276.24 1568.04 L1276.24 1532.4 M1276.24 1518.52 L1282.1 1518.52 L1282.1 1525.93 L1276.24 1525.93 L1276.24 1518.52 Z" fill="#000000" fill-rule="nonzero" fill-opacity="1"></path><path clip-path="url(#clip070)" d="M1293.75 1553.98 L1293.75 1532.4 L1299.61 1532.4 L1299.61 1553.75 Q1299.61 1558.81 1301.58 1561.36 Q1303.55 1563.87 1307.5 1563.87 Q1312.24 1563.87 1314.98 1560.85 Q1317.75 1557.83 1317.75 1552.61 L1317.75 1532.4 L1323.6 1532.4 L1323.6 1568.04 L1317.75 1568.04 L1317.75 1562.57 Q1315.62 1565.82 1312.78 1567.41 Q1309.98 1568.97 1306.26 1568.97 Q1300.11 1568.97 1296.93 1565.15 Q1293.75 1561.33 1293.75 1553.98 M1308.49 1531.54 L1308.49 1531.54 Z" fill="#000000" fill-rule="nonzero" fill-opacity="1"></path><path clip-path="url(#clip070)" d="M1358.39 1533.45 L1358.39 1538.98 Q1355.91 1537.71 1353.24 1537.07 Q1350.56 1536.44 1347.7 1536.44 Q1343.34 1536.44 1341.14 1537.77 Q1338.98 1539.11 1338.98 1541.79 Q1338.98 1543.82 1340.54 1545 Q1342.1 1546.15 1346.81 1547.2 L1348.81 1547.64 Q1355.05 1548.98 1357.66 1551.43 Q1360.3 1553.85 1360.3 1558.21 Q1360.3 1563.17 1356.36 1566.07 Q1352.44 1568.97 1345.57 1568.97 Q1342.7 1568.97 1339.58 1568.39 Q1336.49 1567.85 1333.06 1566.74 L1333.06 1560.69 Q1336.3 1562.38 1339.45 1563.24 Q1342.61 1564.07 1345.69 1564.07 Q1349.83 1564.07 1352.06 1562.66 Q1354.29 1561.23 1354.29 1558.65 Q1354.29 1556.27 1352.66 1554.99 Q1351.07 1553.72 1345.63 1552.54 L1343.59 1552.07 Q1338.15 1550.92 1335.73 1548.56 Q1333.31 1546.18 1333.31 1542.04 Q1333.31 1537.01 1336.88 1534.27 Q1340.44 1531.54 1347 1531.54 Q1350.24 1531.54 1353.11 1532.01 Q1355.97 1532.49 1358.39 1533.45 Z" fill="#000000" fill-rule="nonzero" fill-opacity="1"></path><polyline clip-path="url(#clip072)" style="stroke:#000000; stroke-linecap:round; stroke-linejoin:round; stroke-width:2; stroke-opacity:0.1; fill:none" points="175.445,1386.4 2352.76,1386.4 "></polyline>
<polyline clip-path="url(#clip072)" style="stroke:#000000; stroke-linecap:round; stroke-linejoin:round; stroke-width:2; stroke-opacity:0.1; fill:none" points="175.445,1110.53 2352.76,1110.53 "></polyline>
<polyline clip-path="url(#clip072)" style="stroke:#000000; stroke-linecap:round; stroke-linejoin:round; stroke-width:2; stroke-opacity:0.1; fill:none" points="175.445,834.667 2352.76,834.667 "></polyline>
<polyline clip-path="url(#clip072)" style="stroke:#000000; stroke-linecap:round; stroke-linejoin:round; stroke-width:2; stroke-opacity:0.1; fill:none" points="175.445,558.802 2352.76,558.802 "></polyline>
<polyline clip-path="url(#clip072)" style="stroke:#000000; stroke-linecap:round; stroke-linejoin:round; stroke-width:2; stroke-opacity:0.1; fill:none" points="175.445,282.938 2352.76,282.938 "></polyline>
<polyline clip-path="url(#clip070)" style="stroke:#000000; stroke-linecap:round; stroke-linejoin:round; stroke-width:4; stroke-opacity:1; fill:none" points="175.445,1423.18 175.445,123.472 "></polyline>
<polyline clip-path="url(#clip070)" style="stroke:#000000; stroke-linecap:round; stroke-linejoin:round; stroke-width:4; stroke-opacity:1; fill:none" points="175.445,1386.4 194.343,1386.4 "></polyline>
<polyline clip-path="url(#clip070)" style="stroke:#000000; stroke-linecap:round; stroke-linejoin:round; stroke-width:4; stroke-opacity:1; fill:none" points="175.445,1110.53 194.343,1110.53 "></polyline>
<polyline clip-path="url(#clip070)" style="stroke:#000000; stroke-linecap:round; stroke-linejoin:round; stroke-width:4; stroke-opacity:1; fill:none" points="175.445,834.667 194.343,834.667 "></polyline>
<polyline clip-path="url(#clip070)" style="stroke:#000000; stroke-linecap:round; stroke-linejoin:round; stroke-width:4; stroke-opacity:1; fill:none" points="175.445,558.802 194.343,558.802 "></polyline>
<polyline clip-path="url(#clip070)" style="stroke:#000000; stroke-linecap:round; stroke-linejoin:round; stroke-width:4; stroke-opacity:1; fill:none" points="175.445,282.938 194.343,282.938 "></polyline>
<path clip-path="url(#clip070)" d="M127.501 1372.19 Q123.89 1372.19 122.061 1375.76 Q120.255 1379.3 120.255 1386.43 Q120.255 1393.54 122.061 1397.1 Q123.89 1400.64 127.501 1400.64 Q131.135 1400.64 132.941 1397.1 Q134.769 1393.54 134.769 1386.43 Q134.769 1379.3 132.941 1375.76 Q131.135 1372.19 127.501 1372.19 M127.501 1368.49 Q133.311 1368.49 136.367 1373.1 Q139.445 1377.68 139.445 1386.43 Q139.445 1395.16 136.367 1399.76 Q133.311 1404.35 127.501 1404.35 Q121.691 1404.35 118.612 1399.76 Q115.556 1395.16 115.556 1386.43 Q115.556 1377.68 118.612 1373.1 Q121.691 1368.49 127.501 1368.49 Z" fill="#000000" fill-rule="nonzero" fill-opacity="1"></path><path clip-path="url(#clip070)" d="M119.538 1123.88 L127.177 1123.88 L127.177 1097.51 L118.867 1099.18 L118.867 1094.92 L127.13 1093.25 L131.806 1093.25 L131.806 1123.88 L139.445 1123.88 L139.445 1127.81 L119.538 1127.81 L119.538 1123.88 Z" fill="#000000" fill-rule="nonzero" fill-opacity="1"></path><path clip-path="url(#clip070)" d="M123.126 848.012 L139.445 848.012 L139.445 851.947 L117.501 851.947 L117.501 848.012 Q120.163 845.257 124.746 840.627 Q129.353 835.975 130.533 834.632 Q132.779 832.109 133.658 830.373 Q134.561 828.614 134.561 826.924 Q134.561 824.169 132.617 822.433 Q130.695 820.697 127.593 820.697 Q125.394 820.697 122.941 821.461 Q120.51 822.225 117.732 823.776 L117.732 819.053 Q120.556 817.919 123.01 817.34 Q125.464 816.762 127.501 816.762 Q132.871 816.762 136.066 819.447 Q139.26 822.132 139.26 826.623 Q139.26 828.752 138.45 830.674 Q137.663 832.572 135.556 835.164 Q134.978 835.836 131.876 839.053 Q128.774 842.248 123.126 848.012 Z" fill="#000000" fill-rule="nonzero" fill-opacity="1"></path><path clip-path="url(#clip070)" d="M132.316 557.448 Q135.672 558.166 137.547 560.434 Q139.445 562.703 139.445 566.036 Q139.445 571.152 135.927 573.953 Q132.408 576.754 125.927 576.754 Q123.751 576.754 121.436 576.314 Q119.144 575.897 116.691 575.041 L116.691 570.527 Q118.635 571.661 120.95 572.24 Q123.265 572.818 125.788 572.818 Q130.186 572.818 132.478 571.082 Q134.792 569.346 134.792 566.036 Q134.792 562.981 132.64 561.268 Q130.51 559.531 126.691 559.531 L122.663 559.531 L122.663 555.689 L126.876 555.689 Q130.325 555.689 132.154 554.323 Q133.982 552.934 133.982 550.342 Q133.982 547.68 132.084 546.268 Q130.209 544.832 126.691 544.832 Q124.769 544.832 122.57 545.249 Q120.371 545.666 117.732 546.545 L117.732 542.379 Q120.394 541.638 122.709 541.268 Q125.047 540.897 127.107 540.897 Q132.431 540.897 135.533 543.328 Q138.635 545.735 138.635 549.856 Q138.635 552.726 136.992 554.717 Q135.348 556.684 132.316 557.448 Z" fill="#000000" fill-rule="nonzero" fill-opacity="1"></path><path clip-path="url(#clip070)" d="M129.862 269.732 L118.056 288.181 L129.862 288.181 L129.862 269.732 M128.635 265.658 L134.515 265.658 L134.515 288.181 L139.445 288.181 L139.445 292.07 L134.515 292.07 L134.515 300.218 L129.862 300.218 L129.862 292.07 L114.26 292.07 L114.26 287.556 L128.635 265.658 Z" fill="#000000" fill-rule="nonzero" fill-opacity="1"></path><path clip-path="url(#clip070)" d="M35.1993 826.48 Q31.2526 824.283 29.3747 821.228 Q27.4968 818.172 27.4968 814.035 Q27.4968 808.465 31.4117 805.441 Q35.2948 802.417 42.4881 802.417 L64.0042 802.417 L64.0042 808.306 L42.679 808.306 Q37.5546 808.306 35.072 810.12 Q32.5894 811.934 32.5894 815.658 Q32.5894 820.209 35.6131 822.851 Q38.6368 825.493 43.8567 825.493 L64.0042 825.493 L64.0042 831.381 L42.679 831.381 Q37.5228 831.381 35.072 833.195 Q32.5894 835.01 32.5894 838.797 Q32.5894 843.285 35.6449 845.927 Q38.6686 848.569 43.8567 848.569 L64.0042 848.569 L64.0042 854.457 L28.3562 854.457 L28.3562 848.569 L33.8944 848.569 Q30.616 846.563 29.0564 843.763 Q27.4968 840.962 27.4968 837.11 Q27.4968 833.227 29.4702 830.522 Q31.4436 827.785 35.1993 826.48 Z" fill="#000000" fill-rule="nonzero" fill-opacity="1"></path><path clip-path="url(#clip070)" d="M46.0847 774.535 Q46.0847 781.633 47.7079 784.37 Q49.3312 787.108 53.2461 787.108 Q56.3653 787.108 58.2114 785.071 Q60.0256 783.002 60.0256 779.469 Q60.0256 774.599 56.5881 771.671 Q53.1188 768.711 47.3897 768.711 L46.0847 768.711 L46.0847 774.535 M43.6657 762.854 L64.0042 762.854 L64.0042 768.711 L58.5933 768.711 Q61.8398 770.716 63.3994 773.708 Q64.9272 776.7 64.9272 781.028 Q64.9272 786.503 61.8716 789.75 Q58.7843 792.964 53.6281 792.964 Q47.6125 792.964 44.5569 788.954 Q41.5014 784.912 41.5014 776.923 L41.5014 768.711 L40.9285 768.711 Q36.8862 768.711 34.6901 771.384 Q32.4621 774.026 32.4621 778.832 Q32.4621 781.888 33.1941 784.784 Q33.9262 787.681 35.3903 790.354 L29.9795 790.354 Q28.7381 787.14 28.1334 784.116 Q27.4968 781.092 27.4968 778.228 Q27.4968 770.493 31.5072 766.674 Q35.5176 762.854 43.6657 762.854 Z" fill="#000000" fill-rule="nonzero" fill-opacity="1"></path><path clip-path="url(#clip070)" d="M29.4065 728.066 L34.9447 728.066 Q33.6716 730.548 33.035 733.222 Q32.3984 735.896 32.3984 738.76 Q32.3984 743.121 33.7352 745.317 Q35.072 747.481 37.7456 747.481 Q39.7826 747.481 40.9603 745.922 Q42.1061 744.362 43.1565 739.651 L43.6021 737.646 Q44.9389 731.408 47.3897 728.798 Q49.8086 726.156 54.1691 726.156 Q59.1344 726.156 62.0308 730.103 Q64.9272 734.018 64.9272 740.893 Q64.9272 743.757 64.3543 746.876 Q63.8132 749.964 62.6992 753.401 L56.6518 753.401 Q58.3387 750.155 59.198 747.004 Q60.0256 743.853 60.0256 740.765 Q60.0256 736.628 58.6251 734.4 Q57.1929 732.172 54.6147 732.172 Q52.2276 732.172 50.9545 733.795 Q49.6813 735.386 48.5037 740.829 L48.0262 742.866 Q46.8804 748.309 44.5251 750.728 Q42.138 753.147 38.0002 753.147 Q32.9713 753.147 30.2341 749.582 Q27.4968 746.017 27.4968 739.46 Q27.4968 736.214 27.9743 733.349 Q28.4517 730.485 29.4065 728.066 Z" fill="#000000" fill-rule="nonzero" fill-opacity="1"></path><path clip-path="url(#clip070)" d="M29.4065 694.105 L34.9447 694.105 Q33.6716 696.587 33.035 699.261 Q32.3984 701.935 32.3984 704.799 Q32.3984 709.16 33.7352 711.356 Q35.072 713.52 37.7456 713.52 Q39.7826 713.52 40.9603 711.961 Q42.1061 710.401 43.1565 705.69 L43.6021 703.685 Q44.9389 697.447 47.3897 694.837 Q49.8086 692.195 54.1691 692.195 Q59.1344 692.195 62.0308 696.142 Q64.9272 700.057 64.9272 706.932 Q64.9272 709.796 64.3543 712.915 Q63.8132 716.003 62.6992 719.44 L56.6518 719.44 Q58.3387 716.194 59.198 713.043 Q60.0256 709.892 60.0256 706.804 Q60.0256 702.667 58.6251 700.439 Q57.1929 698.211 54.6147 698.211 Q52.2276 698.211 50.9545 699.834 Q49.6813 701.425 48.5037 706.868 L48.0262 708.905 Q46.8804 714.348 44.5251 716.767 Q42.138 719.186 38.0002 719.186 Q32.9713 719.186 30.2341 715.621 Q27.4968 712.056 27.4968 705.499 Q27.4968 702.253 27.9743 699.388 Q28.4517 696.524 29.4065 694.105 Z" fill="#000000" fill-rule="nonzero" fill-opacity="1"></path><path clip-path="url(#clip070)" d="M700.944 12.096 L713.137 12.096 L728.571 53.2532 L744.086 12.096 L756.279 12.096 L756.279 72.576 L748.299 72.576 L748.299 19.4686 L732.703 60.9499 L724.48 60.9499 L708.884 19.4686 L708.884 72.576 L700.944 72.576 L700.944 12.096 Z" fill="#000000" fill-rule="nonzero" fill-opacity="1"></path><path clip-path="url(#clip070)" d="M792.818 49.7694 Q783.785 49.7694 780.301 51.8354 Q776.817 53.9013 776.817 58.8839 Q776.817 62.8538 779.41 65.2034 Q782.043 67.5124 786.539 67.5124 Q792.737 67.5124 796.464 63.1374 Q800.232 58.7219 800.232 51.4303 L800.232 49.7694 L792.818 49.7694 M807.685 46.6907 L807.685 72.576 L800.232 72.576 L800.232 65.6895 Q797.679 69.8214 793.872 71.8063 Q790.064 73.7508 784.555 73.7508 Q777.587 73.7508 773.455 69.8619 Q769.364 65.9325 769.364 59.3701 Q769.364 51.7138 774.468 47.825 Q779.612 43.9361 789.78 43.9361 L800.232 43.9361 L800.232 43.2069 Q800.232 38.0623 796.829 35.2672 Q793.467 32.4315 787.35 32.4315 Q783.461 32.4315 779.774 33.3632 Q776.088 34.295 772.685 36.1584 L772.685 29.2718 Q776.777 27.692 780.625 26.9223 Q784.473 26.1121 788.119 26.1121 Q797.963 26.1121 802.824 31.2163 Q807.685 36.3204 807.685 46.6907 Z" fill="#000000" fill-rule="nonzero" fill-opacity="1"></path><path clip-path="url(#clip070)" d="M851.962 28.5427 L851.962 35.5912 Q848.802 33.9709 845.399 33.1607 Q841.996 32.3505 838.351 32.3505 Q832.801 32.3505 830.006 34.0519 Q827.251 35.7533 827.251 39.156 Q827.251 41.7486 829.236 43.2475 Q831.221 44.7058 837.216 46.0426 L839.768 46.6097 Q847.708 48.3111 851.03 51.4303 Q854.392 54.509 854.392 60.0587 Q854.392 66.3781 849.369 70.0644 Q844.386 73.7508 835.636 73.7508 Q831.991 73.7508 828.021 73.0216 Q824.091 72.3329 819.716 70.9151 L819.716 63.2184 Q823.848 65.3654 827.859 66.4591 Q831.869 67.5124 835.798 67.5124 Q841.065 67.5124 843.9 65.73 Q846.736 63.9071 846.736 60.6258 Q846.736 57.5877 844.67 55.9673 Q842.644 54.3469 835.717 52.8481 L833.125 52.2405 Q826.198 50.7821 823.119 47.7845 Q820.04 44.7463 820.04 39.4801 Q820.04 33.0797 824.577 29.5959 Q829.114 26.1121 837.459 26.1121 Q841.591 26.1121 845.237 26.7198 Q848.883 27.3274 851.962 28.5427 Z" fill="#000000" fill-rule="nonzero" fill-opacity="1"></path><path clip-path="url(#clip070)" d="M895.185 28.5427 L895.185 35.5912 Q892.025 33.9709 888.622 33.1607 Q885.219 32.3505 881.574 32.3505 Q876.024 32.3505 873.229 34.0519 Q870.474 35.7533 870.474 39.156 Q870.474 41.7486 872.459 43.2475 Q874.444 44.7058 880.439 46.0426 L882.991 46.6097 Q890.931 48.3111 894.253 51.4303 Q897.615 54.509 897.615 60.0587 Q897.615 66.3781 892.592 70.0644 Q887.61 73.7508 878.86 73.7508 Q875.214 73.7508 871.244 73.0216 Q867.314 72.3329 862.94 70.9151 L862.94 63.2184 Q867.071 65.3654 871.082 66.4591 Q875.092 67.5124 879.022 67.5124 Q884.288 67.5124 887.123 65.73 Q889.959 63.9071 889.959 60.6258 Q889.959 57.5877 887.893 55.9673 Q885.868 54.3469 878.941 52.8481 L876.348 52.2405 Q869.421 50.7821 866.342 47.7845 Q863.264 44.7463 863.264 39.4801 Q863.264 33.0797 867.801 29.5959 Q872.338 26.1121 880.682 26.1121 Q884.814 26.1121 888.46 26.7198 Q892.106 27.3274 895.185 28.5427 Z" fill="#000000" fill-rule="nonzero" fill-opacity="1"></path><path clip-path="url(#clip070)" d="M931.521 27.2059 L938.975 27.2059 L948.292 62.6108 L957.569 27.2059 L966.359 27.2059 L975.676 62.6108 L984.953 27.2059 L992.406 27.2059 L980.537 72.576 L971.747 72.576 L961.984 35.3887 L952.181 72.576 L943.39 72.576 L931.521 27.2059 Z" fill="#000000" fill-rule="nonzero" fill-opacity="1"></path><path clip-path="url(#clip070)" d="M1003.71 27.2059 L1011.16 27.2059 L1011.16 72.576 L1003.71 72.576 L1003.71 27.2059 M1003.71 9.54393 L1011.16 9.54393 L1011.16 18.9825 L1003.71 18.9825 L1003.71 9.54393 Z" fill="#000000" fill-rule="nonzero" fill-opacity="1"></path><path clip-path="url(#clip070)" d="M1034.13 14.324 L1034.13 27.2059 L1049.48 27.2059 L1049.48 32.9987 L1034.13 32.9987 L1034.13 57.6282 Q1034.13 63.1779 1035.63 64.7578 Q1037.17 66.3376 1041.83 66.3376 L1049.48 66.3376 L1049.48 72.576 L1041.83 72.576 Q1033.2 72.576 1029.92 69.3758 Q1026.64 66.1351 1026.64 57.6282 L1026.64 32.9987 L1021.17 32.9987 L1021.17 27.2059 L1026.64 27.2059 L1026.64 14.324 L1034.13 14.324 Z" fill="#000000" fill-rule="nonzero" fill-opacity="1"></path><path clip-path="url(#clip070)" d="M1097 45.1919 L1097 72.576 L1089.55 72.576 L1089.55 45.4349 Q1089.55 38.994 1087.04 35.7938 Q1084.52 32.5936 1079.5 32.5936 Q1073.47 32.5936 1069.98 36.4419 Q1066.5 40.2903 1066.5 46.9338 L1066.5 72.576 L1059 72.576 L1059 9.54393 L1066.5 9.54393 L1066.5 34.2544 Q1069.17 30.163 1072.78 28.1376 Q1076.42 26.1121 1081.16 26.1121 Q1088.98 26.1121 1092.99 30.9732 Q1097 35.7938 1097 45.1919 Z" fill="#000000" fill-rule="nonzero" fill-opacity="1"></path><path clip-path="url(#clip070)" d="M1164.53 34.1734 Q1163.27 33.4443 1161.77 33.1202 Q1160.32 32.7556 1158.53 32.7556 Q1152.21 32.7556 1148.81 36.8875 Q1145.45 40.9789 1145.45 48.6757 L1145.45 72.576 L1137.96 72.576 L1137.96 27.2059 L1145.45 27.2059 L1145.45 34.2544 Q1147.8 30.1225 1151.57 28.1376 Q1155.33 26.1121 1160.72 26.1121 Q1161.49 26.1121 1162.42 26.2337 Q1163.35 26.3147 1164.49 26.5172 L1164.53 34.1734 Z" fill="#000000" fill-rule="nonzero" fill-opacity="1"></path><path clip-path="url(#clip070)" d="M1209.33 48.0275 L1209.33 51.6733 L1175.06 51.6733 Q1175.55 59.3701 1179.68 63.421 Q1183.85 67.4314 1191.27 67.4314 Q1195.56 67.4314 1199.57 66.3781 Q1203.62 65.3249 1207.59 63.2184 L1207.59 70.267 Q1203.58 71.9684 1199.37 72.8596 Q1195.15 73.7508 1190.82 73.7508 Q1179.96 73.7508 1173.6 67.4314 Q1167.28 61.1119 1167.28 50.3365 Q1167.28 39.1965 1173.28 32.6746 Q1179.32 26.1121 1189.52 26.1121 Q1198.68 26.1121 1203.99 32.0264 Q1209.33 37.9003 1209.33 48.0275 M1201.88 45.84 Q1201.8 39.7232 1198.44 36.0774 Q1195.11 32.4315 1189.6 32.4315 Q1183.37 32.4315 1179.6 35.9558 Q1175.87 39.4801 1175.3 45.8805 L1201.88 45.84 Z" fill="#000000" fill-rule="nonzero" fill-opacity="1"></path><path clip-path="url(#clip070)" d="M1250.49 28.5427 L1250.49 35.5912 Q1247.33 33.9709 1243.93 33.1607 Q1240.52 32.3505 1236.88 32.3505 Q1231.33 32.3505 1228.53 34.0519 Q1225.78 35.7533 1225.78 39.156 Q1225.78 41.7486 1227.76 43.2475 Q1229.75 44.7058 1235.74 46.0426 L1238.3 46.6097 Q1246.24 48.3111 1249.56 51.4303 Q1252.92 54.509 1252.92 60.0587 Q1252.92 66.3781 1247.9 70.0644 Q1242.91 73.7508 1234.16 73.7508 Q1230.52 73.7508 1226.55 73.0216 Q1222.62 72.3329 1218.24 70.9151 L1218.24 63.2184 Q1222.38 65.3654 1226.39 66.4591 Q1230.4 67.5124 1234.33 67.5124 Q1239.59 67.5124 1242.43 65.73 Q1245.26 63.9071 1245.26 60.6258 Q1245.26 57.5877 1243.2 55.9673 Q1241.17 54.3469 1234.25 52.8481 L1231.65 52.2405 Q1224.73 50.7821 1221.65 47.7845 Q1218.57 44.7463 1218.57 39.4801 Q1218.57 33.0797 1223.11 29.5959 Q1227.64 26.1121 1235.99 26.1121 Q1240.12 26.1121 1243.77 26.7198 Q1247.41 27.3274 1250.49 28.5427 Z" fill="#000000" fill-rule="nonzero" fill-opacity="1"></path><path clip-path="url(#clip070)" d="M1272 65.7705 L1272 89.8329 L1264.51 89.8329 L1264.51 27.2059 L1272 27.2059 L1272 34.0924 Q1274.35 30.0415 1277.91 28.0971 Q1281.52 26.1121 1286.5 26.1121 Q1294.77 26.1121 1299.91 32.6746 Q1305.1 39.2371 1305.1 49.9314 Q1305.1 60.6258 1299.91 67.1883 Q1294.77 73.7508 1286.5 73.7508 Q1281.52 73.7508 1277.91 71.8063 Q1274.35 69.8214 1272 65.7705 M1297.36 49.9314 Q1297.36 41.7081 1293.96 37.0496 Q1290.59 32.3505 1284.68 32.3505 Q1278.76 32.3505 1275.36 37.0496 Q1272 41.7081 1272 49.9314 Q1272 58.1548 1275.36 62.8538 Q1278.76 67.5124 1284.68 67.5124 Q1290.59 67.5124 1293.96 62.8538 Q1297.36 58.1548 1297.36 49.9314 Z" fill="#000000" fill-rule="nonzero" fill-opacity="1"></path><path clip-path="url(#clip070)" d="M1356.26 48.0275 L1356.26 51.6733 L1321.99 51.6733 Q1322.47 59.3701 1326.61 63.421 Q1330.78 67.4314 1338.19 67.4314 Q1342.49 67.4314 1346.5 66.3781 Q1350.55 65.3249 1354.52 63.2184 L1354.52 70.267 Q1350.51 71.9684 1346.29 72.8596 Q1342.08 73.7508 1337.75 73.7508 Q1326.89 73.7508 1320.53 67.4314 Q1314.21 61.1119 1314.21 50.3365 Q1314.21 39.1965 1320.21 32.6746 Q1326.24 26.1121 1336.45 26.1121 Q1345.6 26.1121 1350.91 32.0264 Q1356.26 37.9003 1356.26 48.0275 M1348.8 45.84 Q1348.72 39.7232 1345.36 36.0774 Q1342.04 32.4315 1336.53 32.4315 Q1330.29 32.4315 1326.52 35.9558 Q1322.8 39.4801 1322.23 45.8805 L1348.8 45.84 Z" fill="#000000" fill-rule="nonzero" fill-opacity="1"></path><path clip-path="url(#clip070)" d="M1401.14 28.9478 L1401.14 35.9153 Q1397.98 34.1734 1394.78 33.3227 Q1391.62 32.4315 1388.38 32.4315 Q1381.13 32.4315 1377.12 37.0496 Q1373.11 41.6271 1373.11 49.9314 Q1373.11 58.2358 1377.12 62.8538 Q1381.13 67.4314 1388.38 67.4314 Q1391.62 67.4314 1394.78 66.5807 Q1397.98 65.6895 1401.14 63.9476 L1401.14 70.8341 Q1398.02 72.2924 1394.66 73.0216 Q1391.34 73.7508 1387.57 73.7508 Q1377.32 73.7508 1371.29 67.3098 Q1365.25 60.8689 1365.25 49.9314 Q1365.25 38.832 1371.33 32.472 Q1377.44 26.1121 1388.06 26.1121 Q1391.5 26.1121 1394.78 26.8413 Q1398.06 27.5299 1401.14 28.9478 Z" fill="#000000" fill-rule="nonzero" fill-opacity="1"></path><path clip-path="url(#clip070)" d="M1421.48 14.324 L1421.48 27.2059 L1436.83 27.2059 L1436.83 32.9987 L1421.48 32.9987 L1421.48 57.6282 Q1421.48 63.1779 1422.98 64.7578 Q1424.52 66.3376 1429.17 66.3376 L1436.83 66.3376 L1436.83 72.576 L1429.17 72.576 Q1420.55 72.576 1417.27 69.3758 Q1413.98 66.1351 1413.98 57.6282 L1413.98 32.9987 L1408.52 32.9987 L1408.52 27.2059 L1413.98 27.2059 L1413.98 14.324 L1421.48 14.324 Z" fill="#000000" fill-rule="nonzero" fill-opacity="1"></path><path clip-path="url(#clip070)" d="M1480.38 14.324 L1480.38 27.2059 L1495.73 27.2059 L1495.73 32.9987 L1480.38 32.9987 L1480.38 57.6282 Q1480.38 63.1779 1481.88 64.7578 Q1483.42 66.3376 1488.08 66.3376 L1495.73 66.3376 L1495.73 72.576 L1488.08 72.576 Q1479.45 72.576 1476.17 69.3758 Q1472.88 66.1351 1472.88 57.6282 L1472.88 32.9987 L1467.42 32.9987 L1467.42 27.2059 L1472.88 27.2059 L1472.88 14.324 L1480.38 14.324 Z" fill="#000000" fill-rule="nonzero" fill-opacity="1"></path><path clip-path="url(#clip070)" d="M1523.12 32.4315 Q1517.12 32.4315 1513.64 37.1306 Q1510.15 41.7891 1510.15 49.9314 Q1510.15 58.0738 1513.6 62.7728 Q1517.08 67.4314 1523.12 67.4314 Q1529.07 67.4314 1532.55 62.7323 Q1536.04 58.0333 1536.04 49.9314 Q1536.04 41.8701 1532.55 37.1711 Q1529.07 32.4315 1523.12 32.4315 M1523.12 26.1121 Q1532.84 26.1121 1538.39 32.4315 Q1543.94 38.7509 1543.94 49.9314 Q1543.94 61.0714 1538.39 67.4314 Q1532.84 73.7508 1523.12 73.7508 Q1513.35 73.7508 1507.8 67.4314 Q1502.29 61.0714 1502.29 49.9314 Q1502.29 38.7509 1507.8 32.4315 Q1513.35 26.1121 1523.12 26.1121 Z" fill="#000000" fill-rule="nonzero" fill-opacity="1"></path><path clip-path="url(#clip070)" d="M1608.95 34.1734 Q1607.7 33.4443 1606.2 33.1202 Q1604.74 32.7556 1602.96 32.7556 Q1596.64 32.7556 1593.24 36.8875 Q1589.87 40.9789 1589.87 48.6757 L1589.87 72.576 L1582.38 72.576 L1582.38 27.2059 L1589.87 27.2059 L1589.87 34.2544 Q1592.22 30.1225 1595.99 28.1376 Q1599.76 26.1121 1605.15 26.1121 Q1605.92 26.1121 1606.85 26.2337 Q1607.78 26.3147 1608.91 26.5172 L1608.95 34.1734 Z" fill="#000000" fill-rule="nonzero" fill-opacity="1"></path><path clip-path="url(#clip070)" d="M1637.39 49.7694 Q1628.36 49.7694 1624.87 51.8354 Q1621.39 53.9013 1621.39 58.8839 Q1621.39 62.8538 1623.98 65.2034 Q1626.62 67.5124 1631.11 67.5124 Q1637.31 67.5124 1641.04 63.1374 Q1644.8 58.7219 1644.8 51.4303 L1644.8 49.7694 L1637.39 49.7694 M1652.26 46.6907 L1652.26 72.576 L1644.8 72.576 L1644.8 65.6895 Q1642.25 69.8214 1638.44 71.8063 Q1634.64 73.7508 1629.13 73.7508 Q1622.16 73.7508 1618.03 69.8619 Q1613.94 65.9325 1613.94 59.3701 Q1613.94 51.7138 1619.04 47.825 Q1624.19 43.9361 1634.35 43.9361 L1644.8 43.9361 L1644.8 43.2069 Q1644.8 38.0623 1641.4 35.2672 Q1638.04 32.4315 1631.92 32.4315 Q1628.03 32.4315 1624.35 33.3632 Q1620.66 34.295 1617.26 36.1584 L1617.26 29.2718 Q1621.35 27.692 1625.2 26.9223 Q1629.05 26.1121 1632.69 26.1121 Q1642.54 26.1121 1647.4 31.2163 Q1652.26 36.3204 1652.26 46.6907 Z" fill="#000000" fill-rule="nonzero" fill-opacity="1"></path><path clip-path="url(#clip070)" d="M1697.47 34.0924 L1697.47 9.54393 L1704.92 9.54393 L1704.92 72.576 L1697.47 72.576 L1697.47 65.7705 Q1695.12 69.8214 1691.51 71.8063 Q1687.95 73.7508 1682.92 73.7508 Q1674.7 73.7508 1669.52 67.1883 Q1664.37 60.6258 1664.37 49.9314 Q1664.37 39.2371 1669.52 32.6746 Q1674.7 26.1121 1682.92 26.1121 Q1687.95 26.1121 1691.51 28.0971 Q1695.12 30.0415 1697.47 34.0924 M1672.07 49.9314 Q1672.07 58.1548 1675.43 62.8538 Q1678.83 67.5124 1684.75 67.5124 Q1690.66 67.5124 1694.06 62.8538 Q1697.47 58.1548 1697.47 49.9314 Q1697.47 41.7081 1694.06 37.0496 Q1690.66 32.3505 1684.75 32.3505 Q1678.83 32.3505 1675.43 37.0496 Q1672.07 41.7081 1672.07 49.9314 Z" fill="#000000" fill-rule="nonzero" fill-opacity="1"></path><path clip-path="url(#clip070)" d="M1720.27 27.2059 L1727.73 27.2059 L1727.73 72.576 L1720.27 72.576 L1720.27 27.2059 M1720.27 9.54393 L1727.73 9.54393 L1727.73 18.9825 L1720.27 18.9825 L1720.27 9.54393 Z" fill="#000000" fill-rule="nonzero" fill-opacity="1"></path><path clip-path="url(#clip070)" d="M1742.55 54.671 L1742.55 27.2059 L1750.01 27.2059 L1750.01 54.3874 Q1750.01 60.8284 1752.52 64.0691 Q1755.03 67.2693 1760.05 67.2693 Q1766.09 67.2693 1769.57 63.421 Q1773.1 59.5726 1773.1 52.9291 L1773.1 27.2059 L1780.55 27.2059 L1780.55 72.576 L1773.1 72.576 L1773.1 65.6084 Q1770.38 69.7404 1766.78 71.7658 Q1763.21 73.7508 1758.47 73.7508 Q1750.65 73.7508 1746.6 68.8897 Q1742.55 64.0286 1742.55 54.671 M1761.31 26.1121 L1761.31 26.1121 Z" fill="#000000" fill-rule="nonzero" fill-opacity="1"></path><path clip-path="url(#clip070)" d="M1824.83 28.5427 L1824.83 35.5912 Q1821.67 33.9709 1818.26 33.1607 Q1814.86 32.3505 1811.22 32.3505 Q1805.67 32.3505 1802.87 34.0519 Q1800.12 35.7533 1800.12 39.156 Q1800.12 41.7486 1802.1 43.2475 Q1804.09 44.7058 1810.08 46.0426 L1812.63 46.6097 Q1820.57 48.3111 1823.9 51.4303 Q1827.26 54.509 1827.26 60.0587 Q1827.26 66.3781 1822.23 70.0644 Q1817.25 73.7508 1808.5 73.7508 Q1804.86 73.7508 1800.89 73.0216 Q1796.96 72.3329 1792.58 70.9151 L1792.58 63.2184 Q1796.71 65.3654 1800.72 66.4591 Q1804.73 67.5124 1808.66 67.5124 Q1813.93 67.5124 1816.77 65.73 Q1819.6 63.9071 1819.6 60.6258 Q1819.6 57.5877 1817.54 55.9673 Q1815.51 54.3469 1808.58 52.8481 L1805.99 52.2405 Q1799.06 50.7821 1795.98 47.7845 Q1792.91 44.7463 1792.91 39.4801 Q1792.91 33.0797 1797.44 29.5959 Q1801.98 26.1121 1810.32 26.1121 Q1814.46 26.1121 1818.1 26.7198 Q1821.75 27.3274 1824.83 28.5427 Z" fill="#000000" fill-rule="nonzero" fill-opacity="1"></path><circle clip-path="url(#clip072)" cx="237.067" cy="1386.4" r="14.4" fill="#0000ff" fill-rule="evenodd" fill-opacity="1" stroke="#000000" stroke-opacity="1" stroke-width="3.2"></circle>
<circle clip-path="url(#clip072)" cx="307.897" cy="1386.35" r="14.4" fill="#0000ff" fill-rule="evenodd" fill-opacity="1" stroke="#000000" stroke-opacity="1" stroke-width="3.2"></circle>
<circle clip-path="url(#clip072)" cx="378.727" cy="1386.02" r="14.4" fill="#0000ff" fill-rule="evenodd" fill-opacity="1" stroke="#000000" stroke-opacity="1" stroke-width="3.2"></circle>
<circle clip-path="url(#clip072)" cx="449.557" cy="1385.12" r="14.4" fill="#0000ff" fill-rule="evenodd" fill-opacity="1" stroke="#000000" stroke-opacity="1" stroke-width="3.2"></circle>
<circle clip-path="url(#clip072)" cx="520.387" cy="1383.36" r="14.4" fill="#0000ff" fill-rule="evenodd" fill-opacity="1" stroke="#000000" stroke-opacity="1" stroke-width="3.2"></circle>
<circle clip-path="url(#clip072)" cx="591.217" cy="1380.47" r="14.4" fill="#0000ff" fill-rule="evenodd" fill-opacity="1" stroke="#000000" stroke-opacity="1" stroke-width="3.2"></circle>
<circle clip-path="url(#clip072)" cx="662.047" cy="1376.16" r="14.4" fill="#0000ff" fill-rule="evenodd" fill-opacity="1" stroke="#000000" stroke-opacity="1" stroke-width="3.2"></circle>
<circle clip-path="url(#clip072)" cx="732.876" cy="1370.14" r="14.4" fill="#0000ff" fill-rule="evenodd" fill-opacity="1" stroke="#000000" stroke-opacity="1" stroke-width="3.2"></circle>
<circle clip-path="url(#clip072)" cx="803.706" cy="1362.14" r="14.4" fill="#0000ff" fill-rule="evenodd" fill-opacity="1" stroke="#000000" stroke-opacity="1" stroke-width="3.2"></circle>
<circle clip-path="url(#clip072)" cx="874.536" cy="1351.86" r="14.4" fill="#0000ff" fill-rule="evenodd" fill-opacity="1" stroke="#000000" stroke-opacity="1" stroke-width="3.2"></circle>
<circle clip-path="url(#clip072)" cx="945.366" cy="1339.02" r="14.4" fill="#0000ff" fill-rule="evenodd" fill-opacity="1" stroke="#000000" stroke-opacity="1" stroke-width="3.2"></circle>
<circle clip-path="url(#clip072)" cx="1016.2" cy="1323.33" r="14.4" fill="#0000ff" fill-rule="evenodd" fill-opacity="1" stroke="#000000" stroke-opacity="1" stroke-width="3.2"></circle>
<circle clip-path="url(#clip072)" cx="1087.03" cy="1304.52" r="14.4" fill="#0000ff" fill-rule="evenodd" fill-opacity="1" stroke="#000000" stroke-opacity="1" stroke-width="3.2"></circle>
<circle clip-path="url(#clip072)" cx="1157.86" cy="1282.3" r="14.4" fill="#0000ff" fill-rule="evenodd" fill-opacity="1" stroke="#000000" stroke-opacity="1" stroke-width="3.2"></circle>
<circle clip-path="url(#clip072)" cx="1228.69" cy="1256.39" r="14.4" fill="#0000ff" fill-rule="evenodd" fill-opacity="1" stroke="#000000" stroke-opacity="1" stroke-width="3.2"></circle>
<circle clip-path="url(#clip072)" cx="1299.52" cy="1226.49" r="14.4" fill="#0000ff" fill-rule="evenodd" fill-opacity="1" stroke="#000000" stroke-opacity="1" stroke-width="3.2"></circle>
<circle clip-path="url(#clip072)" cx="1370.35" cy="1192.33" r="14.4" fill="#0000ff" fill-rule="evenodd" fill-opacity="1" stroke="#000000" stroke-opacity="1" stroke-width="3.2"></circle>
<circle clip-path="url(#clip072)" cx="1441.18" cy="1153.62" r="14.4" fill="#0000ff" fill-rule="evenodd" fill-opacity="1" stroke="#000000" stroke-opacity="1" stroke-width="3.2"></circle>
<circle clip-path="url(#clip072)" cx="1512.01" cy="1110.08" r="14.4" fill="#0000ff" fill-rule="evenodd" fill-opacity="1" stroke="#000000" stroke-opacity="1" stroke-width="3.2"></circle>
<circle clip-path="url(#clip072)" cx="1582.84" cy="1061.42" r="14.4" fill="#0000ff" fill-rule="evenodd" fill-opacity="1" stroke="#000000" stroke-opacity="1" stroke-width="3.2"></circle>
<circle clip-path="url(#clip072)" cx="1653.66" cy="1007.36" r="14.4" fill="#0000ff" fill-rule="evenodd" fill-opacity="1" stroke="#000000" stroke-opacity="1" stroke-width="3.2"></circle>
<circle clip-path="url(#clip072)" cx="1724.49" cy="947.614" r="14.4" fill="#ff0000" fill-rule="evenodd" fill-opacity="1" stroke="#000000" stroke-opacity="1" stroke-width="3.2"></circle>
<circle clip-path="url(#clip072)" cx="1795.32" cy="881.899" r="14.4" fill="#ff0000" fill-rule="evenodd" fill-opacity="1" stroke="#000000" stroke-opacity="1" stroke-width="3.2"></circle>
<circle clip-path="url(#clip072)" cx="1866.15" cy="809.929" r="14.4" fill="#ff0000" fill-rule="evenodd" fill-opacity="1" stroke="#000000" stroke-opacity="1" stroke-width="3.2"></circle>
<circle clip-path="url(#clip072)" cx="1936.98" cy="731.422" r="14.4" fill="#ff0000" fill-rule="evenodd" fill-opacity="1" stroke="#000000" stroke-opacity="1" stroke-width="3.2"></circle>
<circle clip-path="url(#clip072)" cx="2007.81" cy="646.091" r="14.4" fill="#ff0000" fill-rule="evenodd" fill-opacity="1" stroke="#000000" stroke-opacity="1" stroke-width="3.2"></circle>
<circle clip-path="url(#clip072)" cx="2078.64" cy="553.654" r="14.4" fill="#ff0000" fill-rule="evenodd" fill-opacity="1" stroke="#000000" stroke-opacity="1" stroke-width="3.2"></circle>
<circle clip-path="url(#clip072)" cx="2149.47" cy="453.825" r="14.4" fill="#ff0000" fill-rule="evenodd" fill-opacity="1" stroke="#000000" stroke-opacity="1" stroke-width="3.2"></circle>
<circle clip-path="url(#clip072)" cx="2220.3" cy="346.321" r="14.4" fill="#ff0000" fill-rule="evenodd" fill-opacity="1" stroke="#000000" stroke-opacity="1" stroke-width="3.2"></circle>
<circle clip-path="url(#clip072)" cx="2291.13" cy="230.857" r="14.4" fill="#ff0000" fill-rule="evenodd" fill-opacity="1" stroke="#000000" stroke-opacity="1" stroke-width="3.2"></circle>
<polyline clip-path="url(#clip072)" style="stroke:#0000ff; stroke-linecap:round; stroke-linejoin:round; stroke-width:4; stroke-opacity:1; fill:none" points="237.067,1386.4 307.897,1385.13 378.727,1383.76 449.557,1381.99 520.387,1379.66 591.217,1376.62 662.047,1372.64 732.876,1367.44 803.706,1360.65 874.536,1351.77 945.366,1340.18 1016.2,1325.15 1087.03,1306.1 1157.86,1283.05 1228.69,1256.08 1299.52,1225.73 1370.35,1191.62 1441.18,1153.26 1512.01,1110.12 1582.84,1061.63 1653.66,1007.12 "></polyline>
<polyline clip-path="url(#clip072)" style="stroke:#ff0000; stroke-linecap:round; stroke-linejoin:round; stroke-width:4; stroke-opacity:1; fill:none" points="1724.49,945.968 1795.32,877.78 1866.15,802.339 1936.98,719.334 2007.81,627.945 2078.64,527.324 2149.47,416.536 2220.3,294.557 2291.13,160.256 "></polyline>
<path clip-path="url(#clip070)" d="M248.022 425.996 L1027.35 425.996 L1027.35 166.796 L248.022 166.796  Z" fill="#ffffff" fill-rule="evenodd" fill-opacity="1"></path>
<polyline clip-path="url(#clip070)" style="stroke:#000000; stroke-linecap:round; stroke-linejoin:round; stroke-width:4; stroke-opacity:1; fill:none" points="248.022,425.996 1027.35,425.996 1027.35,166.796 248.022,166.796 248.022,425.996 "></polyline>
<circle clip-path="url(#clip070)" cx="344.792" cy="218.636" r="20.48" fill="#0000ff" fill-rule="evenodd" fill-opacity="1" stroke="#000000" stroke-opacity="1" stroke-width="4.55111"></circle>
<path clip-path="url(#clip070)" d="M467.116 230.985 L467.116 221.703 L459.478 221.703 L459.478 217.86 L471.746 217.86 L471.746 232.698 Q469.038 234.619 465.774 235.615 Q462.51 236.587 458.806 236.587 Q450.704 236.587 446.121 231.865 Q441.561 227.119 441.561 218.67 Q441.561 210.198 446.121 205.476 Q450.704 200.731 458.806 200.731 Q462.186 200.731 465.218 201.564 Q468.274 202.397 470.843 204.018 L470.843 208.995 Q468.251 206.796 465.334 205.684 Q462.417 204.573 459.2 204.573 Q452.857 204.573 449.663 208.115 Q446.491 211.657 446.491 218.67 Q446.491 225.661 449.663 229.203 Q452.857 232.744 459.2 232.744 Q461.677 232.744 463.621 232.328 Q465.565 231.888 467.116 230.985 Z" fill="#000000" fill-rule="nonzero" fill-opacity="1"></path><path clip-path="url(#clip070)" d="M495.125 213.971 Q494.408 213.555 493.551 213.37 Q492.718 213.161 491.7 213.161 Q488.088 213.161 486.144 215.522 Q484.223 217.86 484.223 222.258 L484.223 235.916 L479.94 235.916 L479.94 209.99 L484.223 209.99 L484.223 214.018 Q485.565 211.657 487.718 210.522 Q489.871 209.365 492.95 209.365 Q493.389 209.365 493.922 209.434 Q494.454 209.481 495.102 209.596 L495.125 213.971 Z" fill="#000000" fill-rule="nonzero" fill-opacity="1"></path><path clip-path="url(#clip070)" d="M508.598 212.976 Q505.172 212.976 503.181 215.661 Q501.19 218.323 501.19 222.976 Q501.19 227.629 503.158 230.314 Q505.149 232.976 508.598 232.976 Q512 232.976 513.991 230.291 Q515.982 227.606 515.982 222.976 Q515.982 218.37 513.991 215.684 Q512 212.976 508.598 212.976 M508.598 209.365 Q514.153 209.365 517.324 212.976 Q520.496 216.587 520.496 222.976 Q520.496 229.342 517.324 232.976 Q514.153 236.587 508.598 236.587 Q503.019 236.587 499.848 232.976 Q496.7 229.342 496.7 222.976 Q496.7 216.587 499.848 212.976 Q503.019 209.365 508.598 209.365 Z" fill="#000000" fill-rule="nonzero" fill-opacity="1"></path><path clip-path="url(#clip070)" d="M527.116 225.684 L527.116 209.99 L531.375 209.99 L531.375 225.522 Q531.375 229.203 532.81 231.055 Q534.246 232.883 537.116 232.883 Q540.565 232.883 542.556 230.684 Q544.57 228.485 544.57 224.689 L544.57 209.99 L548.829 209.99 L548.829 235.916 L544.57 235.916 L544.57 231.934 Q543.019 234.295 540.959 235.453 Q538.922 236.587 536.213 236.587 Q531.746 236.587 529.431 233.809 Q527.116 231.031 527.116 225.684 M537.834 209.365 L537.834 209.365 Z" fill="#000000" fill-rule="nonzero" fill-opacity="1"></path><path clip-path="url(#clip070)" d="M579.153 220.268 L579.153 235.916 L574.894 235.916 L574.894 220.407 Q574.894 216.726 573.458 214.897 Q572.023 213.069 569.153 213.069 Q565.704 213.069 563.713 215.268 Q561.722 217.467 561.722 221.263 L561.722 235.916 L557.44 235.916 L557.44 209.99 L561.722 209.99 L561.722 214.018 Q563.25 211.68 565.31 210.522 Q567.394 209.365 570.102 209.365 Q574.57 209.365 576.861 212.143 Q579.153 214.897 579.153 220.268 Z" fill="#000000" fill-rule="nonzero" fill-opacity="1"></path><path clip-path="url(#clip070)" d="M604.708 213.925 L604.708 199.897 L608.967 199.897 L608.967 235.916 L604.708 235.916 L604.708 232.027 Q603.366 234.342 601.305 235.476 Q599.268 236.587 596.398 236.587 Q591.699 236.587 588.736 232.837 Q585.796 229.087 585.796 222.976 Q585.796 216.865 588.736 213.115 Q591.699 209.365 596.398 209.365 Q599.268 209.365 601.305 210.499 Q603.366 211.61 604.708 213.925 M590.194 222.976 Q590.194 227.675 592.116 230.36 Q594.06 233.022 597.44 233.022 Q600.819 233.022 602.764 230.36 Q604.708 227.675 604.708 222.976 Q604.708 218.277 602.764 215.615 Q600.819 212.93 597.44 212.93 Q594.06 212.93 592.116 215.615 Q590.194 218.277 590.194 222.976 Z" fill="#000000" fill-rule="nonzero" fill-opacity="1"></path><path clip-path="url(#clip070)" d="M637.023 202.629 L637.023 209.99 L645.796 209.99 L645.796 213.3 L637.023 213.3 L637.023 227.374 Q637.023 230.545 637.879 231.448 Q638.759 232.351 641.421 232.351 L645.796 232.351 L645.796 235.916 L641.421 235.916 Q636.49 235.916 634.615 234.087 Q632.74 232.235 632.74 227.374 L632.74 213.3 L629.616 213.3 L629.616 209.99 L632.74 209.99 L632.74 202.629 L637.023 202.629 Z" fill="#000000" fill-rule="nonzero" fill-opacity="1"></path><path clip-path="url(#clip070)" d="M666.421 213.971 Q665.703 213.555 664.847 213.37 Q664.013 213.161 662.995 213.161 Q659.384 213.161 657.439 215.522 Q655.518 217.86 655.518 222.258 L655.518 235.916 L651.236 235.916 L651.236 209.99 L655.518 209.99 L655.518 214.018 Q656.861 211.657 659.013 210.522 Q661.166 209.365 664.245 209.365 Q664.685 209.365 665.217 209.434 Q665.75 209.481 666.398 209.596 L666.421 213.971 Z" fill="#000000" fill-rule="nonzero" fill-opacity="1"></path><path clip-path="url(#clip070)" d="M670.449 225.684 L670.449 209.99 L674.708 209.99 L674.708 225.522 Q674.708 229.203 676.143 231.055 Q677.578 232.883 680.449 232.883 Q683.898 232.883 685.888 230.684 Q687.902 228.485 687.902 224.689 L687.902 209.99 L692.161 209.99 L692.161 235.916 L687.902 235.916 L687.902 231.934 Q686.351 234.295 684.291 235.453 Q682.254 236.587 679.546 236.587 Q675.078 236.587 672.763 233.809 Q670.449 231.031 670.449 225.684 M681.166 209.365 L681.166 209.365 Z" fill="#000000" fill-rule="nonzero" fill-opacity="1"></path><path clip-path="url(#clip070)" d="M705.148 202.629 L705.148 209.99 L713.921 209.99 L713.921 213.3 L705.148 213.3 L705.148 227.374 Q705.148 230.545 706.004 231.448 Q706.884 232.351 709.546 232.351 L713.921 232.351 L713.921 235.916 L709.546 235.916 Q704.615 235.916 702.74 234.087 Q700.865 232.235 700.865 227.374 L700.865 213.3 L697.74 213.3 L697.74 209.99 L700.865 209.99 L700.865 202.629 L705.148 202.629 Z" fill="#000000" fill-rule="nonzero" fill-opacity="1"></path><path clip-path="url(#clip070)" d="M741.073 220.268 L741.073 235.916 L736.814 235.916 L736.814 220.407 Q736.814 216.726 735.379 214.897 Q733.944 213.069 731.073 213.069 Q727.624 213.069 725.634 215.268 Q723.643 217.467 723.643 221.263 L723.643 235.916 L719.36 235.916 L719.36 199.897 L723.643 199.897 L723.643 214.018 Q725.171 211.68 727.231 210.522 Q729.314 209.365 732.022 209.365 Q736.49 209.365 738.782 212.143 Q741.073 214.897 741.073 220.268 Z" fill="#000000" fill-rule="nonzero" fill-opacity="1"></path><path clip-path="url(#clip070)" d="M781.698 213.925 L781.698 199.897 L785.957 199.897 L785.957 235.916 L781.698 235.916 L781.698 232.027 Q780.355 234.342 778.295 235.476 Q776.258 236.587 773.388 236.587 Q768.689 236.587 765.726 232.837 Q762.786 229.087 762.786 222.976 Q762.786 216.865 765.726 213.115 Q768.689 209.365 773.388 209.365 Q776.258 209.365 778.295 210.499 Q780.355 211.61 781.698 213.925 M767.184 222.976 Q767.184 227.675 769.106 230.36 Q771.05 233.022 774.43 233.022 Q777.809 233.022 779.754 230.36 Q781.698 227.675 781.698 222.976 Q781.698 218.277 779.754 215.615 Q777.809 212.93 774.43 212.93 Q771.05 212.93 769.106 215.615 Q767.184 218.277 767.184 222.976 Z" fill="#000000" fill-rule="nonzero" fill-opacity="1"></path><path clip-path="url(#clip070)" d="M806.513 222.883 Q801.351 222.883 799.36 224.064 Q797.369 225.244 797.369 228.092 Q797.369 230.36 798.851 231.703 Q800.355 233.022 802.925 233.022 Q806.466 233.022 808.596 230.522 Q810.749 227.999 810.749 223.832 L810.749 222.883 L806.513 222.883 M815.008 221.124 L815.008 235.916 L810.749 235.916 L810.749 231.981 Q809.29 234.342 807.115 235.476 Q804.939 236.587 801.791 236.587 Q797.809 236.587 795.448 234.365 Q793.11 232.119 793.11 228.369 Q793.11 223.994 796.027 221.772 Q798.966 219.55 804.777 219.55 L810.749 219.55 L810.749 219.133 Q810.749 216.194 808.804 214.596 Q806.883 212.976 803.388 212.976 Q801.166 212.976 799.059 213.508 Q796.953 214.041 795.008 215.106 L795.008 211.17 Q797.346 210.268 799.545 209.828 Q801.744 209.365 803.828 209.365 Q809.453 209.365 812.23 212.282 Q815.008 215.198 815.008 221.124 Z" fill="#000000" fill-rule="nonzero" fill-opacity="1"></path><path clip-path="url(#clip070)" d="M827.994 202.629 L827.994 209.99 L836.767 209.99 L836.767 213.3 L827.994 213.3 L827.994 227.374 Q827.994 230.545 828.851 231.448 Q829.73 232.351 832.392 232.351 L836.767 232.351 L836.767 235.916 L832.392 235.916 Q827.462 235.916 825.587 234.087 Q823.712 232.235 823.712 227.374 L823.712 213.3 L820.587 213.3 L820.587 209.99 L823.712 209.99 L823.712 202.629 L827.994 202.629 Z" fill="#000000" fill-rule="nonzero" fill-opacity="1"></path><path clip-path="url(#clip070)" d="M854.151 222.883 Q848.989 222.883 846.999 224.064 Q845.008 225.244 845.008 228.092 Q845.008 230.36 846.489 231.703 Q847.994 233.022 850.563 233.022 Q854.105 233.022 856.235 230.522 Q858.387 227.999 858.387 223.832 L858.387 222.883 L854.151 222.883 M862.647 221.124 L862.647 235.916 L858.387 235.916 L858.387 231.981 Q856.929 234.342 854.753 235.476 Q852.577 236.587 849.429 236.587 Q845.448 236.587 843.087 234.365 Q840.749 232.119 840.749 228.369 Q840.749 223.994 843.665 221.772 Q846.605 219.55 852.415 219.55 L858.387 219.55 L858.387 219.133 Q858.387 216.194 856.443 214.596 Q854.522 212.976 851.026 212.976 Q848.804 212.976 846.698 213.508 Q844.591 214.041 842.647 215.106 L842.647 211.17 Q844.985 210.268 847.184 209.828 Q849.383 209.365 851.466 209.365 Q857.091 209.365 859.869 212.282 Q862.647 215.198 862.647 221.124 Z" fill="#000000" fill-rule="nonzero" fill-opacity="1"></path><circle clip-path="url(#clip070)" cx="344.792" cy="270.476" r="20.48" fill="#ff0000" fill-rule="evenodd" fill-opacity="1" stroke="#000000" stroke-opacity="1" stroke-width="4.55111"></circle>
<path clip-path="url(#clip070)" d="M467.116 282.825 L467.116 273.543 L459.478 273.543 L459.478 269.7 L471.746 269.7 L471.746 284.538 Q469.038 286.459 465.774 287.455 Q462.51 288.427 458.806 288.427 Q450.704 288.427 446.121 283.705 Q441.561 278.959 441.561 270.51 Q441.561 262.038 446.121 257.316 Q450.704 252.571 458.806 252.571 Q462.186 252.571 465.218 253.404 Q468.274 254.237 470.843 255.858 L470.843 260.835 Q468.251 258.636 465.334 257.524 Q462.417 256.413 459.2 256.413 Q452.857 256.413 449.663 259.955 Q446.491 263.497 446.491 270.51 Q446.491 277.501 449.663 281.043 Q452.857 284.584 459.2 284.584 Q461.677 284.584 463.621 284.168 Q465.565 283.728 467.116 282.825 Z" fill="#000000" fill-rule="nonzero" fill-opacity="1"></path><path clip-path="url(#clip070)" d="M495.125 265.811 Q494.408 265.395 493.551 265.21 Q492.718 265.001 491.7 265.001 Q488.088 265.001 486.144 267.362 Q484.223 269.7 484.223 274.098 L484.223 287.756 L479.94 287.756 L479.94 261.83 L484.223 261.83 L484.223 265.858 Q485.565 263.497 487.718 262.362 Q489.871 261.205 492.95 261.205 Q493.389 261.205 493.922 261.274 Q494.454 261.321 495.102 261.436 L495.125 265.811 Z" fill="#000000" fill-rule="nonzero" fill-opacity="1"></path><path clip-path="url(#clip070)" d="M508.598 264.816 Q505.172 264.816 503.181 267.501 Q501.19 270.163 501.19 274.816 Q501.19 279.469 503.158 282.154 Q505.149 284.816 508.598 284.816 Q512 284.816 513.991 282.131 Q515.982 279.446 515.982 274.816 Q515.982 270.21 513.991 267.524 Q512 264.816 508.598 264.816 M508.598 261.205 Q514.153 261.205 517.324 264.816 Q520.496 268.427 520.496 274.816 Q520.496 281.182 517.324 284.816 Q514.153 288.427 508.598 288.427 Q503.019 288.427 499.848 284.816 Q496.7 281.182 496.7 274.816 Q496.7 268.427 499.848 264.816 Q503.019 261.205 508.598 261.205 Z" fill="#000000" fill-rule="nonzero" fill-opacity="1"></path><path clip-path="url(#clip070)" d="M527.116 277.524 L527.116 261.83 L531.375 261.83 L531.375 277.362 Q531.375 281.043 532.81 282.895 Q534.246 284.723 537.116 284.723 Q540.565 284.723 542.556 282.524 Q544.57 280.325 544.57 276.529 L544.57 261.83 L548.829 261.83 L548.829 287.756 L544.57 287.756 L544.57 283.774 Q543.019 286.135 540.959 287.293 Q538.922 288.427 536.213 288.427 Q531.746 288.427 529.431 285.649 Q527.116 282.871 527.116 277.524 M537.834 261.205 L537.834 261.205 Z" fill="#000000" fill-rule="nonzero" fill-opacity="1"></path><path clip-path="url(#clip070)" d="M579.153 272.108 L579.153 287.756 L574.894 287.756 L574.894 272.247 Q574.894 268.566 573.458 266.737 Q572.023 264.909 569.153 264.909 Q565.704 264.909 563.713 267.108 Q561.722 269.307 561.722 273.103 L561.722 287.756 L557.44 287.756 L557.44 261.83 L561.722 261.83 L561.722 265.858 Q563.25 263.52 565.31 262.362 Q567.394 261.205 570.102 261.205 Q574.57 261.205 576.861 263.983 Q579.153 266.737 579.153 272.108 Z" fill="#000000" fill-rule="nonzero" fill-opacity="1"></path><path clip-path="url(#clip070)" d="M604.708 265.765 L604.708 251.737 L608.967 251.737 L608.967 287.756 L604.708 287.756 L604.708 283.867 Q603.366 286.182 601.305 287.316 Q599.268 288.427 596.398 288.427 Q591.699 288.427 588.736 284.677 Q585.796 280.927 585.796 274.816 Q585.796 268.705 588.736 264.955 Q591.699 261.205 596.398 261.205 Q599.268 261.205 601.305 262.339 Q603.366 263.45 604.708 265.765 M590.194 274.816 Q590.194 279.515 592.116 282.2 Q594.06 284.862 597.44 284.862 Q600.819 284.862 602.764 282.2 Q604.708 279.515 604.708 274.816 Q604.708 270.117 602.764 267.455 Q600.819 264.77 597.44 264.77 Q594.06 264.77 592.116 267.455 Q590.194 270.117 590.194 274.816 Z" fill="#000000" fill-rule="nonzero" fill-opacity="1"></path><path clip-path="url(#clip070)" d="M637.023 254.469 L637.023 261.83 L645.796 261.83 L645.796 265.14 L637.023 265.14 L637.023 279.214 Q637.023 282.385 637.879 283.288 Q638.759 284.191 641.421 284.191 L645.796 284.191 L645.796 287.756 L641.421 287.756 Q636.49 287.756 634.615 285.927 Q632.74 284.075 632.74 279.214 L632.74 265.14 L629.616 265.14 L629.616 261.83 L632.74 261.83 L632.74 254.469 L637.023 254.469 Z" fill="#000000" fill-rule="nonzero" fill-opacity="1"></path><path clip-path="url(#clip070)" d="M666.421 265.811 Q665.703 265.395 664.847 265.21 Q664.013 265.001 662.995 265.001 Q659.384 265.001 657.439 267.362 Q655.518 269.7 655.518 274.098 L655.518 287.756 L651.236 287.756 L651.236 261.83 L655.518 261.83 L655.518 265.858 Q656.861 263.497 659.013 262.362 Q661.166 261.205 664.245 261.205 Q664.685 261.205 665.217 261.274 Q665.75 261.321 666.398 261.436 L666.421 265.811 Z" fill="#000000" fill-rule="nonzero" fill-opacity="1"></path><path clip-path="url(#clip070)" d="M670.449 277.524 L670.449 261.83 L674.708 261.83 L674.708 277.362 Q674.708 281.043 676.143 282.895 Q677.578 284.723 680.449 284.723 Q683.898 284.723 685.888 282.524 Q687.902 280.325 687.902 276.529 L687.902 261.83 L692.161 261.83 L692.161 287.756 L687.902 287.756 L687.902 283.774 Q686.351 286.135 684.291 287.293 Q682.254 288.427 679.546 288.427 Q675.078 288.427 672.763 285.649 Q670.449 282.871 670.449 277.524 M681.166 261.205 L681.166 261.205 Z" fill="#000000" fill-rule="nonzero" fill-opacity="1"></path><path clip-path="url(#clip070)" d="M705.148 254.469 L705.148 261.83 L713.921 261.83 L713.921 265.14 L705.148 265.14 L705.148 279.214 Q705.148 282.385 706.004 283.288 Q706.884 284.191 709.546 284.191 L713.921 284.191 L713.921 287.756 L709.546 287.756 Q704.615 287.756 702.74 285.927 Q700.865 284.075 700.865 279.214 L700.865 265.14 L697.74 265.14 L697.74 261.83 L700.865 261.83 L700.865 254.469 L705.148 254.469 Z" fill="#000000" fill-rule="nonzero" fill-opacity="1"></path><path clip-path="url(#clip070)" d="M741.073 272.108 L741.073 287.756 L736.814 287.756 L736.814 272.247 Q736.814 268.566 735.379 266.737 Q733.944 264.909 731.073 264.909 Q727.624 264.909 725.634 267.108 Q723.643 269.307 723.643 273.103 L723.643 287.756 L719.36 287.756 L719.36 251.737 L723.643 251.737 L723.643 265.858 Q725.171 263.52 727.231 262.362 Q729.314 261.205 732.022 261.205 Q736.49 261.205 738.782 263.983 Q741.073 266.737 741.073 272.108 Z" fill="#000000" fill-rule="nonzero" fill-opacity="1"></path><path clip-path="url(#clip070)" d="M781.698 265.765 L781.698 251.737 L785.957 251.737 L785.957 287.756 L781.698 287.756 L781.698 283.867 Q780.355 286.182 778.295 287.316 Q776.258 288.427 773.388 288.427 Q768.689 288.427 765.726 284.677 Q762.786 280.927 762.786 274.816 Q762.786 268.705 765.726 264.955 Q768.689 261.205 773.388 261.205 Q776.258 261.205 778.295 262.339 Q780.355 263.45 781.698 265.765 M767.184 274.816 Q767.184 279.515 769.106 282.2 Q771.05 284.862 774.43 284.862 Q777.809 284.862 779.754 282.2 Q781.698 279.515 781.698 274.816 Q781.698 270.117 779.754 267.455 Q777.809 264.77 774.43 264.77 Q771.05 264.77 769.106 267.455 Q767.184 270.117 767.184 274.816 Z" fill="#000000" fill-rule="nonzero" fill-opacity="1"></path><path clip-path="url(#clip070)" d="M806.513 274.723 Q801.351 274.723 799.36 275.904 Q797.369 277.084 797.369 279.932 Q797.369 282.2 798.851 283.543 Q800.355 284.862 802.925 284.862 Q806.466 284.862 808.596 282.362 Q810.749 279.839 810.749 275.672 L810.749 274.723 L806.513 274.723 M815.008 272.964 L815.008 287.756 L810.749 287.756 L810.749 283.821 Q809.29 286.182 807.115 287.316 Q804.939 288.427 801.791 288.427 Q797.809 288.427 795.448 286.205 Q793.11 283.959 793.11 280.209 Q793.11 275.834 796.027 273.612 Q798.966 271.39 804.777 271.39 L810.749 271.39 L810.749 270.973 Q810.749 268.034 808.804 266.436 Q806.883 264.816 803.388 264.816 Q801.166 264.816 799.059 265.348 Q796.953 265.881 795.008 266.946 L795.008 263.01 Q797.346 262.108 799.545 261.668 Q801.744 261.205 803.828 261.205 Q809.453 261.205 812.23 264.122 Q815.008 267.038 815.008 272.964 Z" fill="#000000" fill-rule="nonzero" fill-opacity="1"></path><path clip-path="url(#clip070)" d="M827.994 254.469 L827.994 261.83 L836.767 261.83 L836.767 265.14 L827.994 265.14 L827.994 279.214 Q827.994 282.385 828.851 283.288 Q829.73 284.191 832.392 284.191 L836.767 284.191 L836.767 287.756 L832.392 287.756 Q827.462 287.756 825.587 285.927 Q823.712 284.075 823.712 279.214 L823.712 265.14 L820.587 265.14 L820.587 261.83 L823.712 261.83 L823.712 254.469 L827.994 254.469 Z" fill="#000000" fill-rule="nonzero" fill-opacity="1"></path><path clip-path="url(#clip070)" d="M854.151 274.723 Q848.989 274.723 846.999 275.904 Q845.008 277.084 845.008 279.932 Q845.008 282.2 846.489 283.543 Q847.994 284.862 850.563 284.862 Q854.105 284.862 856.235 282.362 Q858.387 279.839 858.387 275.672 L858.387 274.723 L854.151 274.723 M862.647 272.964 L862.647 287.756 L858.387 287.756 L858.387 283.821 Q856.929 286.182 854.753 287.316 Q852.577 288.427 849.429 288.427 Q845.448 288.427 843.087 286.205 Q840.749 283.959 840.749 280.209 Q840.749 275.834 843.665 273.612 Q846.605 271.39 852.415 271.39 L858.387 271.39 L858.387 270.973 Q858.387 268.034 856.443 266.436 Q854.522 264.816 851.026 264.816 Q848.804 264.816 846.698 265.348 Q844.591 265.881 842.647 266.946 L842.647 263.01 Q844.985 262.108 847.184 261.668 Q849.383 261.205 851.466 261.205 Q857.091 261.205 859.869 264.122 Q862.647 267.038 862.647 272.964 Z" fill="#000000" fill-rule="nonzero" fill-opacity="1"></path><polyline clip-path="url(#clip070)" style="stroke:#0000ff; stroke-linecap:round; stroke-linejoin:round; stroke-width:4; stroke-opacity:1; fill:none" points="272.215,322.316 417.369,322.316 "></polyline>
<path clip-path="url(#clip070)" d="M441.561 305.036 L446.26 305.036 L446.26 326.031 Q446.26 331.587 448.274 334.04 Q450.288 336.471 454.802 336.471 Q459.292 336.471 461.306 334.04 Q463.32 331.587 463.32 326.031 L463.32 305.036 L468.019 305.036 L468.019 326.61 Q468.019 333.369 464.663 336.818 Q461.329 340.267 454.802 340.267 Q448.251 340.267 444.894 336.818 Q441.561 333.369 441.561 326.61 L441.561 305.036 Z" fill="#000000" fill-rule="nonzero" fill-opacity="1"></path><path clip-path="url(#clip070)" d="M481.468 308.878 L481.468 335.753 L487.116 335.753 Q494.269 335.753 497.579 332.512 Q500.912 329.272 500.912 322.281 Q500.912 315.337 497.579 312.119 Q494.269 308.878 487.116 308.878 L481.468 308.878 M476.792 305.036 L486.399 305.036 Q496.445 305.036 501.144 309.226 Q505.843 313.392 505.843 322.281 Q505.843 331.216 501.121 335.406 Q496.399 339.596 486.399 339.596 L476.792 339.596 L476.792 305.036 Z" fill="#000000" fill-rule="nonzero" fill-opacity="1"></path><path clip-path="url(#clip070)" d="M513.297 305.036 L535.148 305.036 L535.148 308.971 L517.973 308.971 L517.973 319.202 L534.431 319.202 L534.431 323.137 L517.973 323.137 L517.973 335.661 L535.565 335.661 L535.565 339.596 L513.297 339.596 L513.297 305.036 Z" fill="#000000" fill-rule="nonzero" fill-opacity="1"></path><path clip-path="url(#clip070)" d="M553.528 305.036 L582.764 305.036 L582.764 308.971 L570.495 308.971 L570.495 339.596 L565.796 339.596 L565.796 308.971 L553.528 308.971 L553.528 305.036 Z" fill="#000000" fill-rule="nonzero" fill-opacity="1"></path><path clip-path="url(#clip070)" d="M595.148 317.651 Q594.431 317.235 593.574 317.05 Q592.741 316.841 591.722 316.841 Q588.111 316.841 586.167 319.202 Q584.245 321.54 584.245 325.938 L584.245 339.596 L579.963 339.596 L579.963 313.67 L584.245 313.67 L584.245 317.698 Q585.588 315.337 587.741 314.202 Q589.893 313.045 592.972 313.045 Q593.412 313.045 593.944 313.114 Q594.477 313.161 595.125 313.276 L595.148 317.651 Z" fill="#000000" fill-rule="nonzero" fill-opacity="1"></path><path clip-path="url(#clip070)" d="M611.398 326.563 Q606.236 326.563 604.245 327.744 Q602.255 328.924 602.255 331.772 Q602.255 334.04 603.736 335.383 Q605.241 336.702 607.81 336.702 Q611.352 336.702 613.481 334.202 Q615.634 331.679 615.634 327.512 L615.634 326.563 L611.398 326.563 M619.893 324.804 L619.893 339.596 L615.634 339.596 L615.634 335.661 Q614.176 338.022 612 339.156 Q609.824 340.267 606.676 340.267 Q602.694 340.267 600.333 338.045 Q597.995 335.799 597.995 332.049 Q597.995 327.674 600.912 325.452 Q603.852 323.23 609.662 323.23 L615.634 323.23 L615.634 322.813 Q615.634 319.874 613.69 318.276 Q611.768 316.656 608.273 316.656 Q606.051 316.656 603.944 317.188 Q601.838 317.721 599.893 318.786 L599.893 314.85 Q602.231 313.948 604.43 313.508 Q606.63 313.045 608.713 313.045 Q614.338 313.045 617.116 315.962 Q619.893 318.878 619.893 324.804 Z" fill="#000000" fill-rule="nonzero" fill-opacity="1"></path><path clip-path="url(#clip070)" d="M628.666 313.67 L632.926 313.67 L632.926 339.596 L628.666 339.596 L628.666 313.67 M628.666 303.577 L632.926 303.577 L632.926 308.971 L628.666 308.971 L628.666 303.577 Z" fill="#000000" fill-rule="nonzero" fill-opacity="1"></path><path clip-path="url(#clip070)" d="M663.388 323.948 L663.388 339.596 L659.129 339.596 L659.129 324.087 Q659.129 320.406 657.694 318.577 Q656.259 316.749 653.389 316.749 Q649.939 316.749 647.949 318.948 Q645.958 321.147 645.958 324.943 L645.958 339.596 L641.676 339.596 L641.676 313.67 L645.958 313.67 L645.958 317.698 Q647.486 315.36 649.546 314.202 Q651.629 313.045 654.338 313.045 Q658.805 313.045 661.097 315.823 Q663.388 318.577 663.388 323.948 Z" fill="#000000" fill-rule="nonzero" fill-opacity="1"></path><path clip-path="url(#clip070)" d="M671.884 313.67 L676.143 313.67 L676.143 339.596 L671.884 339.596 L671.884 313.67 M671.884 303.577 L676.143 303.577 L676.143 308.971 L671.884 308.971 L671.884 303.577 Z" fill="#000000" fill-rule="nonzero" fill-opacity="1"></path><path clip-path="url(#clip070)" d="M706.606 323.948 L706.606 339.596 L702.347 339.596 L702.347 324.087 Q702.347 320.406 700.911 318.577 Q699.476 316.749 696.606 316.749 Q693.157 316.749 691.166 318.948 Q689.175 321.147 689.175 324.943 L689.175 339.596 L684.893 339.596 L684.893 313.67 L689.175 313.67 L689.175 317.698 Q690.703 315.36 692.763 314.202 Q694.847 313.045 697.555 313.045 Q702.023 313.045 704.314 315.823 Q706.606 318.577 706.606 323.948 Z" fill="#000000" fill-rule="nonzero" fill-opacity="1"></path><path clip-path="url(#clip070)" d="M732.161 326.332 Q732.161 321.702 730.24 319.156 Q728.342 316.61 724.893 316.61 Q721.467 316.61 719.546 319.156 Q717.647 321.702 717.647 326.332 Q717.647 330.938 719.546 333.485 Q721.467 336.031 724.893 336.031 Q728.342 336.031 730.24 333.485 Q732.161 330.938 732.161 326.332 M736.42 336.378 Q736.42 342.998 733.481 346.216 Q730.541 349.457 724.476 349.457 Q722.231 349.457 720.24 349.11 Q718.249 348.785 716.374 348.091 L716.374 343.948 Q718.249 344.966 720.078 345.452 Q721.907 345.938 723.805 345.938 Q727.995 345.938 730.078 343.739 Q732.161 341.563 732.161 337.142 L732.161 335.036 Q730.842 337.327 728.782 338.461 Q726.721 339.596 723.851 339.596 Q719.083 339.596 716.166 335.961 Q713.249 332.327 713.249 326.332 Q713.249 320.313 716.166 316.679 Q719.083 313.045 723.851 313.045 Q726.721 313.045 728.782 314.179 Q730.842 315.313 732.161 317.605 L732.161 313.67 L736.42 313.67 L736.42 336.378 Z" fill="#000000" fill-rule="nonzero" fill-opacity="1"></path><path clip-path="url(#clip070)" d="M764.383 335.707 L764.383 349.457 L760.101 349.457 L760.101 313.67 L764.383 313.67 L764.383 317.605 Q765.726 315.29 767.763 314.179 Q769.823 313.045 772.67 313.045 Q777.392 313.045 780.332 316.795 Q783.295 320.545 783.295 326.656 Q783.295 332.767 780.332 336.517 Q777.392 340.267 772.67 340.267 Q769.823 340.267 767.763 339.156 Q765.726 338.022 764.383 335.707 M778.874 326.656 Q778.874 321.957 776.93 319.295 Q775.008 316.61 771.629 316.61 Q768.249 316.61 766.305 319.295 Q764.383 321.957 764.383 326.656 Q764.383 331.355 766.305 334.04 Q768.249 336.702 771.629 336.702 Q775.008 336.702 776.93 334.04 Q778.874 331.355 778.874 326.656 Z" fill="#000000" fill-rule="nonzero" fill-opacity="1"></path><path clip-path="url(#clip070)" d="M805.378 317.651 Q804.661 317.235 803.804 317.05 Q802.971 316.841 801.953 316.841 Q798.341 316.841 796.397 319.202 Q794.476 321.54 794.476 325.938 L794.476 339.596 L790.193 339.596 L790.193 313.67 L794.476 313.67 L794.476 317.698 Q795.818 315.337 797.971 314.202 Q800.124 313.045 803.203 313.045 Q803.642 313.045 804.175 313.114 Q804.707 313.161 805.355 313.276 L805.378 317.651 Z" fill="#000000" fill-rule="nonzero" fill-opacity="1"></path><path clip-path="url(#clip070)" d="M830.98 325.568 L830.98 327.651 L811.397 327.651 Q811.675 332.049 814.036 334.364 Q816.42 336.656 820.656 336.656 Q823.11 336.656 825.401 336.054 Q827.716 335.452 829.985 334.249 L829.985 338.276 Q827.693 339.248 825.286 339.758 Q822.878 340.267 820.402 340.267 Q814.198 340.267 810.564 336.656 Q806.953 333.045 806.953 326.887 Q806.953 320.522 810.378 316.795 Q813.827 313.045 819.661 313.045 Q824.892 313.045 827.925 316.425 Q830.98 319.781 830.98 325.568 M826.721 324.318 Q826.675 320.823 824.753 318.739 Q822.855 316.656 819.707 316.656 Q816.142 316.656 813.99 318.67 Q811.86 320.684 811.536 324.341 L826.721 324.318 Z" fill="#000000" fill-rule="nonzero" fill-opacity="1"></path><path clip-path="url(#clip070)" d="M855.031 317.605 L855.031 303.577 L859.29 303.577 L859.29 339.596 L855.031 339.596 L855.031 335.707 Q853.688 338.022 851.628 339.156 Q849.591 340.267 846.721 340.267 Q842.022 340.267 839.059 336.517 Q836.119 332.767 836.119 326.656 Q836.119 320.545 839.059 316.795 Q842.022 313.045 846.721 313.045 Q849.591 313.045 851.628 314.179 Q853.688 315.29 855.031 317.605 M840.517 326.656 Q840.517 331.355 842.438 334.04 Q844.383 336.702 847.762 336.702 Q851.142 336.702 853.087 334.04 Q855.031 331.355 855.031 326.656 Q855.031 321.957 853.087 319.295 Q851.142 316.61 847.762 316.61 Q844.383 316.61 842.438 319.295 Q840.517 321.957 840.517 326.656 Z" fill="#000000" fill-rule="nonzero" fill-opacity="1"></path><path clip-path="url(#clip070)" d="M868.063 313.67 L872.323 313.67 L872.323 339.596 L868.063 339.596 L868.063 313.67 M868.063 303.577 L872.323 303.577 L872.323 308.971 L868.063 308.971 L868.063 303.577 Z" fill="#000000" fill-rule="nonzero" fill-opacity="1"></path><path clip-path="url(#clip070)" d="M899.892 314.665 L899.892 318.647 Q898.086 317.651 896.258 317.165 Q894.452 316.656 892.6 316.656 Q888.457 316.656 886.165 319.295 Q883.873 321.911 883.873 326.656 Q883.873 331.401 886.165 334.04 Q888.457 336.656 892.6 336.656 Q894.452 336.656 896.258 336.17 Q898.086 335.661 899.892 334.665 L899.892 338.6 Q898.109 339.434 896.188 339.85 Q894.29 340.267 892.137 340.267 Q886.281 340.267 882.832 336.586 Q879.383 332.906 879.383 326.656 Q879.383 320.313 882.855 316.679 Q886.35 313.045 892.415 313.045 Q894.383 313.045 896.258 313.462 Q898.133 313.855 899.892 314.665 Z" fill="#000000" fill-rule="nonzero" fill-opacity="1"></path><path clip-path="url(#clip070)" d="M911.512 306.309 L911.512 313.67 L920.285 313.67 L920.285 316.98 L911.512 316.98 L911.512 331.054 Q911.512 334.225 912.369 335.128 Q913.248 336.031 915.91 336.031 L920.285 336.031 L920.285 339.596 L915.91 339.596 Q910.98 339.596 909.105 337.767 Q907.23 335.915 907.23 331.054 L907.23 316.98 L904.105 316.98 L904.105 313.67 L907.23 313.67 L907.23 306.309 L911.512 306.309 Z" fill="#000000" fill-rule="nonzero" fill-opacity="1"></path><path clip-path="url(#clip070)" d="M925.887 313.67 L930.146 313.67 L930.146 339.596 L925.887 339.596 L925.887 313.67 M925.887 303.577 L930.146 303.577 L930.146 308.971 L925.887 308.971 L925.887 303.577 Z" fill="#000000" fill-rule="nonzero" fill-opacity="1"></path><path clip-path="url(#clip070)" d="M949.105 316.656 Q945.679 316.656 943.688 319.341 Q941.697 322.003 941.697 326.656 Q941.697 331.309 943.665 333.994 Q945.655 336.656 949.105 336.656 Q952.507 336.656 954.498 333.971 Q956.489 331.286 956.489 326.656 Q956.489 322.05 954.498 319.364 Q952.507 316.656 949.105 316.656 M949.105 313.045 Q954.66 313.045 957.831 316.656 Q961.003 320.267 961.003 326.656 Q961.003 333.022 957.831 336.656 Q954.66 340.267 949.105 340.267 Q943.526 340.267 940.355 336.656 Q937.206 333.022 937.206 326.656 Q937.206 320.267 940.355 316.656 Q943.526 313.045 949.105 313.045 Z" fill="#000000" fill-rule="nonzero" fill-opacity="1"></path><path clip-path="url(#clip070)" d="M989.614 323.948 L989.614 339.596 L985.354 339.596 L985.354 324.087 Q985.354 320.406 983.919 318.577 Q982.484 316.749 979.614 316.749 Q976.165 316.749 974.174 318.948 Q972.183 321.147 972.183 324.943 L972.183 339.596 L967.901 339.596 L967.901 313.67 L972.183 313.67 L972.183 317.698 Q973.711 315.36 975.771 314.202 Q977.854 313.045 980.563 313.045 Q985.03 313.045 987.322 315.823 Q989.614 318.577 989.614 323.948 Z" fill="#000000" fill-rule="nonzero" fill-opacity="1"></path><polyline clip-path="url(#clip070)" style="stroke:#ff0000; stroke-linecap:round; stroke-linejoin:round; stroke-width:4; stroke-opacity:1; fill:none" points="272.215,374.156 417.369,374.156 "></polyline>
<path clip-path="url(#clip070)" d="M441.561 356.876 L446.26 356.876 L446.26 377.871 Q446.26 383.427 448.274 385.88 Q450.288 388.311 454.802 388.311 Q459.292 388.311 461.306 385.88 Q463.32 383.427 463.32 377.871 L463.32 356.876 L468.019 356.876 L468.019 378.45 Q468.019 385.209 464.663 388.658 Q461.329 392.107 454.802 392.107 Q448.251 392.107 444.894 388.658 Q441.561 385.209 441.561 378.45 L441.561 356.876 Z" fill="#000000" fill-rule="nonzero" fill-opacity="1"></path><path clip-path="url(#clip070)" d="M481.468 360.718 L481.468 387.593 L487.116 387.593 Q494.269 387.593 497.579 384.352 Q500.912 381.112 500.912 374.121 Q500.912 367.177 497.579 363.959 Q494.269 360.718 487.116 360.718 L481.468 360.718 M476.792 356.876 L486.399 356.876 Q496.445 356.876 501.144 361.066 Q505.843 365.232 505.843 374.121 Q505.843 383.056 501.121 387.246 Q496.399 391.436 486.399 391.436 L476.792 391.436 L476.792 356.876 Z" fill="#000000" fill-rule="nonzero" fill-opacity="1"></path><path clip-path="url(#clip070)" d="M513.297 356.876 L535.148 356.876 L535.148 360.811 L517.973 360.811 L517.973 371.042 L534.431 371.042 L534.431 374.977 L517.973 374.977 L517.973 387.501 L535.565 387.501 L535.565 391.436 L513.297 391.436 L513.297 356.876 Z" fill="#000000" fill-rule="nonzero" fill-opacity="1"></path><path clip-path="url(#clip070)" d="M558.32 356.876 L578.181 356.876 L578.181 360.811 L562.995 360.811 L562.995 370.996 L576.699 370.996 L576.699 374.931 L562.995 374.931 L562.995 391.436 L558.32 391.436 L558.32 356.876 Z" fill="#000000" fill-rule="nonzero" fill-opacity="1"></path><path clip-path="url(#clip070)" d="M593.759 368.496 Q590.333 368.496 588.343 371.181 Q586.352 373.843 586.352 378.496 Q586.352 383.149 588.319 385.834 Q590.31 388.496 593.759 388.496 Q597.162 388.496 599.153 385.811 Q601.143 383.126 601.143 378.496 Q601.143 373.89 599.153 371.204 Q597.162 368.496 593.759 368.496 M593.759 364.885 Q599.315 364.885 602.486 368.496 Q605.657 372.107 605.657 378.496 Q605.657 384.862 602.486 388.496 Q599.315 392.107 593.759 392.107 Q588.181 392.107 585.009 388.496 Q581.861 384.862 581.861 378.496 Q581.861 372.107 585.009 368.496 Q588.181 364.885 593.759 364.885 Z" fill="#000000" fill-rule="nonzero" fill-opacity="1"></path><path clip-path="url(#clip070)" d="M627.741 369.491 Q627.023 369.075 626.166 368.89 Q625.333 368.681 624.315 368.681 Q620.704 368.681 618.759 371.042 Q616.838 373.38 616.838 377.778 L616.838 391.436 L612.555 391.436 L612.555 365.51 L616.838 365.51 L616.838 369.538 Q618.18 367.177 620.333 366.042 Q622.486 364.885 625.565 364.885 Q626.004 364.885 626.537 364.954 Q627.069 365.001 627.717 365.116 L627.741 369.491 Z" fill="#000000" fill-rule="nonzero" fill-opacity="1"></path><path clip-path="url(#clip070)" d="M653.342 377.408 L653.342 379.491 L633.759 379.491 Q634.037 383.889 636.398 386.204 Q638.782 388.496 643.018 388.496 Q645.472 388.496 647.764 387.894 Q650.078 387.292 652.347 386.089 L652.347 390.116 Q650.055 391.088 647.648 391.598 Q645.24 392.107 642.764 392.107 Q636.56 392.107 632.926 388.496 Q629.315 384.885 629.315 378.727 Q629.315 372.362 632.74 368.635 Q636.19 364.885 642.023 364.885 Q647.254 364.885 650.287 368.265 Q653.342 371.621 653.342 377.408 M649.083 376.158 Q649.037 372.663 647.115 370.579 Q645.217 368.496 642.069 368.496 Q638.504 368.496 636.352 370.51 Q634.222 372.524 633.898 376.181 L649.083 376.158 Z" fill="#000000" fill-rule="nonzero" fill-opacity="1"></path><path clip-path="url(#clip070)" d="M678.99 366.505 L678.99 370.487 Q677.185 369.491 675.356 369.005 Q673.55 368.496 671.699 368.496 Q667.555 368.496 665.263 371.135 Q662.972 373.751 662.972 378.496 Q662.972 383.241 665.263 385.88 Q667.555 388.496 671.699 388.496 Q673.55 388.496 675.356 388.01 Q677.185 387.501 678.99 386.505 L678.99 390.44 Q677.208 391.274 675.287 391.69 Q673.388 392.107 671.236 392.107 Q665.379 392.107 661.93 388.426 Q658.481 384.746 658.481 378.496 Q658.481 372.153 661.953 368.519 Q665.449 364.885 671.513 364.885 Q673.481 364.885 675.356 365.302 Q677.231 365.695 678.99 366.505 Z" fill="#000000" fill-rule="nonzero" fill-opacity="1"></path><path clip-path="url(#clip070)" d="M698.18 378.403 Q693.018 378.403 691.027 379.584 Q689.036 380.764 689.036 383.612 Q689.036 385.88 690.518 387.223 Q692.023 388.542 694.592 388.542 Q698.134 388.542 700.263 386.042 Q702.416 383.519 702.416 379.352 L702.416 378.403 L698.18 378.403 M706.675 376.644 L706.675 391.436 L702.416 391.436 L702.416 387.501 Q700.958 389.862 698.782 390.996 Q696.606 392.107 693.458 392.107 Q689.476 392.107 687.115 389.885 Q684.777 387.639 684.777 383.889 Q684.777 379.514 687.694 377.292 Q690.634 375.07 696.444 375.07 L702.416 375.07 L702.416 374.653 Q702.416 371.714 700.472 370.116 Q698.55 368.496 695.055 368.496 Q692.833 368.496 690.726 369.028 Q688.62 369.561 686.675 370.626 L686.675 366.69 Q689.013 365.788 691.212 365.348 Q693.411 364.885 695.495 364.885 Q701.12 364.885 703.898 367.802 Q706.675 370.718 706.675 376.644 Z" fill="#000000" fill-rule="nonzero" fill-opacity="1"></path><path clip-path="url(#clip070)" d="M731.976 366.274 L731.976 370.302 Q730.171 369.376 728.226 368.913 Q726.282 368.45 724.198 368.45 Q721.027 368.45 719.43 369.422 Q717.856 370.394 717.856 372.339 Q717.856 373.82 718.99 374.677 Q720.124 375.51 723.55 376.274 L725.009 376.598 Q729.546 377.57 731.444 379.352 Q733.365 381.112 733.365 384.283 Q733.365 387.894 730.495 390.001 Q727.647 392.107 722.647 392.107 Q720.564 392.107 718.296 391.69 Q716.05 391.297 713.55 390.487 L713.55 386.089 Q715.911 387.315 718.203 387.94 Q720.495 388.542 722.74 388.542 Q725.749 388.542 727.37 387.524 Q728.99 386.482 728.99 384.607 Q728.99 382.871 727.809 381.945 Q726.652 381.019 722.694 380.163 L721.212 379.815 Q717.254 378.982 715.495 377.269 Q713.735 375.533 713.735 372.524 Q713.735 368.866 716.328 366.876 Q718.921 364.885 723.689 364.885 Q726.05 364.885 728.133 365.232 Q730.217 365.579 731.976 366.274 Z" fill="#000000" fill-rule="nonzero" fill-opacity="1"></path><path clip-path="url(#clip070)" d="M744.36 358.149 L744.36 365.51 L753.133 365.51 L753.133 368.82 L744.36 368.82 L744.36 382.894 Q744.36 386.065 745.217 386.968 Q746.096 387.871 748.758 387.871 L753.133 387.871 L753.133 391.436 L748.758 391.436 Q743.828 391.436 741.953 389.607 Q740.078 387.755 740.078 382.894 L740.078 368.82 L736.953 368.82 L736.953 365.51 L740.078 365.51 L740.078 358.149 L744.36 358.149 Z" fill="#000000" fill-rule="nonzero" fill-opacity="1"></path><path clip-path="url(#clip070)" d="M777.925 387.547 L777.925 401.297 L773.643 401.297 L773.643 365.51 L777.925 365.51 L777.925 369.445 Q779.267 367.13 781.305 366.019 Q783.365 364.885 786.212 364.885 Q790.934 364.885 793.874 368.635 Q796.837 372.385 796.837 378.496 Q796.837 384.607 793.874 388.357 Q790.934 392.107 786.212 392.107 Q783.365 392.107 781.305 390.996 Q779.267 389.862 777.925 387.547 M792.416 378.496 Q792.416 373.797 790.471 371.135 Q788.55 368.45 785.17 368.45 Q781.791 368.45 779.846 371.135 Q777.925 373.797 777.925 378.496 Q777.925 383.195 779.846 385.88 Q781.791 388.542 785.17 388.542 Q788.55 388.542 790.471 385.88 Q792.416 383.195 792.416 378.496 Z" fill="#000000" fill-rule="nonzero" fill-opacity="1"></path><path clip-path="url(#clip070)" d="M818.92 369.491 Q818.202 369.075 817.346 368.89 Q816.513 368.681 815.494 368.681 Q811.883 368.681 809.939 371.042 Q808.017 373.38 808.017 377.778 L808.017 391.436 L803.735 391.436 L803.735 365.51 L808.017 365.51 L808.017 369.538 Q809.36 367.177 811.513 366.042 Q813.665 364.885 816.744 364.885 Q817.184 364.885 817.716 364.954 Q818.249 365.001 818.897 365.116 L818.92 369.491 Z" fill="#000000" fill-rule="nonzero" fill-opacity="1"></path><path clip-path="url(#clip070)" d="M844.522 377.408 L844.522 379.491 L824.939 379.491 Q825.216 383.889 827.577 386.204 Q829.962 388.496 834.198 388.496 Q836.651 388.496 838.943 387.894 Q841.258 387.292 843.526 386.089 L843.526 390.116 Q841.235 391.088 838.827 391.598 Q836.42 392.107 833.943 392.107 Q827.739 392.107 824.105 388.496 Q820.494 384.885 820.494 378.727 Q820.494 372.362 823.92 368.635 Q827.369 364.885 833.202 364.885 Q838.434 364.885 841.466 368.265 Q844.522 371.621 844.522 377.408 M840.263 376.158 Q840.216 372.663 838.295 370.579 Q836.397 368.496 833.249 368.496 Q829.684 368.496 827.531 370.51 Q825.401 372.524 825.077 376.181 L840.263 376.158 Z" fill="#000000" fill-rule="nonzero" fill-opacity="1"></path><path clip-path="url(#clip070)" d="M868.573 369.445 L868.573 355.417 L872.832 355.417 L872.832 391.436 L868.573 391.436 L868.573 387.547 Q867.23 389.862 865.17 390.996 Q863.133 392.107 860.262 392.107 Q855.563 392.107 852.6 388.357 Q849.661 384.607 849.661 378.496 Q849.661 372.385 852.6 368.635 Q855.563 364.885 860.262 364.885 Q863.133 364.885 865.17 366.019 Q867.23 367.13 868.573 369.445 M854.059 378.496 Q854.059 383.195 855.98 385.88 Q857.924 388.542 861.304 388.542 Q864.684 388.542 866.628 385.88 Q868.573 383.195 868.573 378.496 Q868.573 373.797 866.628 371.135 Q864.684 368.45 861.304 368.45 Q857.924 368.45 855.98 371.135 Q854.059 373.797 854.059 378.496 Z" fill="#000000" fill-rule="nonzero" fill-opacity="1"></path><path clip-path="url(#clip070)" d="M881.605 365.51 L885.864 365.51 L885.864 391.436 L881.605 391.436 L881.605 365.51 M881.605 355.417 L885.864 355.417 L885.864 360.811 L881.605 360.811 L881.605 355.417 Z" fill="#000000" fill-rule="nonzero" fill-opacity="1"></path><path clip-path="url(#clip070)" d="M913.433 366.505 L913.433 370.487 Q911.628 369.491 909.799 369.005 Q907.994 368.496 906.142 368.496 Q901.998 368.496 899.707 371.135 Q897.415 373.751 897.415 378.496 Q897.415 383.241 899.707 385.88 Q901.998 388.496 906.142 388.496 Q907.994 388.496 909.799 388.01 Q911.628 387.501 913.433 386.505 L913.433 390.44 Q911.651 391.274 909.73 391.69 Q907.832 392.107 905.679 392.107 Q899.822 392.107 896.373 388.426 Q892.924 384.746 892.924 378.496 Q892.924 372.153 896.396 368.519 Q899.892 364.885 905.957 364.885 Q907.924 364.885 909.799 365.302 Q911.674 365.695 913.433 366.505 Z" fill="#000000" fill-rule="nonzero" fill-opacity="1"></path><path clip-path="url(#clip070)" d="M925.054 358.149 L925.054 365.51 L933.827 365.51 L933.827 368.82 L925.054 368.82 L925.054 382.894 Q925.054 386.065 925.91 386.968 Q926.79 387.871 929.452 387.871 L933.827 387.871 L933.827 391.436 L929.452 391.436 Q924.521 391.436 922.646 389.607 Q920.771 387.755 920.771 382.894 L920.771 368.82 L917.646 368.82 L917.646 365.51 L920.771 365.51 L920.771 358.149 L925.054 358.149 Z" fill="#000000" fill-rule="nonzero" fill-opacity="1"></path><path clip-path="url(#clip070)" d="M939.429 365.51 L943.688 365.51 L943.688 391.436 L939.429 391.436 L939.429 365.51 M939.429 355.417 L943.688 355.417 L943.688 360.811 L939.429 360.811 L939.429 355.417 Z" fill="#000000" fill-rule="nonzero" fill-opacity="1"></path><path clip-path="url(#clip070)" d="M962.646 368.496 Q959.22 368.496 957.229 371.181 Q955.239 373.843 955.239 378.496 Q955.239 383.149 957.206 385.834 Q959.197 388.496 962.646 388.496 Q966.049 388.496 968.04 385.811 Q970.03 383.126 970.03 378.496 Q970.03 373.89 968.04 371.204 Q966.049 368.496 962.646 368.496 M962.646 364.885 Q968.202 364.885 971.373 368.496 Q974.544 372.107 974.544 378.496 Q974.544 384.862 971.373 388.496 Q968.202 392.107 962.646 392.107 Q957.067 392.107 953.896 388.496 Q950.748 384.862 950.748 378.496 Q950.748 372.107 953.896 368.496 Q957.067 364.885 962.646 364.885 Z" fill="#000000" fill-rule="nonzero" fill-opacity="1"></path><path clip-path="url(#clip070)" d="M1003.16 375.788 L1003.16 391.436 L998.896 391.436 L998.896 375.927 Q998.896 372.246 997.461 370.417 Q996.026 368.589 993.155 368.589 Q989.706 368.589 987.715 370.788 Q985.725 372.987 985.725 376.783 L985.725 391.436 L981.442 391.436 L981.442 365.51 L985.725 365.51 L985.725 369.538 Q987.252 367.2 989.313 366.042 Q991.396 364.885 994.104 364.885 Q998.572 364.885 1000.86 367.663 Q1003.16 370.417 1003.16 375.788 Z" fill="#000000" fill-rule="nonzero" fill-opacity="1"></path></svg>