<svg xmlns="http://www.w3.org/2000/svg" xmlns:xlink="http://www.w3.org/1999/xlink" width="600" height="400" viewBox="0 0 2400 1600">
<defs>
  <clipPath id="clip440">
    <rect x="0" y="0" width="2400" height="1600"></rect>
  </clipPath>
</defs>
<path clip-path="url(#clip440)" d="M0 1600 L2400 1600 L2400 0 L0 0  Z" fill="#ffffff" fill-rule="evenodd" fill-opacity="1"></path>
<defs>
  <clipPath id="clip441">
    <rect x="480" y="0" width="1681" height="1600"></rect>
  </clipPath>
</defs>
<path clip-path="url(#clip440)" d="M174.149 1423.18 L2352.76 1423.18 L2352.76 123.472 L174.149 123.472  Z" fill="#ffffff" fill-rule="evenodd" fill-opacity="1"></path>
<defs>
  <clipPath id="clip442">
    <rect x="174" y="123" width="2180" height="1301"></rect>
  </clipPath>
</defs>
<polyline clip-path="url(#clip442)" style="stroke:#000000; stroke-linecap:round; stroke-linejoin:round; stroke-width:2; stroke-opacity:0.1; fill:none" points="235.808,1423.18 235.808,123.472 "></polyline>
<polyline clip-path="url(#clip442)" style="stroke:#000000; stroke-linecap:round; stroke-linejoin:round; stroke-width:2; stroke-opacity:0.1; fill:none" points="749.63,1423.18 749.63,123.472 "></polyline>
<polyline clip-path="url(#clip442)" style="stroke:#000000; stroke-linecap:round; stroke-linejoin:round; stroke-width:2; stroke-opacity:0.1; fill:none" points="1263.45,1423.18 1263.45,123.472 "></polyline>
<polyline clip-path="url(#clip442)" style="stroke:#000000; stroke-linecap:round; stroke-linejoin:round; stroke-width:2; stroke-opacity:0.1; fill:none" points="1777.27,1423.18 1777.27,123.472 "></polyline>
<polyline clip-path="url(#clip442)" style="stroke:#000000; stroke-linecap:round; stroke-linejoin:round; stroke-width:2; stroke-opacity:0.1; fill:none" points="2291.1,1423.18 2291.1,123.472 "></polyline>
<polyline clip-path="url(#clip440)" style="stroke:#000000; stroke-linecap:round; stroke-linejoin:round; stroke-width:4; stroke-opacity:1; fill:none" points="174.149,1423.18 2352.76,1423.18 "></polyline>
<polyline clip-path="url(#clip440)" style="stroke:#000000; stroke-linecap:round; stroke-linejoin:round; stroke-width:4; stroke-opacity:1; fill:none" points="235.808,1423.18 235.808,1404.28 "></polyline>
<polyline clip-path="url(#clip440)" style="stroke:#000000; stroke-linecap:round; stroke-linejoin:round; stroke-width:4; stroke-opacity:1; fill:none" points="749.63,1423.18 749.63,1404.28 "></polyline>
<polyline clip-path="url(#clip440)" style="stroke:#000000; stroke-linecap:round; stroke-linejoin:round; stroke-width:4; stroke-opacity:1; fill:none" points="1263.45,1423.18 1263.45,1404.28 "></polyline>
<polyline clip-path="url(#clip440)" style="stroke:#000000; stroke-linecap:round; stroke-linejoin:round; stroke-width:4; stroke-opacity:1; fill:none" points="1777.27,1423.18 1777.27,1404.28 "></polyline>
<polyline clip-path="url(#clip440)" style="stroke:#000000; stroke-linecap:round; stroke-linejoin:round; stroke-width:4; stroke-opacity:1; fill:none" points="2291.1,1423.18 2291.1,1404.28 "></polyline>
<path clip-path="url(#clip440)" d="M198.111 1454.1 Q194.5 1454.1 192.671 1457.66 Q190.866 1461.2 190.866 1468.33 Q190.866 1475.44 192.671 1479.01 Q194.5 1482.55 198.111 1482.55 Q201.745 1482.55 203.551 1479.01 Q205.38 1475.44 205.38 1468.33 Q205.38 1461.2 203.551 1457.66 Q201.745 1454.1 198.111 1454.1 M198.111 1450.39 Q203.921 1450.39 206.977 1455 Q210.055 1459.58 210.055 1468.33 Q210.055 1477.06 206.977 1481.67 Q203.921 1486.25 198.111 1486.25 Q192.301 1486.25 189.222 1481.67 Q186.167 1477.06 186.167 1468.33 Q186.167 1459.58 189.222 1455 Q192.301 1450.39 198.111 1450.39 Z" fill="#000000" fill-rule="nonzero" fill-opacity="1"></path><path clip-path="url(#clip440)" d="M218.273 1479.7 L223.157 1479.7 L223.157 1485.58 L218.273 1485.58 L218.273 1479.7 Z" fill="#000000" fill-rule="nonzero" fill-opacity="1"></path><path clip-path="url(#clip440)" d="M243.342 1454.1 Q239.731 1454.1 237.903 1457.66 Q236.097 1461.2 236.097 1468.33 Q236.097 1475.44 237.903 1479.01 Q239.731 1482.55 243.342 1482.55 Q246.977 1482.55 248.782 1479.01 Q250.611 1475.44 250.611 1468.33 Q250.611 1461.2 248.782 1457.66 Q246.977 1454.1 243.342 1454.1 M243.342 1450.39 Q249.152 1450.39 252.208 1455 Q255.287 1459.58 255.287 1468.33 Q255.287 1477.06 252.208 1481.67 Q249.152 1486.25 243.342 1486.25 Q237.532 1486.25 234.453 1481.67 Q231.398 1477.06 231.398 1468.33 Q231.398 1459.58 234.453 1455 Q237.532 1450.39 243.342 1450.39 Z" fill="#000000" fill-rule="nonzero" fill-opacity="1"></path><path clip-path="url(#clip440)" d="M273.504 1454.1 Q269.893 1454.1 268.064 1457.66 Q266.259 1461.2 266.259 1468.33 Q266.259 1475.44 268.064 1479.01 Q269.893 1482.55 273.504 1482.55 Q277.138 1482.55 278.944 1479.01 Q280.773 1475.44 280.773 1468.33 Q280.773 1461.2 278.944 1457.66 Q277.138 1454.1 273.504 1454.1 M273.504 1450.39 Q279.314 1450.39 282.37 1455 Q285.449 1459.58 285.449 1468.33 Q285.449 1477.06 282.37 1481.67 Q279.314 1486.25 273.504 1486.25 Q267.694 1486.25 264.615 1481.67 Q261.56 1477.06 261.56 1468.33 Q261.56 1459.58 264.615 1455 Q267.694 1450.39 273.504 1450.39 Z" fill="#000000" fill-rule="nonzero" fill-opacity="1"></path><path clip-path="url(#clip440)" d="M712.431 1454.1 Q708.82 1454.1 706.991 1457.66 Q705.186 1461.2 705.186 1468.33 Q705.186 1475.44 706.991 1479.01 Q708.82 1482.55 712.431 1482.55 Q716.065 1482.55 717.871 1479.01 Q719.7 1475.44 719.7 1468.33 Q719.7 1461.2 717.871 1457.66 Q716.065 1454.1 712.431 1454.1 M712.431 1450.39 Q718.241 1450.39 721.297 1455 Q724.376 1459.58 724.376 1468.33 Q724.376 1477.06 721.297 1481.67 Q718.241 1486.25 712.431 1486.25 Q706.621 1486.25 703.542 1481.67 Q700.487 1477.06 700.487 1468.33 Q700.487 1459.58 703.542 1455 Q706.621 1450.39 712.431 1450.39 Z" fill="#000000" fill-rule="nonzero" fill-opacity="1"></path><path clip-path="url(#clip440)" d="M732.593 1479.7 L737.477 1479.7 L737.477 1485.58 L732.593 1485.58 L732.593 1479.7 Z" fill="#000000" fill-rule="nonzero" fill-opacity="1"></path><path clip-path="url(#clip440)" d="M751.69 1481.64 L768.01 1481.64 L768.01 1485.58 L746.065 1485.58 L746.065 1481.64 Q748.727 1478.89 753.311 1474.26 Q757.917 1469.61 759.098 1468.27 Q761.343 1465.74 762.223 1464.01 Q763.125 1462.25 763.125 1460.56 Q763.125 1457.8 761.181 1456.07 Q759.26 1454.33 756.158 1454.33 Q753.959 1454.33 751.505 1455.09 Q749.074 1455.86 746.297 1457.41 L746.297 1452.69 Q749.121 1451.55 751.574 1450.97 Q754.028 1450.39 756.065 1450.39 Q761.436 1450.39 764.63 1453.08 Q767.824 1455.77 767.824 1460.26 Q767.824 1462.39 767.014 1464.31 Q766.227 1466.2 764.121 1468.8 Q763.542 1469.47 760.44 1472.69 Q757.338 1475.88 751.69 1481.64 Z" fill="#000000" fill-rule="nonzero" fill-opacity="1"></path><path clip-path="url(#clip440)" d="M777.871 1451.02 L796.227 1451.02 L796.227 1454.96 L782.153 1454.96 L782.153 1463.43 Q783.171 1463.08 784.19 1462.92 Q785.209 1462.73 786.227 1462.73 Q792.014 1462.73 795.394 1465.9 Q798.773 1469.08 798.773 1474.49 Q798.773 1480.07 795.301 1483.17 Q791.829 1486.25 785.509 1486.25 Q783.334 1486.25 781.065 1485.88 Q778.82 1485.51 776.412 1484.77 L776.412 1480.07 Q778.496 1481.2 780.718 1481.76 Q782.94 1482.32 785.417 1482.32 Q789.421 1482.32 791.759 1480.21 Q794.097 1478.1 794.097 1474.49 Q794.097 1470.88 791.759 1468.77 Q789.421 1466.67 785.417 1466.67 Q783.542 1466.67 781.667 1467.08 Q779.815 1467.5 777.871 1468.38 L777.871 1451.02 Z" fill="#000000" fill-rule="nonzero" fill-opacity="1"></path><path clip-path="url(#clip440)" d="M1225.76 1454.1 Q1222.14 1454.1 1220.32 1457.66 Q1218.51 1461.2 1218.51 1468.33 Q1218.51 1475.44 1220.32 1479.01 Q1222.14 1482.55 1225.76 1482.55 Q1229.39 1482.55 1231.2 1479.01 Q1233.02 1475.44 1233.02 1468.33 Q1233.02 1461.2 1231.2 1457.66 Q1229.39 1454.1 1225.76 1454.1 M1225.76 1450.39 Q1231.57 1450.39 1234.62 1455 Q1237.7 1459.58 1237.7 1468.33 Q1237.7 1477.06 1234.62 1481.67 Q1231.57 1486.25 1225.76 1486.25 Q1219.95 1486.25 1216.87 1481.67 Q1213.81 1477.06 1213.81 1468.33 Q1213.81 1459.58 1216.87 1455 Q1219.95 1450.39 1225.76 1450.39 Z" fill="#000000" fill-rule="nonzero" fill-opacity="1"></path><path clip-path="url(#clip440)" d="M1245.92 1479.7 L1250.8 1479.7 L1250.8 1485.58 L1245.92 1485.58 L1245.92 1479.7 Z" fill="#000000" fill-rule="nonzero" fill-opacity="1"></path><path clip-path="url(#clip440)" d="M1261.03 1451.02 L1279.39 1451.02 L1279.39 1454.96 L1265.32 1454.96 L1265.32 1463.43 Q1266.33 1463.08 1267.35 1462.92 Q1268.37 1462.73 1269.39 1462.73 Q1275.18 1462.73 1278.56 1465.9 Q1281.94 1469.08 1281.94 1474.49 Q1281.94 1480.07 1278.46 1483.17 Q1274.99 1486.25 1268.67 1486.25 Q1266.5 1486.25 1264.23 1485.88 Q1261.98 1485.51 1259.58 1484.77 L1259.58 1480.07 Q1261.66 1481.2 1263.88 1481.76 Q1266.1 1482.32 1268.58 1482.32 Q1272.58 1482.32 1274.92 1480.21 Q1277.26 1478.1 1277.26 1474.49 Q1277.26 1470.88 1274.92 1468.77 Q1272.58 1466.67 1268.58 1466.67 Q1266.7 1466.67 1264.83 1467.08 Q1262.98 1467.5 1261.03 1468.38 L1261.03 1451.02 Z" fill="#000000" fill-rule="nonzero" fill-opacity="1"></path><path clip-path="url(#clip440)" d="M1301.15 1454.1 Q1297.54 1454.1 1295.71 1457.66 Q1293.9 1461.2 1293.9 1468.33 Q1293.9 1475.44 1295.71 1479.01 Q1297.54 1482.55 1301.15 1482.55 Q1304.78 1482.55 1306.59 1479.01 Q1308.42 1475.44 1308.42 1468.33 Q1308.42 1461.2 1306.59 1457.66 Q1304.78 1454.1 1301.15 1454.1 M1301.15 1450.39 Q1306.96 1450.39 1310.01 1455 Q1313.09 1459.58 1313.09 1468.33 Q1313.09 1477.06 1310.01 1481.67 Q1306.96 1486.25 1301.15 1486.25 Q1295.34 1486.25 1292.26 1481.67 Q1289.2 1477.06 1289.2 1468.33 Q1289.2 1459.58 1292.26 1455 Q1295.34 1450.39 1301.15 1450.39 Z" fill="#000000" fill-rule="nonzero" fill-opacity="1"></path><path clip-path="url(#clip440)" d="M1740.08 1454.1 Q1736.46 1454.1 1734.64 1457.66 Q1732.83 1461.2 1732.83 1468.33 Q1732.83 1475.44 1734.64 1479.01 Q1736.46 1482.55 1740.08 1482.55 Q1743.71 1482.55 1745.52 1479.01 Q1747.34 1475.44 1747.34 1468.33 Q1747.34 1461.2 1745.52 1457.66 Q1743.71 1454.1 1740.08 1454.1 M1740.08 1450.39 Q1745.89 1450.39 1748.94 1455 Q1752.02 1459.58 1752.02 1468.33 Q1752.02 1477.06 1748.94 1481.67 Q1745.89 1486.25 1740.08 1486.25 Q1734.27 1486.25 1731.19 1481.67 Q1728.13 1477.06 1728.13 1468.33 Q1728.13 1459.58 1731.19 1455 Q1734.27 1450.39 1740.08 1450.39 Z" fill="#000000" fill-rule="nonzero" fill-opacity="1"></path><path clip-path="url(#clip440)" d="M1760.24 1479.7 L1765.12 1479.7 L1765.12 1485.58 L1760.24 1485.58 L1760.24 1479.7 Z" fill="#000000" fill-rule="nonzero" fill-opacity="1"></path><path clip-path="url(#clip440)" d="M1774.13 1451.02 L1796.35 1451.02 L1796.35 1453.01 L1783.8 1485.58 L1778.92 1485.58 L1790.72 1454.96 L1774.13 1454.96 L1774.13 1451.02 Z" fill="#000000" fill-rule="nonzero" fill-opacity="1"></path><path clip-path="url(#clip440)" d="M1805.52 1451.02 L1823.87 1451.02 L1823.87 1454.96 L1809.8 1454.96 L1809.8 1463.43 Q1810.82 1463.08 1811.83 1462.92 Q1812.85 1462.73 1813.87 1462.73 Q1819.66 1462.73 1823.04 1465.9 Q1826.42 1469.08 1826.42 1474.49 Q1826.42 1480.07 1822.95 1483.17 Q1819.47 1486.25 1813.15 1486.25 Q1810.98 1486.25 1808.71 1485.88 Q1806.46 1485.51 1804.06 1484.77 L1804.06 1480.07 Q1806.14 1481.2 1808.36 1481.76 Q1810.58 1482.32 1813.06 1482.32 Q1817.07 1482.32 1819.4 1480.21 Q1821.74 1478.1 1821.74 1474.49 Q1821.74 1470.88 1819.4 1468.77 Q1817.07 1466.67 1813.06 1466.67 Q1811.19 1466.67 1809.31 1467.08 Q1807.46 1467.5 1805.52 1468.38 L1805.52 1451.02 Z" fill="#000000" fill-rule="nonzero" fill-opacity="1"></path><path clip-path="url(#clip440)" d="M2243.17 1481.64 L2250.81 1481.64 L2250.81 1455.28 L2242.5 1456.95 L2242.5 1452.69 L2250.76 1451.02 L2255.44 1451.02 L2255.44 1481.64 L2263.08 1481.64 L2263.08 1485.58 L2243.17 1485.58 L2243.17 1481.64 Z" fill="#000000" fill-rule="nonzero" fill-opacity="1"></path><path clip-path="url(#clip440)" d="M2272.52 1479.7 L2277.41 1479.7 L2277.41 1485.58 L2272.52 1485.58 L2272.52 1479.7 Z" fill="#000000" fill-rule="nonzero" fill-opacity="1"></path><path clip-path="url(#clip440)" d="M2297.59 1454.1 Q2293.98 1454.1 2292.15 1457.66 Q2290.34 1461.2 2290.34 1468.33 Q2290.34 1475.44 2292.15 1479.01 Q2293.98 1482.55 2297.59 1482.55 Q2301.22 1482.55 2303.03 1479.01 Q2304.86 1475.44 2304.86 1468.33 Q2304.86 1461.2 2303.03 1457.66 Q2301.22 1454.1 2297.59 1454.1 M2297.59 1450.39 Q2303.4 1450.39 2306.46 1455 Q2309.53 1459.58 2309.53 1468.33 Q2309.53 1477.06 2306.46 1481.67 Q2303.4 1486.25 2297.59 1486.25 Q2291.78 1486.25 2288.7 1481.67 Q2285.65 1477.06 2285.65 1468.33 Q2285.65 1459.58 2288.7 1455 Q2291.78 1450.39 2297.59 1450.39 Z" fill="#000000" fill-rule="nonzero" fill-opacity="1"></path><path clip-path="url(#clip440)" d="M2327.75 1454.1 Q2324.14 1454.1 2322.31 1457.66 Q2320.51 1461.2 2320.51 1468.33 Q2320.51 1475.44 2322.31 1479.01 Q2324.14 1482.55 2327.75 1482.55 Q2331.39 1482.55 2333.19 1479.01 Q2335.02 1475.44 2335.02 1468.33 Q2335.02 1461.2 2333.19 1457.66 Q2331.39 1454.1 2327.75 1454.1 M2327.75 1450.39 Q2333.56 1450.39 2336.62 1455 Q2339.7 1459.58 2339.7 1468.33 Q2339.7 1477.06 2336.62 1481.67 Q2333.56 1486.25 2327.75 1486.25 Q2321.94 1486.25 2318.86 1481.67 Q2315.81 1477.06 2315.81 1468.33 Q2315.81 1459.58 2318.86 1455 Q2321.94 1450.39 2327.75 1450.39 Z" fill="#000000" fill-rule="nonzero" fill-opacity="1"></path><path clip-path="url(#clip440)" d="M1188.13 1537.87 Q1187.14 1537.3 1185.97 1537.04 Q1184.82 1536.76 1183.42 1536.76 Q1178.45 1536.76 1175.78 1540 Q1173.14 1543.22 1173.14 1549.27 L1173.14 1568.04 L1167.25 1568.04 L1167.25 1532.4 L1173.14 1532.4 L1173.14 1537.93 Q1174.99 1534.69 1177.95 1533.13 Q1180.91 1531.54 1185.14 1531.54 Q1185.74 1531.54 1186.48 1531.63 Q1187.21 1531.7 1188.1 1531.85 L1188.13 1537.87 Z" fill="#000000" fill-rule="nonzero" fill-opacity="1"></path><path clip-path="url(#clip440)" d="M1210.47 1550.12 Q1203.38 1550.12 1200.64 1551.75 Q1197.9 1553.37 1197.9 1557.29 Q1197.9 1560.4 1199.94 1562.25 Q1202.01 1564.07 1205.54 1564.07 Q1210.41 1564.07 1213.34 1560.63 Q1216.3 1557.16 1216.3 1551.43 L1216.3 1550.12 L1210.47 1550.12 M1222.15 1547.71 L1222.15 1568.04 L1216.3 1568.04 L1216.3 1562.63 Q1214.29 1565.88 1211.3 1567.44 Q1208.31 1568.97 1203.98 1568.97 Q1198.51 1568.97 1195.26 1565.91 Q1192.05 1562.82 1192.05 1557.67 Q1192.05 1551.65 1196.06 1548.6 Q1200.1 1545.54 1208.09 1545.54 L1216.3 1545.54 L1216.3 1544.97 Q1216.3 1540.93 1213.62 1538.73 Q1210.98 1536.5 1206.18 1536.5 Q1203.12 1536.5 1200.23 1537.23 Q1197.33 1537.97 1194.66 1539.43 L1194.66 1534.02 Q1197.87 1532.78 1200.89 1532.17 Q1203.92 1531.54 1206.78 1531.54 Q1214.52 1531.54 1218.34 1535.55 Q1222.15 1539.56 1222.15 1547.71 Z" fill="#000000" fill-rule="nonzero" fill-opacity="1"></path><path clip-path="url(#clip440)" d="M1257.68 1537.81 L1257.68 1518.52 L1263.53 1518.52 L1263.53 1568.04 L1257.68 1568.04 L1257.68 1562.7 Q1255.83 1565.88 1253 1567.44 Q1250.2 1568.97 1246.25 1568.97 Q1239.79 1568.97 1235.71 1563.81 Q1231.67 1558.65 1231.67 1550.25 Q1231.67 1541.85 1235.71 1536.69 Q1239.79 1531.54 1246.25 1531.54 Q1250.2 1531.54 1253 1533.1 Q1255.83 1534.62 1257.68 1537.81 M1237.72 1550.25 Q1237.72 1556.71 1240.36 1560.4 Q1243.03 1564.07 1247.68 1564.07 Q1252.33 1564.07 1255 1560.4 Q1257.68 1556.71 1257.68 1550.25 Q1257.68 1543.79 1255 1540.13 Q1252.33 1536.44 1247.68 1536.44 Q1243.03 1536.44 1240.36 1540.13 Q1237.72 1543.79 1237.72 1550.25 Z" fill="#000000" fill-rule="nonzero" fill-opacity="1"></path><path clip-path="url(#clip440)" d="M1275.59 1532.4 L1281.45 1532.4 L1281.45 1568.04 L1275.59 1568.04 L1275.59 1532.4 M1275.59 1518.52 L1281.45 1518.52 L1281.45 1525.93 L1275.59 1525.93 L1275.59 1518.52 Z" fill="#000000" fill-rule="nonzero" fill-opacity="1"></path><path clip-path="url(#clip440)" d="M1293.1 1553.98 L1293.1 1532.4 L1298.96 1532.4 L1298.96 1553.75 Q1298.96 1558.81 1300.93 1561.36 Q1302.9 1563.87 1306.85 1563.87 Q1311.59 1563.87 1314.33 1560.85 Q1317.1 1557.83 1317.1 1552.61 L1317.1 1532.4 L1322.96 1532.4 L1322.96 1568.04 L1317.1 1568.04 L1317.1 1562.57 Q1314.97 1565.82 1312.13 1567.41 Q1309.33 1568.97 1305.61 1568.97 Q1299.47 1568.97 1296.28 1565.15 Q1293.1 1561.33 1293.1 1553.98 M1307.84 1531.54 L1307.84 1531.54 Z" fill="#000000" fill-rule="nonzero" fill-opacity="1"></path><path clip-path="url(#clip440)" d="M1357.74 1533.45 L1357.74 1538.98 Q1355.26 1537.71 1352.59 1537.07 Q1349.91 1536.44 1347.05 1536.44 Q1342.69 1536.44 1340.49 1537.77 Q1338.33 1539.11 1338.33 1541.79 Q1338.33 1543.82 1339.89 1545 Q1341.45 1546.15 1346.16 1547.2 L1348.16 1547.64 Q1354.4 1548.98 1357.01 1551.43 Q1359.65 1553.85 1359.65 1558.21 Q1359.65 1563.17 1355.71 1566.07 Q1351.79 1568.97 1344.92 1568.97 Q1342.05 1568.97 1338.93 1568.39 Q1335.85 1567.85 1332.41 1566.74 L1332.41 1560.69 Q1335.66 1562.38 1338.81 1563.24 Q1341.96 1564.07 1345.04 1564.07 Q1349.18 1564.07 1351.41 1562.66 Q1353.64 1561.23 1353.64 1558.65 Q1353.64 1556.27 1352.02 1554.99 Q1350.42 1553.72 1344.98 1552.54 L1342.94 1552.07 Q1337.5 1550.92 1335.08 1548.56 Q1332.66 1546.18 1332.66 1542.04 Q1332.66 1537.01 1336.23 1534.27 Q1339.79 1531.54 1346.35 1531.54 Q1349.6 1531.54 1352.46 1532.01 Q1355.33 1532.49 1357.74 1533.45 Z" fill="#000000" fill-rule="nonzero" fill-opacity="1"></path><polyline clip-path="url(#clip442)" style="stroke:#000000; stroke-linecap:round; stroke-linejoin:round; stroke-width:2; stroke-opacity:0.1; fill:none" points="174.149,1386.4 2352.76,1386.4 "></polyline>
<polyline clip-path="url(#clip442)" style="stroke:#000000; stroke-linecap:round; stroke-linejoin:round; stroke-width:2; stroke-opacity:0.1; fill:none" points="174.149,1014.4 2352.76,1014.4 "></polyline>
<polyline clip-path="url(#clip442)" style="stroke:#000000; stroke-linecap:round; stroke-linejoin:round; stroke-width:2; stroke-opacity:0.1; fill:none" points="174.149,642.409 2352.76,642.409 "></polyline>
<polyline clip-path="url(#clip442)" style="stroke:#000000; stroke-linecap:round; stroke-linejoin:round; stroke-width:2; stroke-opacity:0.1; fill:none" points="174.149,270.415 2352.76,270.415 "></polyline>
<polyline clip-path="url(#clip440)" style="stroke:#000000; stroke-linecap:round; stroke-linejoin:round; stroke-width:4; stroke-opacity:1; fill:none" points="174.149,1423.18 174.149,123.472 "></polyline>
<polyline clip-path="url(#clip440)" style="stroke:#000000; stroke-linecap:round; stroke-linejoin:round; stroke-width:4; stroke-opacity:1; fill:none" points="174.149,1386.4 193.047,1386.4 "></polyline>
<polyline clip-path="url(#clip440)" style="stroke:#000000; stroke-linecap:round; stroke-linejoin:round; stroke-width:4; stroke-opacity:1; fill:none" points="174.149,1014.4 193.047,1014.4 "></polyline>
<polyline clip-path="url(#clip440)" style="stroke:#000000; stroke-linecap:round; stroke-linejoin:round; stroke-width:4; stroke-opacity:1; fill:none" points="174.149,642.409 193.047,642.409 "></polyline>
<polyline clip-path="url(#clip440)" style="stroke:#000000; stroke-linecap:round; stroke-linejoin:round; stroke-width:4; stroke-opacity:1; fill:none" points="174.149,270.415 193.047,270.415 "></polyline>
<path clip-path="url(#clip440)" d="M126.205 1372.19 Q122.593 1372.19 120.765 1375.76 Q118.959 1379.3 118.959 1386.43 Q118.959 1393.54 120.765 1397.1 Q122.593 1400.64 126.205 1400.64 Q129.839 1400.64 131.644 1397.1 Q133.473 1393.54 133.473 1386.43 Q133.473 1379.3 131.644 1375.76 Q129.839 1372.19 126.205 1372.19 M126.205 1368.49 Q132.015 1368.49 135.07 1373.1 Q138.149 1377.68 138.149 1386.43 Q138.149 1395.16 135.07 1399.76 Q132.015 1404.35 126.205 1404.35 Q120.394 1404.35 117.316 1399.76 Q114.26 1395.16 114.26 1386.43 Q114.26 1377.68 117.316 1373.1 Q120.394 1368.49 126.205 1368.49 Z" fill="#000000" fill-rule="nonzero" fill-opacity="1"></path><path clip-path="url(#clip440)" d="M118.242 1027.75 L125.88 1027.75 L125.88 1001.38 L117.57 1003.05 L117.57 998.789 L125.834 997.122 L130.51 997.122 L130.51 1027.75 L138.149 1027.75 L138.149 1031.68 L118.242 1031.68 L118.242 1027.75 Z" fill="#000000" fill-rule="nonzero" fill-opacity="1"></path><path clip-path="url(#clip440)" d="M121.83 655.753 L138.149 655.753 L138.149 659.689 L116.205 659.689 L116.205 655.753 Q118.867 652.999 123.45 648.369 Q128.056 643.716 129.237 642.374 Q131.482 639.851 132.362 638.115 Q133.265 636.355 133.265 634.666 Q133.265 631.911 131.32 630.175 Q129.399 628.439 126.297 628.439 Q124.098 628.439 121.644 629.203 Q119.214 629.967 116.436 631.517 L116.436 626.795 Q119.26 625.661 121.714 625.082 Q124.168 624.504 126.205 624.504 Q131.575 624.504 134.769 627.189 Q137.964 629.874 137.964 634.365 Q137.964 636.494 137.154 638.416 Q136.367 640.314 134.26 642.906 Q133.681 643.578 130.58 646.795 Q127.478 649.99 121.83 655.753 Z" fill="#000000" fill-rule="nonzero" fill-opacity="1"></path><path clip-path="url(#clip440)" d="M131.019 269.061 Q134.376 269.779 136.251 272.047 Q138.149 274.316 138.149 277.649 Q138.149 282.765 134.63 285.565 Q131.112 288.366 124.63 288.366 Q122.455 288.366 120.14 287.927 Q117.848 287.51 115.394 286.653 L115.394 282.14 Q117.339 283.274 119.654 283.853 Q121.968 284.431 124.492 284.431 Q128.89 284.431 131.181 282.695 Q133.496 280.959 133.496 277.649 Q133.496 274.593 131.343 272.88 Q129.214 271.144 125.394 271.144 L121.367 271.144 L121.367 267.302 L125.58 267.302 Q129.029 267.302 130.857 265.936 Q132.686 264.547 132.686 261.955 Q132.686 259.292 130.788 257.88 Q128.913 256.445 125.394 256.445 Q123.473 256.445 121.274 256.862 Q119.075 257.279 116.436 258.158 L116.436 253.992 Q119.098 253.251 121.413 252.88 Q123.751 252.51 125.811 252.51 Q131.135 252.51 134.237 254.941 Q137.339 257.348 137.339 261.468 Q137.339 264.339 135.695 266.329 Q134.052 268.297 131.019 269.061 Z" fill="#000000" fill-rule="nonzero" fill-opacity="1"></path><path clip-path="url(#clip440)" d="M35.1993 826.48 Q31.2526 824.283 29.3747 821.228 Q27.4968 818.172 27.4968 814.035 Q27.4968 808.465 31.4117 805.441 Q35.2948 802.417 42.4881 802.417 L64.0042 802.417 L64.0042 808.306 L42.679 808.306 Q37.5546 808.306 35.072 810.12 Q32.5894 811.934 32.5894 815.658 Q32.5894 820.209 35.6131 822.851 Q38.6368 825.493 43.8567 825.493 L64.0042 825.493 L64.0042 831.381 L42.679 831.381 Q37.5228 831.381 35.072 833.195 Q32.5894 835.01 32.5894 838.797 Q32.5894 843.285 35.6449 845.927 Q38.6686 848.569 43.8567 848.569 L64.0042 848.569 L64.0042 854.457 L28.3562 854.457 L28.3562 848.569 L33.8944 848.569 Q30.616 846.563 29.0564 843.763 Q27.4968 840.962 27.4968 837.11 Q27.4968 833.227 29.4702 830.522 Q31.4436 827.785 35.1993 826.48 Z" fill="#000000" fill-rule="nonzero" fill-opacity="1"></path><path clip-path="url(#clip440)" d="M46.0847 774.535 Q46.0847 781.633 47.7079 784.37 Q49.3312 787.108 53.2461 787.108 Q56.3653 787.108 58.2114 785.071 Q60.0256 783.002 60.0256 779.469 Q60.0256 774.599 56.5881 771.671 Q53.1188 768.711 47.3897 768.711 L46.0847 768.711 L46.0847 774.535 M43.6657 762.854 L64.0042 762.854 L64.0042 768.711 L58.5933 768.711 Q61.8398 770.716 63.3994 773.708 Q64.9272 776.7 64.9272 781.028 Q64.9272 786.503 61.8716 789.75 Q58.7843 792.964 53.6281 792.964 Q47.6125 792.964 44.5569 788.954 Q41.5014 784.912 41.5014 776.923 L41.5014 768.711 L40.9285 768.711 Q36.8862 768.711 34.6901 771.384 Q32.4621 774.026 32.4621 778.832 Q32.4621 781.888 33.1941 784.784 Q33.9262 787.681 35.3903 790.354 L29.9795 790.354 Q28.7381 787.14 28.1334 784.116 Q27.4968 781.092 27.4968 778.228 Q27.4968 770.493 31.5072 766.674 Q35.5176 762.854 43.6657 762.854 Z" fill="#000000" fill-rule="nonzero" fill-opacity="1"></path><path clip-path="url(#clip440)" d="M29.4065 728.066 L34.9447 728.066 Q33.6716 730.548 33.035 733.222 Q32.3984 735.896 32.3984 738.76 Q32.3984 743.121 33.7352 745.317 Q35.072 747.481 37.7456 747.481 Q39.7826 747.481 40.9603 745.922 Q42.1061 744.362 43.1565 739.651 L43.6021 737.646 Q44.9389 731.408 47.3897 728.798 Q49.8086 726.156 54.1691 726.156 Q59.1344 726.156 62.0308 730.103 Q64.9272 734.018 64.9272 740.893 Q64.9272 743.757 64.3543 746.876 Q63.8132 749.964 62.6992 753.401 L56.6518 753.401 Q58.3387 750.155 59.198 747.004 Q60.0256 743.853 60.0256 740.765 Q60.0256 736.628 58.6251 734.4 Q57.1929 732.172 54.6147 732.172 Q52.2276 732.172 50.9545 733.795 Q49.6813 735.386 48.5037 740.829 L48.0262 742.866 Q46.8804 748.309 44.5251 750.728 Q42.138 753.147 38.0002 753.147 Q32.9713 753.147 30.2341 749.582 Q27.4968 746.017 27.4968 739.46 Q27.4968 736.214 27.9743 733.349 Q28.4517 730.485 29.4065 728.066 Z" fill="#000000" fill-rule="nonzero" fill-opacity="1"></path><path clip-path="url(#clip440)" d="M29.4065 694.105 L34.9447 694.105 Q33.6716 696.587 33.035 699.261 Q32.3984 701.935 32.3984 704.799 Q32.3984 709.16 33.7352 711.356 Q35.072 713.52 37.7456 713.52 Q39.7826 713.52 40.9603 711.961 Q42.1061 710.401 43.1565 705.69 L43.6021 703.685 Q44.9389 697.447 47.3897 694.837 Q49.8086 692.195 54.1691 692.195 Q59.1344 692.195 62.0308 696.142 Q64.9272 700.057 64.9272 706.932 Q64.9272 709.796 64.3543 712.915 Q63.8132 716.003 62.6992 719.44 L56.6518 719.44 Q58.3387 716.194 59.198 713.043 Q60.0256 709.892 60.0256 706.804 Q60.0256 702.667 58.6251 700.439 Q57.1929 698.211 54.6147 698.211 Q52.2276 698.211 50.9545 699.834 Q49.6813 701.425 48.5037 706.868 L48.0262 708.905 Q46.8804 714.348 44.5251 716.767 Q42.138 719.186 38.0002 719.186 Q32.9713 719.186 30.2341 715.621 Q27.4968 712.056 27.4968 705.499 Q27.4968 702.253 27.9743 699.388 Q28.4517 696.524 29.4065 694.105 Z" fill="#000000" fill-rule="nonzero" fill-opacity="1"></path><path clip-path="url(#clip440)" d="M671.21 20.1573 L660.111 50.2555 L682.35 50.2555 L671.21 20.1573 M666.592 12.096 L675.869 12.096 L698.918 72.576 L690.412 72.576 L684.902 57.061 L657.64 57.061 L652.13 72.576 L643.502 72.576 L666.592 12.096 Z" fill="#000000" fill-rule="nonzero" fill-opacity="1"></path><path clip-path="url(#clip440)" d="M738.617 28.9478 L738.617 35.9153 Q735.458 34.1734 732.257 33.3227 Q729.098 32.4315 725.857 32.4315 Q718.606 32.4315 714.595 37.0496 Q710.585 41.6271 710.585 49.9314 Q710.585 58.2358 714.595 62.8538 Q718.606 67.4314 725.857 67.4314 Q729.098 67.4314 732.257 66.5807 Q735.458 65.6895 738.617 63.9476 L738.617 70.8341 Q735.498 72.2924 732.136 73.0216 Q728.814 73.7508 725.047 73.7508 Q714.798 73.7508 708.762 67.3098 Q702.726 60.8689 702.726 49.9314 Q702.726 38.832 708.803 32.472 Q714.919 26.1121 725.533 26.1121 Q728.976 26.1121 732.257 26.8413 Q735.539 27.5299 738.617 28.9478 Z" fill="#000000" fill-rule="nonzero" fill-opacity="1"></path><path clip-path="url(#clip440)" d="M758.953 14.324 L758.953 27.2059 L774.306 27.2059 L774.306 32.9987 L758.953 32.9987 L758.953 57.6282 Q758.953 63.1779 760.452 64.7578 Q761.991 66.3376 766.65 66.3376 L774.306 66.3376 L774.306 72.576 L766.65 72.576 Q758.021 72.576 754.74 69.3758 Q751.459 66.1351 751.459 57.6282 L751.459 32.9987 L745.99 32.9987 L745.99 27.2059 L751.459 27.2059 L751.459 14.324 L758.953 14.324 Z" fill="#000000" fill-rule="nonzero" fill-opacity="1"></path><path clip-path="url(#clip440)" d="M783.339 54.671 L783.339 27.2059 L790.793 27.2059 L790.793 54.3874 Q790.793 60.8284 793.304 64.0691 Q795.816 67.2693 800.839 67.2693 Q806.875 67.2693 810.359 63.421 Q813.883 59.5726 813.883 52.9291 L813.883 27.2059 L821.337 27.2059 L821.337 72.576 L813.883 72.576 L813.883 65.6084 Q811.169 69.7404 807.564 71.7658 Q803.999 73.7508 799.259 73.7508 Q791.441 73.7508 787.39 68.8897 Q783.339 64.0286 783.339 54.671 M802.095 26.1121 L802.095 26.1121 Z" fill="#000000" fill-rule="nonzero" fill-opacity="1"></path><path clip-path="url(#clip440)" d="M857.309 49.7694 Q848.275 49.7694 844.791 51.8354 Q841.308 53.9013 841.308 58.8839 Q841.308 62.8538 843.9 65.2034 Q846.533 67.5124 851.03 67.5124 Q857.228 67.5124 860.955 63.1374 Q864.722 58.7219 864.722 51.4303 L864.722 49.7694 L857.309 49.7694 M872.176 46.6907 L872.176 72.576 L864.722 72.576 L864.722 65.6895 Q862.17 69.8214 858.362 71.8063 Q854.554 73.7508 849.045 73.7508 Q842.077 73.7508 837.945 69.8619 Q833.854 65.9325 833.854 59.3701 Q833.854 51.7138 838.958 47.825 Q844.103 43.9361 854.271 43.9361 L864.722 43.9361 L864.722 43.2069 Q864.722 38.0623 861.319 35.2672 Q857.957 32.4315 851.84 32.4315 Q847.951 32.4315 844.265 33.3632 Q840.579 34.295 837.176 36.1584 L837.176 29.2718 Q841.267 27.692 845.116 26.9223 Q848.964 26.1121 852.61 26.1121 Q862.453 26.1121 867.314 31.2163 Q872.176 36.3204 872.176 46.6907 Z" fill="#000000" fill-rule="nonzero" fill-opacity="1"></path><path clip-path="url(#clip440)" d="M887.529 9.54393 L894.982 9.54393 L894.982 72.576 L887.529 72.576 L887.529 9.54393 Z" fill="#000000" fill-rule="nonzero" fill-opacity="1"></path><path clip-path="url(#clip440)" d="M931.602 27.2059 L939.502 27.2059 L953.68 65.2844 L967.858 27.2059 L975.757 27.2059 L958.743 72.576 L948.616 72.576 L931.602 27.2059 Z" fill="#000000" fill-rule="nonzero" fill-opacity="1"></path><path clip-path="url(#clip440)" d="M1014.97 28.5427 L1014.97 35.5912 Q1011.81 33.9709 1008.41 33.1607 Q1005 32.3505 1001.36 32.3505 Q995.809 32.3505 993.014 34.0519 Q990.259 35.7533 990.259 39.156 Q990.259 41.7486 992.244 43.2475 Q994.229 44.7058 1000.22 46.0426 L1002.78 46.6097 Q1010.72 48.3111 1014.04 51.4303 Q1017.4 54.509 1017.4 60.0587 Q1017.4 66.3781 1012.38 70.0644 Q1007.39 73.7508 998.645 73.7508 Q994.999 73.7508 991.029 73.0216 Q987.1 72.3329 982.725 70.9151 L982.725 63.2184 Q986.857 65.3654 990.867 66.4591 Q994.877 67.5124 998.807 67.5124 Q1004.07 67.5124 1006.91 65.73 Q1009.74 63.9071 1009.74 60.6258 Q1009.74 57.5877 1007.68 55.9673 Q1005.65 54.3469 998.726 52.8481 L996.133 52.2405 Q989.206 50.7821 986.128 47.7845 Q983.049 44.7463 983.049 39.4801 Q983.049 33.0797 987.586 29.5959 Q992.123 26.1121 1000.47 26.1121 Q1004.6 26.1121 1008.25 26.7198 Q1011.89 27.3274 1014.97 28.5427 Z" fill="#000000" fill-rule="nonzero" fill-opacity="1"></path><path clip-path="url(#clip440)" d="M1055.03 12.096 L1063.26 12.096 L1063.26 48.8377 Q1063.26 58.5599 1066.78 62.8538 Q1070.31 67.1073 1078.2 67.1073 Q1086.06 67.1073 1089.59 62.8538 Q1093.11 58.5599 1093.11 48.8377 L1093.11 12.096 L1101.34 12.096 L1101.34 49.8504 Q1101.34 61.6791 1095.46 67.7149 Q1089.63 73.7508 1078.2 73.7508 Q1066.74 73.7508 1060.87 67.7149 Q1055.03 61.6791 1055.03 49.8504 L1055.03 12.096 Z" fill="#000000" fill-rule="nonzero" fill-opacity="1"></path><path clip-path="url(#clip440)" d="M1124.87 18.8205 L1124.87 65.8515 L1134.76 65.8515 Q1147.27 65.8515 1153.07 60.1802 Q1158.9 54.509 1158.9 42.2752 Q1158.9 30.1225 1153.07 24.4918 Q1147.27 18.8205 1134.76 18.8205 L1124.87 18.8205 M1116.69 12.096 L1133.5 12.096 Q1151.08 12.096 1159.3 19.4281 Q1167.53 26.7198 1167.53 42.2752 Q1167.53 57.9117 1159.26 65.2439 Q1151 72.576 1133.5 72.576 L1116.69 72.576 L1116.69 12.096 Z" fill="#000000" fill-rule="nonzero" fill-opacity="1"></path><path clip-path="url(#clip440)" d="M1180.57 12.096 L1218.81 12.096 L1218.81 18.9825 L1188.75 18.9825 L1188.75 36.8875 L1217.56 36.8875 L1217.56 43.7741 L1188.75 43.7741 L1188.75 65.6895 L1219.54 65.6895 L1219.54 72.576 L1180.57 72.576 L1180.57 12.096 Z" fill="#000000" fill-rule="nonzero" fill-opacity="1"></path><path clip-path="url(#clip440)" d="M1285.33 34.1734 Q1284.07 33.4443 1282.57 33.1202 Q1281.11 32.7556 1279.33 32.7556 Q1273.01 32.7556 1269.61 36.8875 Q1266.25 40.9789 1266.25 48.6757 L1266.25 72.576 L1258.75 72.576 L1258.75 27.2059 L1266.25 27.2059 L1266.25 34.2544 Q1268.6 30.1225 1272.36 28.1376 Q1276.13 26.1121 1281.52 26.1121 Q1282.29 26.1121 1283.22 26.2337 Q1284.15 26.3147 1285.29 26.5172 L1285.33 34.1734 Z" fill="#000000" fill-rule="nonzero" fill-opacity="1"></path><path clip-path="url(#clip440)" d="M1330.13 48.0275 L1330.13 51.6733 L1295.86 51.6733 Q1296.35 59.3701 1300.48 63.421 Q1304.65 67.4314 1312.06 67.4314 Q1316.36 67.4314 1320.37 66.3781 Q1324.42 65.3249 1328.39 63.2184 L1328.39 70.267 Q1324.38 71.9684 1320.17 72.8596 Q1315.95 73.7508 1311.62 73.7508 Q1300.76 73.7508 1294.4 67.4314 Q1288.08 61.1119 1288.08 50.3365 Q1288.08 39.1965 1294.08 32.6746 Q1300.11 26.1121 1310.32 26.1121 Q1319.48 26.1121 1324.78 32.0264 Q1330.13 37.9003 1330.13 48.0275 M1322.68 45.84 Q1322.6 39.7232 1319.23 36.0774 Q1315.91 32.4315 1310.4 32.4315 Q1304.16 32.4315 1300.4 35.9558 Q1296.67 39.4801 1296.1 45.8805 L1322.68 45.84 Z" fill="#000000" fill-rule="nonzero" fill-opacity="1"></path><path clip-path="url(#clip440)" d="M1375.01 28.9478 L1375.01 35.9153 Q1371.85 34.1734 1368.65 33.3227 Q1365.49 32.4315 1362.25 32.4315 Q1355 32.4315 1350.99 37.0496 Q1346.98 41.6271 1346.98 49.9314 Q1346.98 58.2358 1350.99 62.8538 Q1355 67.4314 1362.25 67.4314 Q1365.49 67.4314 1368.65 66.5807 Q1371.85 65.6895 1375.01 63.9476 L1375.01 70.8341 Q1371.9 72.2924 1368.53 73.0216 Q1365.21 73.7508 1361.44 73.7508 Q1351.19 73.7508 1345.16 67.3098 Q1339.12 60.8689 1339.12 49.9314 Q1339.12 38.832 1345.2 32.472 Q1351.32 26.1121 1361.93 26.1121 Q1365.37 26.1121 1368.65 26.8413 Q1371.94 27.5299 1375.01 28.9478 Z" fill="#000000" fill-rule="nonzero" fill-opacity="1"></path><path clip-path="url(#clip440)" d="M1405.56 32.4315 Q1399.56 32.4315 1396.08 37.1306 Q1392.6 41.7891 1392.6 49.9314 Q1392.6 58.0738 1396.04 62.7728 Q1399.52 67.4314 1405.56 67.4314 Q1411.51 67.4314 1415 62.7323 Q1418.48 58.0333 1418.48 49.9314 Q1418.48 41.8701 1415 37.1711 Q1411.51 32.4315 1405.56 32.4315 M1405.56 26.1121 Q1415.28 26.1121 1420.83 32.4315 Q1426.38 38.7509 1426.38 49.9314 Q1426.38 61.0714 1420.83 67.4314 Q1415.28 73.7508 1405.56 73.7508 Q1395.8 73.7508 1390.25 67.4314 Q1384.74 61.0714 1384.74 49.9314 Q1384.74 38.7509 1390.25 32.4315 Q1395.8 26.1121 1405.56 26.1121 Z" fill="#000000" fill-rule="nonzero" fill-opacity="1"></path><path clip-path="url(#clip440)" d="M1433.39 27.2059 L1441.29 27.2059 L1455.47 65.2844 L1469.64 27.2059 L1477.54 27.2059 L1460.53 72.576 L1450.4 72.576 L1433.39 27.2059 Z" fill="#000000" fill-rule="nonzero" fill-opacity="1"></path><path clip-path="url(#clip440)" d="M1526.64 48.0275 L1526.64 51.6733 L1492.37 51.6733 Q1492.86 59.3701 1496.99 63.421 Q1501.16 67.4314 1508.57 67.4314 Q1512.87 67.4314 1516.88 66.3781 Q1520.93 65.3249 1524.9 63.2184 L1524.9 70.267 Q1520.89 71.9684 1516.67 72.8596 Q1512.46 73.7508 1508.13 73.7508 Q1497.27 73.7508 1490.91 67.4314 Q1484.59 61.1119 1484.59 50.3365 Q1484.59 39.1965 1490.59 32.6746 Q1496.62 26.1121 1506.83 26.1121 Q1515.99 26.1121 1521.29 32.0264 Q1526.64 37.9003 1526.64 48.0275 M1519.19 45.84 Q1519.1 39.7232 1515.74 36.0774 Q1512.42 32.4315 1506.91 32.4315 Q1500.67 32.4315 1496.91 35.9558 Q1493.18 39.4801 1492.61 45.8805 L1519.19 45.84 Z" fill="#000000" fill-rule="nonzero" fill-opacity="1"></path><path clip-path="url(#clip440)" d="M1565.16 34.1734 Q1563.91 33.4443 1562.41 33.1202 Q1560.95 32.7556 1559.17 32.7556 Q1552.85 32.7556 1549.45 36.8875 Q1546.08 40.9789 1546.08 48.6757 L1546.08 72.576 L1538.59 72.576 L1538.59 27.2059 L1546.08 27.2059 L1546.08 34.2544 Q1548.43 30.1225 1552.2 28.1376 Q1555.97 26.1121 1561.36 26.1121 Q1562.13 26.1121 1563.06 26.2337 Q1563.99 26.3147 1565.12 26.5172 L1565.16 34.1734 Z" fill="#000000" fill-rule="nonzero" fill-opacity="1"></path><path clip-path="url(#clip440)" d="M1609.97 48.0275 L1609.97 51.6733 L1575.7 51.6733 Q1576.18 59.3701 1580.31 63.421 Q1584.49 67.4314 1591.9 67.4314 Q1596.19 67.4314 1600.2 66.3781 Q1604.25 65.3249 1608.22 63.2184 L1608.22 70.267 Q1604.21 71.9684 1600 72.8596 Q1595.79 73.7508 1591.45 73.7508 Q1580.6 73.7508 1574.24 67.4314 Q1567.92 61.1119 1567.92 50.3365 Q1567.92 39.1965 1573.91 32.6746 Q1579.95 26.1121 1590.16 26.1121 Q1599.31 26.1121 1604.62 32.0264 Q1609.97 37.9003 1609.97 48.0275 M1602.51 45.84 Q1602.43 39.7232 1599.07 36.0774 Q1595.75 32.4315 1590.24 32.4315 Q1584 32.4315 1580.23 35.9558 Q1576.51 39.4801 1575.94 45.8805 L1602.51 45.84 Z" fill="#000000" fill-rule="nonzero" fill-opacity="1"></path><path clip-path="url(#clip440)" d="M1652.06 34.0924 L1652.06 9.54393 L1659.51 9.54393 L1659.51 72.576 L1652.06 72.576 L1652.06 65.7705 Q1649.71 69.8214 1646.1 71.8063 Q1642.54 73.7508 1637.51 73.7508 Q1629.29 73.7508 1624.1 67.1883 Q1618.96 60.6258 1618.96 49.9314 Q1618.96 39.2371 1624.1 32.6746 Q1629.29 26.1121 1637.51 26.1121 Q1642.54 26.1121 1646.1 28.0971 Q1649.71 30.0415 1652.06 34.0924 M1626.66 49.9314 Q1626.66 58.1548 1630.02 62.8538 Q1633.42 67.5124 1639.34 67.5124 Q1645.25 67.5124 1648.65 62.8538 Q1652.06 58.1548 1652.06 49.9314 Q1652.06 41.7081 1648.65 37.0496 Q1645.25 32.3505 1639.34 32.3505 Q1633.42 32.3505 1630.02 37.0496 Q1626.66 41.7081 1626.66 49.9314 Z" fill="#000000" fill-rule="nonzero" fill-opacity="1"></path><path clip-path="url(#clip440)" d="M1708.61 14.324 L1708.61 27.2059 L1723.96 27.2059 L1723.96 32.9987 L1708.61 32.9987 L1708.61 57.6282 Q1708.61 63.1779 1710.11 64.7578 Q1711.64 66.3376 1716.3 66.3376 L1723.96 66.3376 L1723.96 72.576 L1716.3 72.576 Q1707.67 72.576 1704.39 69.3758 Q1701.11 66.1351 1701.11 57.6282 L1701.11 32.9987 L1695.64 32.9987 L1695.64 27.2059 L1701.11 27.2059 L1701.11 14.324 L1708.61 14.324 Z" fill="#000000" fill-rule="nonzero" fill-opacity="1"></path><path clip-path="url(#clip440)" d="M1772.57 48.0275 L1772.57 51.6733 L1738.3 51.6733 Q1738.79 59.3701 1742.92 63.421 Q1747.09 67.4314 1754.5 67.4314 Q1758.8 67.4314 1762.81 66.3781 Q1766.86 65.3249 1770.83 63.2184 L1770.83 70.267 Q1766.82 71.9684 1762.6 72.8596 Q1758.39 73.7508 1754.06 73.7508 Q1743.2 73.7508 1736.84 67.4314 Q1730.52 61.1119 1730.52 50.3365 Q1730.52 39.1965 1736.52 32.6746 Q1742.55 26.1121 1752.76 26.1121 Q1761.92 26.1121 1767.22 32.0264 Q1772.57 37.9003 1772.57 48.0275 M1765.12 45.84 Q1765.04 39.7232 1761.67 36.0774 Q1758.35 32.4315 1752.84 32.4315 Q1746.6 32.4315 1742.84 35.9558 Q1739.11 39.4801 1738.54 45.8805 L1765.12 45.84 Z" fill="#000000" fill-rule="nonzero" fill-opacity="1"></path><path clip-path="url(#clip440)" d="M1811.09 34.1734 Q1809.84 33.4443 1808.34 33.1202 Q1806.88 32.7556 1805.1 32.7556 Q1798.78 32.7556 1795.38 36.8875 Q1792.01 40.9789 1792.01 48.6757 L1792.01 72.576 L1784.52 72.576 L1784.52 27.2059 L1792.01 27.2059 L1792.01 34.2544 Q1794.36 30.1225 1798.13 28.1376 Q1801.9 26.1121 1807.29 26.1121 Q1808.06 26.1121 1808.99 26.2337 Q1809.92 26.3147 1811.05 26.5172 L1811.09 34.1734 Z" fill="#000000" fill-rule="nonzero" fill-opacity="1"></path><path clip-path="url(#clip440)" d="M1852.78 35.9153 Q1855.57 30.8922 1859.46 28.5022 Q1863.35 26.1121 1868.62 26.1121 Q1875.71 26.1121 1879.55 31.0947 Q1883.4 36.0368 1883.4 45.1919 L1883.4 72.576 L1875.91 72.576 L1875.91 45.4349 Q1875.91 38.913 1873.6 35.7533 Q1871.29 32.5936 1866.55 32.5936 Q1860.76 32.5936 1857.4 36.4419 Q1854.03 40.2903 1854.03 46.9338 L1854.03 72.576 L1846.54 72.576 L1846.54 45.4349 Q1846.54 38.8725 1844.23 35.7533 Q1841.92 32.5936 1837.1 32.5936 Q1831.39 32.5936 1828.03 36.4824 Q1824.66 40.3308 1824.66 46.9338 L1824.66 72.576 L1817.17 72.576 L1817.17 27.2059 L1824.66 27.2059 L1824.66 34.2544 Q1827.22 30.082 1830.78 28.0971 Q1834.35 26.1121 1839.25 26.1121 Q1844.19 26.1121 1847.63 28.6237 Q1851.12 31.1352 1852.78 35.9153 Z" fill="#000000" fill-rule="nonzero" fill-opacity="1"></path><circle clip-path="url(#clip442)" cx="235.808" cy="1386.4" r="14.4" fill="#0000ff" fill-rule="evenodd" fill-opacity="1" stroke="#000000" stroke-opacity="1" stroke-width="3.2"></circle>
<circle clip-path="url(#clip442)" cx="306.68" cy="1386.35" r="14.4" fill="#0000ff" fill-rule="evenodd" fill-opacity="1" stroke="#000000" stroke-opacity="1" stroke-width="3.2"></circle>
<circle clip-path="url(#clip442)" cx="377.552" cy="1385.99" r="14.4" fill="#0000ff" fill-rule="evenodd" fill-opacity="1" stroke="#000000" stroke-opacity="1" stroke-width="3.2"></circle>
<circle clip-path="url(#clip442)" cx="448.424" cy="1385.04" r="14.4" fill="#0000ff" fill-rule="evenodd" fill-opacity="1" stroke="#000000" stroke-opacity="1" stroke-width="3.2"></circle>
<circle clip-path="url(#clip442)" cx="519.296" cy="1383.18" r="14.4" fill="#0000ff" fill-rule="evenodd" fill-opacity="1" stroke="#000000" stroke-opacity="1" stroke-width="3.2"></circle>
<circle clip-path="url(#clip442)" cx="590.168" cy="1380.12" r="14.4" fill="#0000ff" fill-rule="evenodd" fill-opacity="1" stroke="#000000" stroke-opacity="1" stroke-width="3.2"></circle>
<circle clip-path="url(#clip442)" cx="661.04" cy="1375.56" r="14.4" fill="#0000ff" fill-rule="evenodd" fill-opacity="1" stroke="#000000" stroke-opacity="1" stroke-width="3.2"></circle>
<circle clip-path="url(#clip442)" cx="731.912" cy="1369.18" r="14.4" fill="#0000ff" fill-rule="evenodd" fill-opacity="1" stroke="#000000" stroke-opacity="1" stroke-width="3.2"></circle>
<circle clip-path="url(#clip442)" cx="802.784" cy="1360.7" r="14.4" fill="#0000ff" fill-rule="evenodd" fill-opacity="1" stroke="#000000" stroke-opacity="1" stroke-width="3.2"></circle>
<circle clip-path="url(#clip442)" cx="873.656" cy="1349.82" r="14.4" fill="#0000ff" fill-rule="evenodd" fill-opacity="1" stroke="#000000" stroke-opacity="1" stroke-width="3.2"></circle>
<circle clip-path="url(#clip442)" cx="944.528" cy="1336.22" r="14.4" fill="#0000ff" fill-rule="evenodd" fill-opacity="1" stroke="#000000" stroke-opacity="1" stroke-width="3.2"></circle>
<circle clip-path="url(#clip442)" cx="1015.4" cy="1319.61" r="14.4" fill="#0000ff" fill-rule="evenodd" fill-opacity="1" stroke="#000000" stroke-opacity="1" stroke-width="3.2"></circle>
<circle clip-path="url(#clip442)" cx="1086.27" cy="1299.69" r="14.4" fill="#0000ff" fill-rule="evenodd" fill-opacity="1" stroke="#000000" stroke-opacity="1" stroke-width="3.2"></circle>
<circle clip-path="url(#clip442)" cx="1157.14" cy="1276.15" r="14.4" fill="#0000ff" fill-rule="evenodd" fill-opacity="1" stroke="#000000" stroke-opacity="1" stroke-width="3.2"></circle>
<circle clip-path="url(#clip442)" cx="1228.02" cy="1248.71" r="14.4" fill="#0000ff" fill-rule="evenodd" fill-opacity="1" stroke="#000000" stroke-opacity="1" stroke-width="3.2"></circle>
<circle clip-path="url(#clip442)" cx="1298.89" cy="1217.04" r="14.4" fill="#0000ff" fill-rule="evenodd" fill-opacity="1" stroke="#000000" stroke-opacity="1" stroke-width="3.2"></circle>
<circle clip-path="url(#clip442)" cx="1369.76" cy="1180.86" r="14.4" fill="#0000ff" fill-rule="evenodd" fill-opacity="1" stroke="#000000" stroke-opacity="1" stroke-width="3.2"></circle>
<circle clip-path="url(#clip442)" cx="1440.63" cy="1139.87" r="14.4" fill="#0000ff" fill-rule="evenodd" fill-opacity="1" stroke="#000000" stroke-opacity="1" stroke-width="3.2"></circle>
<circle clip-path="url(#clip442)" cx="1511.5" cy="1093.75" r="14.4" fill="#0000ff" fill-rule="evenodd" fill-opacity="1" stroke="#000000" stroke-opacity="1" stroke-width="3.2"></circle>
<circle clip-path="url(#clip442)" cx="1582.38" cy="1042.22" r="14.4" fill="#0000ff" fill-rule="evenodd" fill-opacity="1" stroke="#000000" stroke-opacity="1" stroke-width="3.2"></circle>
<circle clip-path="url(#clip442)" cx="1653.25" cy="984.966" r="14.4" fill="#0000ff" fill-rule="evenodd" fill-opacity="1" stroke="#000000" stroke-opacity="1" stroke-width="3.2"></circle>
<circle clip-path="url(#clip442)" cx="1724.12" cy="921.69" r="14.4" fill="#0000ff" fill-rule="evenodd" fill-opacity="1" stroke="#000000" stroke-opacity="1" stroke-width="3.2"></circle>
<circle clip-path="url(#clip442)" cx="1794.99" cy="852.092" r="14.4" fill="#0000ff" fill-rule="evenodd" fill-opacity="1" stroke="#000000" stroke-opacity="1" stroke-width="3.2"></circle>
<circle clip-path="url(#clip442)" cx="1865.86" cy="775.871" r="14.4" fill="#0000ff" fill-rule="evenodd" fill-opacity="1" stroke="#000000" stroke-opacity="1" stroke-width="3.2"></circle>
<circle clip-path="url(#clip442)" cx="1936.74" cy="692.725" r="14.4" fill="#0000ff" fill-rule="evenodd" fill-opacity="1" stroke="#000000" stroke-opacity="1" stroke-width="3.2"></circle>
<circle clip-path="url(#clip442)" cx="2007.61" cy="602.353" r="14.4" fill="#0000ff" fill-rule="evenodd" fill-opacity="1" stroke="#000000" stroke-opacity="1" stroke-width="3.2"></circle>
<circle clip-path="url(#clip442)" cx="2078.48" cy="504.454" r="14.4" fill="#0000ff" fill-rule="evenodd" fill-opacity="1" stroke="#000000" stroke-opacity="1" stroke-width="3.2"></circle>
<circle clip-path="url(#clip442)" cx="2149.35" cy="398.727" r="14.4" fill="#0000ff" fill-rule="evenodd" fill-opacity="1" stroke="#000000" stroke-opacity="1" stroke-width="3.2"></circle>
<circle clip-path="url(#clip442)" cx="2220.23" cy="284.872" r="14.4" fill="#0000ff" fill-rule="evenodd" fill-opacity="1" stroke="#000000" stroke-opacity="1" stroke-width="3.2"></circle>
<circle clip-path="url(#clip442)" cx="2291.1" cy="162.586" r="14.4" fill="#0000ff" fill-rule="evenodd" fill-opacity="1" stroke="#000000" stroke-opacity="1" stroke-width="3.2"></circle>
<polyline clip-path="url(#clip442)" style="stroke:#ff0000; stroke-linecap:round; stroke-linejoin:round; stroke-width:4; stroke-opacity:1; fill:none" points="235.808,1386.4 306.68,1384.19 377.552,1381.62 448.424,1378.6 519.296,1375.09 590.168,1370.92 661.04,1365.85 731.912,1359.66 802.784,1352.06 873.656,1342.71 944.528,1331.23 1015.4,1317.11 1086.27,1299.9 1157.14,1278.2 1228.02,1251.72 1298.89,1220.83 1369.76,1184.78 1440.63,1142.93 1511.5,1095.39 1582.38,1042.33 1653.25,983.885 1724.12,920.133 1794.99,850.781 1865.86,775.313 1936.74,693.188 2007.61,603.819 2078.48,506.568 2149.35,400.74 2220.23,285.577 2291.1,160.256 "></polyline>
<path clip-path="url(#clip440)" d="M246.769 322.316 L937.984 322.316 L937.984 166.796 L246.769 166.796  Z" fill="#ffffff" fill-rule="evenodd" fill-opacity="1"></path>
<polyline clip-path="url(#clip440)" style="stroke:#000000; stroke-linecap:round; stroke-linejoin:round; stroke-width:4; stroke-opacity:1; fill:none" points="246.769,322.316 937.984,322.316 937.984,166.796 246.769,166.796 246.769,322.316 "></polyline>
<circle clip-path="url(#clip440)" cx="343.596" cy="218.636" r="20.48" fill="#0000ff" fill-rule="evenodd" fill-opacity="1" stroke="#000000" stroke-opacity="1" stroke-width="4.55111"></circle>
<path clip-path="url(#clip440)" d="M456.256 205.962 L449.914 223.161 L462.622 223.161 L456.256 205.962 M453.617 201.356 L458.918 201.356 L472.09 235.916 L467.229 235.916 L464.08 227.05 L448.502 227.05 L445.354 235.916 L440.423 235.916 L453.617 201.356 Z" fill="#000000" fill-rule="nonzero" fill-opacity="1"></path><path clip-path="url(#clip440)" d="M494.775 210.985 L494.775 214.967 Q492.969 213.971 491.14 213.485 Q489.335 212.976 487.483 212.976 Q483.34 212.976 481.048 215.615 Q478.756 218.231 478.756 222.976 Q478.756 227.721 481.048 230.36 Q483.34 232.976 487.483 232.976 Q489.335 232.976 491.14 232.49 Q492.969 231.981 494.775 230.985 L494.775 234.92 Q492.992 235.754 491.071 236.17 Q489.173 236.587 487.02 236.587 Q481.164 236.587 477.715 232.906 Q474.266 229.226 474.266 222.976 Q474.266 216.633 477.738 212.999 Q481.233 209.365 487.298 209.365 Q489.265 209.365 491.14 209.782 Q493.015 210.175 494.775 210.985 Z" fill="#000000" fill-rule="nonzero" fill-opacity="1"></path><path clip-path="url(#clip440)" d="M506.395 202.629 L506.395 209.99 L515.168 209.99 L515.168 213.3 L506.395 213.3 L506.395 227.374 Q506.395 230.545 507.251 231.448 Q508.131 232.351 510.793 232.351 L515.168 232.351 L515.168 235.916 L510.793 235.916 Q505.863 235.916 503.988 234.087 Q502.113 232.235 502.113 227.374 L502.113 213.3 L498.988 213.3 L498.988 209.99 L502.113 209.99 L502.113 202.629 L506.395 202.629 Z" fill="#000000" fill-rule="nonzero" fill-opacity="1"></path><path clip-path="url(#clip440)" d="M520.33 225.684 L520.33 209.99 L524.589 209.99 L524.589 225.522 Q524.589 229.203 526.024 231.055 Q527.46 232.883 530.33 232.883 Q533.779 232.883 535.77 230.684 Q537.784 228.485 537.784 224.689 L537.784 209.99 L542.043 209.99 L542.043 235.916 L537.784 235.916 L537.784 231.934 Q536.233 234.295 534.173 235.453 Q532.136 236.587 529.427 236.587 Q524.96 236.587 522.645 233.809 Q520.33 231.031 520.33 225.684 M531.048 209.365 L531.048 209.365 Z" fill="#000000" fill-rule="nonzero" fill-opacity="1"></path><path clip-path="url(#clip440)" d="M562.598 222.883 Q557.436 222.883 555.446 224.064 Q553.455 225.244 553.455 228.092 Q553.455 230.36 554.936 231.703 Q556.441 233.022 559.01 233.022 Q562.552 233.022 564.682 230.522 Q566.834 227.999 566.834 223.832 L566.834 222.883 L562.598 222.883 M571.094 221.124 L571.094 235.916 L566.834 235.916 L566.834 231.981 Q565.376 234.342 563.2 235.476 Q561.024 236.587 557.876 236.587 Q553.895 236.587 551.534 234.365 Q549.196 232.119 549.196 228.369 Q549.196 223.994 552.112 221.772 Q555.052 219.55 560.862 219.55 L566.834 219.55 L566.834 219.133 Q566.834 216.194 564.89 214.596 Q562.969 212.976 559.473 212.976 Q557.251 212.976 555.145 213.508 Q553.038 214.041 551.094 215.106 L551.094 211.17 Q553.432 210.268 555.631 209.828 Q557.83 209.365 559.913 209.365 Q565.538 209.365 568.316 212.282 Q571.094 215.198 571.094 221.124 Z" fill="#000000" fill-rule="nonzero" fill-opacity="1"></path><path clip-path="url(#clip440)" d="M579.867 199.897 L584.126 199.897 L584.126 235.916 L579.867 235.916 L579.867 199.897 Z" fill="#000000" fill-rule="nonzero" fill-opacity="1"></path><path clip-path="url(#clip440)" d="M612.32 202.629 L612.32 209.99 L621.093 209.99 L621.093 213.3 L612.32 213.3 L612.32 227.374 Q612.32 230.545 613.177 231.448 Q614.056 232.351 616.718 232.351 L621.093 232.351 L621.093 235.916 L616.718 235.916 Q611.788 235.916 609.913 234.087 Q608.038 232.235 608.038 227.374 L608.038 213.3 L604.913 213.3 L604.913 209.99 L608.038 209.99 L608.038 202.629 L612.32 202.629 Z" fill="#000000" fill-rule="nonzero" fill-opacity="1"></path><path clip-path="url(#clip440)" d="M648.871 221.888 L648.871 223.971 L629.288 223.971 Q629.566 228.369 631.927 230.684 Q634.311 232.976 638.547 232.976 Q641.001 232.976 643.292 232.374 Q645.607 231.772 647.876 230.569 L647.876 234.596 Q645.584 235.568 643.177 236.078 Q640.769 236.587 638.292 236.587 Q632.089 236.587 628.455 232.976 Q624.843 229.365 624.843 223.207 Q624.843 216.842 628.269 213.115 Q631.718 209.365 637.552 209.365 Q642.783 209.365 645.816 212.745 Q648.871 216.101 648.871 221.888 M644.612 220.638 Q644.566 217.143 642.644 215.059 Q640.746 212.976 637.598 212.976 Q634.033 212.976 631.88 214.99 Q629.751 217.004 629.427 220.661 L644.612 220.638 Z" fill="#000000" fill-rule="nonzero" fill-opacity="1"></path><path clip-path="url(#clip440)" d="M670.885 213.971 Q670.167 213.555 669.311 213.37 Q668.477 213.161 667.459 213.161 Q663.848 213.161 661.903 215.522 Q659.982 217.86 659.982 222.258 L659.982 235.916 L655.7 235.916 L655.7 209.99 L659.982 209.99 L659.982 214.018 Q661.325 211.657 663.477 210.522 Q665.63 209.365 668.709 209.365 Q669.149 209.365 669.681 209.434 Q670.214 209.481 670.862 209.596 L670.885 213.971 Z" fill="#000000" fill-rule="nonzero" fill-opacity="1"></path><path clip-path="url(#clip440)" d="M694.704 214.967 Q696.301 212.096 698.524 210.731 Q700.746 209.365 703.755 209.365 Q707.806 209.365 710.005 212.212 Q712.204 215.036 712.204 220.268 L712.204 235.916 L707.922 235.916 L707.922 220.407 Q707.922 216.68 706.602 214.874 Q705.283 213.069 702.574 213.069 Q699.264 213.069 697.343 215.268 Q695.422 217.467 695.422 221.263 L695.422 235.916 L691.139 235.916 L691.139 220.407 Q691.139 216.657 689.82 214.874 Q688.5 213.069 685.746 213.069 Q682.482 213.069 680.561 215.291 Q678.639 217.49 678.639 221.263 L678.639 235.916 L674.357 235.916 L674.357 209.99 L678.639 209.99 L678.639 214.018 Q680.098 211.633 682.135 210.499 Q684.172 209.365 686.973 209.365 Q689.797 209.365 691.764 210.8 Q693.755 212.235 694.704 214.967 Z" fill="#000000" fill-rule="nonzero" fill-opacity="1"></path><polyline clip-path="url(#clip440)" style="stroke:#ff0000; stroke-linecap:round; stroke-linejoin:round; stroke-width:4; stroke-opacity:1; fill:none" points="270.976,270.476 416.216,270.476 "></polyline>
<path clip-path="url(#clip440)" d="M440.423 253.196 L445.122 253.196 L445.122 274.191 Q445.122 279.747 447.136 282.2 Q449.15 284.631 453.664 284.631 Q458.154 284.631 460.168 282.2 Q462.182 279.747 462.182 274.191 L462.182 253.196 L466.881 253.196 L466.881 274.77 Q466.881 281.529 463.525 284.978 Q460.192 288.427 453.664 288.427 Q447.113 288.427 443.756 284.978 Q440.423 281.529 440.423 274.77 L440.423 253.196 Z" fill="#000000" fill-rule="nonzero" fill-opacity="1"></path><path clip-path="url(#clip440)" d="M480.33 257.038 L480.33 283.913 L485.978 283.913 Q493.131 283.913 496.441 280.672 Q499.775 277.432 499.775 270.441 Q499.775 263.497 496.441 260.279 Q493.131 257.038 485.978 257.038 L480.33 257.038 M475.654 253.196 L485.261 253.196 Q495.307 253.196 500.006 257.386 Q504.705 261.552 504.705 270.441 Q504.705 279.376 499.983 283.566 Q495.261 287.756 485.261 287.756 L475.654 287.756 L475.654 253.196 Z" fill="#000000" fill-rule="nonzero" fill-opacity="1"></path><path clip-path="url(#clip440)" d="M512.159 253.196 L534.011 253.196 L534.011 257.131 L516.835 257.131 L516.835 267.362 L533.293 267.362 L533.293 271.297 L516.835 271.297 L516.835 283.821 L534.427 283.821 L534.427 287.756 L512.159 287.756 L512.159 253.196 Z" fill="#000000" fill-rule="nonzero" fill-opacity="1"></path><path clip-path="url(#clip440)" d="M572.02 265.811 Q571.302 265.395 570.446 265.21 Q569.612 265.001 568.594 265.001 Q564.983 265.001 563.038 267.362 Q561.117 269.7 561.117 274.098 L561.117 287.756 L556.835 287.756 L556.835 261.83 L561.117 261.83 L561.117 265.858 Q562.459 263.497 564.612 262.362 Q566.765 261.205 569.844 261.205 Q570.284 261.205 570.816 261.274 Q571.348 261.321 571.996 261.436 L572.02 265.811 Z" fill="#000000" fill-rule="nonzero" fill-opacity="1"></path><path clip-path="url(#clip440)" d="M597.621 273.728 L597.621 275.811 L578.038 275.811 Q578.316 280.209 580.677 282.524 Q583.061 284.816 587.297 284.816 Q589.751 284.816 592.043 284.214 Q594.357 283.612 596.626 282.409 L596.626 286.436 Q594.334 287.408 591.927 287.918 Q589.52 288.427 587.043 288.427 Q580.839 288.427 577.205 284.816 Q573.594 281.205 573.594 275.047 Q573.594 268.682 577.02 264.955 Q580.469 261.205 586.302 261.205 Q591.533 261.205 594.566 264.585 Q597.621 267.941 597.621 273.728 M593.362 272.478 Q593.316 268.983 591.395 266.899 Q589.496 264.816 586.348 264.816 Q582.783 264.816 580.631 266.83 Q578.501 268.844 578.177 272.501 L593.362 272.478 Z" fill="#000000" fill-rule="nonzero" fill-opacity="1"></path><path clip-path="url(#clip440)" d="M623.269 262.825 L623.269 266.807 Q621.464 265.811 619.635 265.325 Q617.83 264.816 615.978 264.816 Q611.834 264.816 609.543 267.455 Q607.251 270.071 607.251 274.816 Q607.251 279.561 609.543 282.2 Q611.834 284.816 615.978 284.816 Q617.83 284.816 619.635 284.33 Q621.464 283.821 623.269 282.825 L623.269 286.76 Q621.487 287.594 619.566 288.01 Q617.668 288.427 615.515 288.427 Q609.658 288.427 606.209 284.746 Q602.76 281.066 602.76 274.816 Q602.76 268.473 606.232 264.839 Q609.728 261.205 615.793 261.205 Q617.76 261.205 619.635 261.622 Q621.51 262.015 623.269 262.825 Z" fill="#000000" fill-rule="nonzero" fill-opacity="1"></path><path clip-path="url(#clip440)" d="M640.723 264.816 Q637.297 264.816 635.306 267.501 Q633.316 270.163 633.316 274.816 Q633.316 279.469 635.283 282.154 Q637.274 284.816 640.723 284.816 Q644.126 284.816 646.116 282.131 Q648.107 279.446 648.107 274.816 Q648.107 270.21 646.116 267.524 Q644.126 264.816 640.723 264.816 M640.723 261.205 Q646.278 261.205 649.45 264.816 Q652.621 268.427 652.621 274.816 Q652.621 281.182 649.45 284.816 Q646.278 288.427 640.723 288.427 Q635.144 288.427 631.973 284.816 Q628.825 281.182 628.825 274.816 Q628.825 268.427 631.973 264.816 Q635.144 261.205 640.723 261.205 Z" fill="#000000" fill-rule="nonzero" fill-opacity="1"></path><path clip-path="url(#clip440)" d="M656.626 261.83 L661.14 261.83 L669.241 283.589 L677.343 261.83 L681.857 261.83 L672.135 287.756 L666.348 287.756 L656.626 261.83 Z" fill="#000000" fill-rule="nonzero" fill-opacity="1"></path><path clip-path="url(#clip440)" d="M709.912 273.728 L709.912 275.811 L690.329 275.811 Q690.607 280.209 692.968 282.524 Q695.352 284.816 699.588 284.816 Q702.042 284.816 704.334 284.214 Q706.649 283.612 708.917 282.409 L708.917 286.436 Q706.625 287.408 704.218 287.918 Q701.811 288.427 699.334 288.427 Q693.13 288.427 689.496 284.816 Q685.885 281.205 685.885 275.047 Q685.885 268.682 689.311 264.955 Q692.76 261.205 698.593 261.205 Q703.824 261.205 706.857 264.585 Q709.912 267.941 709.912 273.728 M705.653 272.478 Q705.607 268.983 703.686 266.899 Q701.787 264.816 698.639 264.816 Q695.075 264.816 692.922 266.83 Q690.792 268.844 690.468 272.501 L705.653 272.478 Z" fill="#000000" fill-rule="nonzero" fill-opacity="1"></path><path clip-path="url(#clip440)" d="M731.926 265.811 Q731.209 265.395 730.352 265.21 Q729.519 265.001 728.5 265.001 Q724.889 265.001 722.945 267.362 Q721.023 269.7 721.023 274.098 L721.023 287.756 L716.741 287.756 L716.741 261.83 L721.023 261.83 L721.023 265.858 Q722.366 263.497 724.519 262.362 Q726.672 261.205 729.75 261.205 Q730.19 261.205 730.722 261.274 Q731.255 261.321 731.903 261.436 L731.926 265.811 Z" fill="#000000" fill-rule="nonzero" fill-opacity="1"></path><path clip-path="url(#clip440)" d="M757.528 273.728 L757.528 275.811 L737.945 275.811 Q738.222 280.209 740.584 282.524 Q742.968 284.816 747.204 284.816 Q749.658 284.816 751.949 284.214 Q754.264 283.612 756.533 282.409 L756.533 286.436 Q754.241 287.408 751.833 287.918 Q749.426 288.427 746.949 288.427 Q740.746 288.427 737.111 284.816 Q733.5 281.205 733.5 275.047 Q733.5 268.682 736.926 264.955 Q740.375 261.205 746.209 261.205 Q751.44 261.205 754.472 264.585 Q757.528 267.941 757.528 273.728 M753.269 272.478 Q753.222 268.983 751.301 266.899 Q749.403 264.816 746.255 264.816 Q742.69 264.816 740.537 266.83 Q738.408 268.844 738.084 272.501 L753.269 272.478 Z" fill="#000000" fill-rule="nonzero" fill-opacity="1"></path><path clip-path="url(#clip440)" d="M781.579 265.765 L781.579 251.737 L785.838 251.737 L785.838 287.756 L781.579 287.756 L781.579 283.867 Q780.236 286.182 778.176 287.316 Q776.139 288.427 773.269 288.427 Q768.569 288.427 765.607 284.677 Q762.667 280.927 762.667 274.816 Q762.667 268.705 765.607 264.955 Q768.569 261.205 773.269 261.205 Q776.139 261.205 778.176 262.339 Q780.236 263.45 781.579 265.765 M767.065 274.816 Q767.065 279.515 768.986 282.2 Q770.931 284.862 774.31 284.862 Q777.69 284.862 779.634 282.2 Q781.579 279.515 781.579 274.816 Q781.579 270.117 779.634 267.455 Q777.69 264.77 774.31 264.77 Q770.931 264.77 768.986 267.455 Q767.065 270.117 767.065 274.816 Z" fill="#000000" fill-rule="nonzero" fill-opacity="1"></path><path clip-path="url(#clip440)" d="M813.893 254.469 L813.893 261.83 L822.666 261.83 L822.666 265.14 L813.893 265.14 L813.893 279.214 Q813.893 282.385 814.75 283.288 Q815.629 284.191 818.291 284.191 L822.666 284.191 L822.666 287.756 L818.291 287.756 Q813.361 287.756 811.486 285.927 Q809.611 284.075 809.611 279.214 L809.611 265.14 L806.486 265.14 L806.486 261.83 L809.611 261.83 L809.611 254.469 L813.893 254.469 Z" fill="#000000" fill-rule="nonzero" fill-opacity="1"></path><path clip-path="url(#clip440)" d="M850.444 273.728 L850.444 275.811 L830.861 275.811 Q831.139 280.209 833.5 282.524 Q835.884 284.816 840.12 284.816 Q842.574 284.816 844.865 284.214 Q847.18 283.612 849.449 282.409 L849.449 286.436 Q847.157 287.408 844.75 287.918 Q842.342 288.427 839.865 288.427 Q833.662 288.427 830.027 284.816 Q826.416 281.205 826.416 275.047 Q826.416 268.682 829.842 264.955 Q833.291 261.205 839.125 261.205 Q844.356 261.205 847.389 264.585 Q850.444 267.941 850.444 273.728 M846.185 272.478 Q846.139 268.983 844.217 266.899 Q842.319 264.816 839.171 264.816 Q835.606 264.816 833.453 266.83 Q831.324 268.844 831 272.501 L846.185 272.478 Z" fill="#000000" fill-rule="nonzero" fill-opacity="1"></path><path clip-path="url(#clip440)" d="M872.458 265.811 Q871.74 265.395 870.884 265.21 Q870.05 265.001 869.032 265.001 Q865.421 265.001 863.476 267.362 Q861.555 269.7 861.555 274.098 L861.555 287.756 L857.273 287.756 L857.273 261.83 L861.555 261.83 L861.555 265.858 Q862.898 263.497 865.05 262.362 Q867.203 261.205 870.282 261.205 Q870.722 261.205 871.254 261.274 Q871.787 261.321 872.435 261.436 L872.458 265.811 Z" fill="#000000" fill-rule="nonzero" fill-opacity="1"></path><path clip-path="url(#clip440)" d="M896.277 266.807 Q897.874 263.936 900.097 262.571 Q902.319 261.205 905.328 261.205 Q909.379 261.205 911.578 264.052 Q913.777 266.876 913.777 272.108 L913.777 287.756 L909.495 287.756 L909.495 272.247 Q909.495 268.52 908.175 266.714 Q906.856 264.909 904.147 264.909 Q900.837 264.909 898.916 267.108 Q896.995 269.307 896.995 273.103 L896.995 287.756 L892.712 287.756 L892.712 272.247 Q892.712 268.497 891.393 266.714 Q890.073 264.909 887.319 264.909 Q884.055 264.909 882.134 267.131 Q880.212 269.33 880.212 273.103 L880.212 287.756 L875.93 287.756 L875.93 261.83 L880.212 261.83 L880.212 265.858 Q881.671 263.473 883.708 262.339 Q885.745 261.205 888.546 261.205 Q891.37 261.205 893.337 262.64 Q895.328 264.075 896.277 266.807 Z" fill="#000000" fill-rule="nonzero" fill-opacity="1"></path></svg>